<?xml version="1.0" encoding="utf-8"?>
<!-- Generator: Adobe Illustrator 23.0.1, SVG Export Plug-In . SVG Version: 6.00 Build 0)  -->
<svg version="1.1" xmlns="http://www.w3.org/2000/svg" xmlns:xlink="http://www.w3.org/1999/xlink" x="0px" y="0px"
	 viewBox="0 0 154.52 219.02" style="enable-background:new 0 0 154.52 219.02;" xml:space="preserve">
<style type="text/css">
	.st0{display:none;}
	.st1{display:inline;fill:#757370;}
	.st2{display:inline;fill:#8F8C88;}
	.st3{display:inline;fill:#E0AE7F;}
	.st4{display:inline;fill:#DB96E9;}
	.st5{display:inline;fill:#D9A280;}
	.st6{display:inline;}
	.st7{display:inline;fill:#753225;}
	.st8{display:inline;fill:#5CA9E6;}
	.st9{fill:#EDE6DD;}
	.st10{fill:#C8BEB4;stroke:#727172;stroke-width:0.2179;stroke-miterlimit:10;}
	.st11{fill:#C8BEB4;stroke:#727172;stroke-width:0.1878;stroke-miterlimit:10;}
	.st12{opacity:0.54;fill:#342826;}
	.st13{fill:#E3DFE4;stroke:#474747;stroke-width:0.1503;stroke-miterlimit:10;}
	.st14{fill:#A0968C;stroke:#C8BEB4;stroke-width:0.8715;stroke-miterlimit:10;}
	.st15{fill:#372A29;}
	.st16{opacity:0.54;fill:#372A29;}
	.st17{fill:none;stroke:#372A29;stroke-width:0.3391;stroke-miterlimit:10;}
	.st18{fill:#253530;}
	.st19{fill:#8E8E8E;stroke:#363A39;stroke-width:0.1683;stroke-miterlimit:10;}
	.st20{fill:#191615;}
	.st21{fill:#CE3D25;}
	.st22{fill:#FFFFFF;}
	.st23{fill:#A82F1E;}
	.st24{fill:#222927;}
	.st25{fill:#D9A280;}
	.st26{fill:#B57E4F;}
	.st27{fill:#96C7F7;}
	.st28{fill:#974A37;}
	.st29{opacity:0.43;fill:#EFA1A1;}
	.st30{fill:#ED5F5F;}
	.st31{opacity:0.83;fill:#F4F4F4;}
	.st32{fill:#ED5F5F;stroke:#EFA1A1;stroke-width:2;stroke-miterlimit:10;}
	.st33{fill:#805035;}
	.st34{fill:#F3E6D6;}
	.st35{fill:#E8B486;}
	.st36{fill:none;stroke:#ED5F5F;stroke-width:3;stroke-miterlimit:10;}
	.st37{fill:#E06F5C;}
	.st38{fill:#F2E7E6;}
	.st39{fill:#A5A4A2;}
	.st40{fill:#E3C858;stroke:#DDBB34;stroke-width:2.1451;stroke-miterlimit:10;}
	.st41{fill:#E3C858;stroke:#DDBB34;stroke-width:2.1949;stroke-miterlimit:10;}
	.st42{fill:#E3C858;stroke:#DDBB34;stroke-width:3.6433;stroke-miterlimit:10;}
	.st43{fill:#0E110F;}
	.st44{fill:#773F30;}
	.st45{fill:#CF8775;}
	.st46{fill:#A980C2;}
	.st47{fill:#991B38;}
	.st48{fill:#F5F6F6;}
	.st49{fill:#C12538;}
	.st50{fill:none;stroke:#040506;stroke-width:0.6777;stroke-miterlimit:10;}
	.st51{fill:#A45E40;}
	.st52{fill:#010101;}
	.st53{fill:#EC9B80;}
	.st54{fill:#181927;}
	.st55{fill:#567BD1;stroke:#A2C0ED;stroke-width:3.8226;stroke-miterlimit:10;}
	.st56{fill:#757370;}
	.st57{fill:#8F8C88;}
	.st58{fill:#E0AE7F;}
	.st59{fill:#B562CA;}
	.st60{fill:#111010;}
	.st61{fill:#669C04;}
	.st62{fill:#567BD1;}
	.st63{fill:#F0F4F7;}
	.st64{fill:#969696;}
	.st65{fill:#020202;}
	.st66{fill:#636363;}
	.st67{fill:#181818;stroke:#2C2D2B;stroke-width:0.4942;stroke-miterlimit:10;}
	.st68{fill:#F9F9F9;}
	.st69{fill:#5C5E58;}
	.st70{fill:#BC866C;}
	.st71{fill:#6D4930;}
	.st72{fill:#181818;stroke:#5C5E58;stroke-width:0.5;stroke-miterlimit:10;}
	.st73{fill:#2954AA;}
	.st74{fill:#474747;}
	.st75{fill:#636363;stroke:#474747;stroke-width:0.1683;stroke-miterlimit:10;}
	.st76{fill:#E3DFE4;}
	.st77{fill:#C69479;}
	.st78{fill:#633127;}
	.st79{fill:#181818;stroke:#2C2D2B;stroke-width:0.2933;stroke-miterlimit:10;}
	.st80{fill:#AF826E;}
	.st81{fill:#181818;stroke:#5C5E58;stroke-width:0.2933;stroke-miterlimit:10;}
	.st82{fill:#72372B;}
	.st83{fill:#1A468E;}
	.st84{fill:#1A468E;stroke:#143359;stroke-width:0.25;stroke-miterlimit:10;}
	.st85{fill:#143359;}
	.st86{fill:#246319;}
	.st87{fill:#F2581C;}
	.st88{fill:#0A0A0A;}
	.st89{fill:#80CEC7;}
	.st90{fill:#C0213B;}
	.st91{fill:#FFE7EC;}
	.st92{opacity:0.37;fill:#B2B2B2;}
	.st93{fill:#848484;}
	.st94{fill:#A3A3A3;}
	.st95{fill:#148C83;}
	.st96{fill:#323127;}
	.st97{fill:#11756B;}
	.st98{fill:#BBBBBB;}
	.st99{fill:#D2D2D2;stroke:#9C9C9C;stroke-width:0.25;stroke-miterlimit:10;}
	.st100{fill:#7D7D7D;}
	.st101{fill:#E3DFE4;stroke:#474747;stroke-width:0.1843;stroke-miterlimit:10;}
	.st102{fill:#7D7D7D;stroke:#9C9C9C;stroke-miterlimit:10;}
	.st103{fill:#DFDFDF;}
	.st104{fill:#9C9C9C;}
	.st105{fill:#EDDA2B;}
	.st106{fill:#E8CD0A;}
	.st107{fill:#E0D2C3;}
	.st108{fill:#C8BEB4;stroke:#727172;stroke-width:0.2643;stroke-miterlimit:10;}
	.st109{fill:#A0968C;stroke:#C8BEB4;stroke-width:1.057;stroke-miterlimit:10;}
	.st110{fill:#E3DFE4;stroke:#474747;stroke-width:0.1823;stroke-miterlimit:10;}
	.st111{fill:#C8BEB4;}
</style>
<g id="Layer_2" class="st0">
</g>
<g id="Layer_1">
	<g>
		<path class="st64" d="M95.92,206.25c0,0-3.23,0.4-2.42,2.26s3.23,3.39,4.36,3.39C98.99,211.9,98.19,206.33,95.92,206.25z"/>
		<path class="st70" d="M87.66,74.51c0.32,4.86,0.68,6.32,0.38,7.55c-0.3,1.22,0.59,6.48,0.81,8.26c0.22,1.78,2.79,12.63,2.79,12.63
			s1.03,6.94,1.08,7.79c0.06,0.85,1.92,3.93,1.41,5.27s-2.51,9.52,1.9,11.76s4.32-1.43,3.29-1.19c-1.03,0.24,8.67-5.15,4.95-10.3
			c-3.72-5.15-3.93-4.7-4.18-7.09c-0.25-2.39-0.59-1.28-0.92-4.25c-0.33-2.98,0.36-17.49-0.01-19.21
			c-0.38-1.72-1.94-13.43-2.97-14.3C95.15,70.56,87.51,72.34,87.66,74.51z"/>
		<path class="st70" d="M127.24,41.74c0,0-1.14-0.63,0-3.78c1.14-3.15,1.51-6.18-0.5-6.18c-2.02,0-19.93-0.38-18.17,4.98
			s0.76,7.13,0.76,7.13S124.34,45.4,127.24,41.74z"/>
		<path class="st70" d="M104.65,25.19c0,0-0.54-0.79-1.39-0.79s-1.51,0.67-0.85,2.78s1.69,7.5,3.08,7.26
			c1.39-0.24,1.94-1.75,1.94-1.75L104.65,25.19z"/>
		<path class="st70" d="M132.36,24.4c0,0,0.85-0.36,1.03,0.54c0.18,0.91,0.3,3.81-0.51,5.32c-0.82,1.51-1.66,3.51-2.57,3.51
			C129.4,33.78,130.31,24.7,132.36,24.4z"/>
		<path class="st71" d="M132.4,22.05c0.85-7.17-1.14-13.79-5.37-16.4c-1.95-1.21-4.7-1.82-4.7-1.82c-0.76-0.2-2.01-0.48-3.58-0.63
			c-0.48-0.04-2.21-0.2-4.01-0.02c-2.64,0.27-5.39,1.25-7.06,2.41c-4.34,3-4.67,9.37-4.86,12.99c-0.42,8.15,2.72,14.64,4.85,18.16
			c6.15,4.46,14.28,4.29,19.58-0.11C133.7,31.25,132.47,22.48,132.4,22.05z"/>
		<path class="st65" d="M98.11,118.37c0,0,0.31,0.59,0.28,1.33c-0.03,0.73-0.77,5.84-0.91,7.59c-0.14,1.75-0.56,7-0.38,7.73
			c0.17,0.73,0.07,0.98-0.42,1.05c-0.49,0.07-0.1,4.13,0,5.18c0.1,1.05-0.31,1.4-0.24,2.06c0.07,0.66-0.35,1.22-0.35,2.31
			c0,1.08,0.42,5.7,1.4,9.51s0.42,5.07,0.42,5.63c0,0.56,0.21,4.16,0.73,5.95s-0.03,4.44,0.28,5.39s0,1.64,0,2.34
			s-0.49,1.47-0.91,2.1c-0.42,0.63-0.63,1.33-0.87,3.5c-0.24,2.17-0.45,2.9-0.49,3.53c-0.03,0.63-0.03,1.33-0.24,1.75
			c-0.21,0.42-0.7,1.05-0.94,1.82s-0.73,0.7-0.87,1.75s0,1.36-0.31,2.13s-0.73,0.7-0.21,1.89s0.31,3.53,0.49,4.27
			c0.17,0.73,0.17,3.04,1.26,4.41c1.08,1.36,1.01,2.17,0.77,2.55s-0.38,5.98,1.29,7.76c1.68,1.78,1.15,1.99,2.2,2.2
			c1.05,0.21,5.42,2.06,7.45,1.99c2.03-0.07,6.4-1.05,6.89-2.2c0.49-1.15,0-2.38,0.52-4.06c0.52-1.68,0.73-6.05,0.87-7.56
			c0.14-1.5,0.84-3.5,0.84-4.44s2.24-6.44,2.73-8.6c0.49-2.17,0.7-3.92,0-5.25c-0.7-1.33-0.77-3.08-0.73-3.64
			c0.03-0.56,0.66-8.6,0.14-9.65s-0.49-2.66-0.1-3.46c0.38-0.81,1.5-5.6,1.61-6.75c0.1-1.15,0.38-2.52,0.52-2.24
			c0.14,0.28,0.31,2.55,0.31,3.67c0,1.12,0.73,4.02,0.73,4.76c0,0.73-0.7,2.69-0.28,4.02c0.42,1.33,0.59,2.69,0.59,3.5
			s0,5.74,0,7.35s0.87,3.64,0.84,4.41c-0.03,0.77-0.31,7-0.77,8.32s-0.38,1.5-1.26,1.75c-0.87,0.24-1.85,0.91-2.03,2.55
			c-0.17,1.64-0.38,3.92-0.14,4.62s0.8,3.6,1.26,4.83c0.45,1.22-0.73,3.18,0.87,4.62c1.61,1.43,2.94,1.99,3.67,2.06
			c0.73,0.07,3.25,0.35,4.97-0.07s5.14-1.5,6.23-3.92c1.08-2.41,1.54-2.24,2.41-3.5c0.87-1.26,1.22-2.76,1.12-3.85
			c-0.1-1.08,1.19-4.51,1.75-7.21c0.56-2.69,0.91-8.04,0.84-9.13c-0.07-1.08-1.89-6.54-1.47-8.04c0.42-1.5-0.07-4.51,0.42-6.12
			s0.59-8.18,0.91-9.55c0.31-1.36-0.24-6.54-0.66-8.6c-0.42-2.06-1.33-5.98-0.63-8.85c0.7-2.87,0.4-8.65,0.47-9.63
			c0.07-0.99,7.43-22.05,6.09-22.87C145.71,112.55,97.83,117.04,98.11,118.37z"/>
		<path class="st70" d="M148.4,74.51c0,0,1.47,8.31,1.71,9.61c0.24,1.3,0.41,3.34,0.65,4.64c0.24,1.3,0.57,5.54,0.57,7.58
			s-0.73,9.45-0.98,10.67c-0.24,1.22,0,6.92-0.49,7.9c-0.49,0.98-4.07,8.15-4.15,9.12c-0.08,0.98-0.49,5.38-1.06,6.52
			s-1.63,4.32-2.44,4.48c-0.81,0.16-1.71-2.44-1.06-4.97c0.65-2.53,2.12-15.31,3.26-15.56c1.14-0.24-1.87-19.63-1.87-19.63
			l-3.58-12.22C138.95,82.66,135.86,69.13,148.4,74.51z"/>
		<path class="st21" d="M143.95,114.16c0,0-5.26,2-13.75,3.98c-8.49,1.99-26.89,3.61-30.53,0.98l-1.62-0.98c0,0-0.61-4.37,0.72-6.72
			s0.2-3.47-0.31-5.72s-0.18-3.27-0.55-5.31c-0.37-2.04-0.27-5.21,1.06-8.07s1.23-3.88,0.82-6.85c-0.41-2.96-1.23-8.69-1.23-8.69
			c-0.02,0.73-0.04,1.45-0.07,2.18c-4.69-0.39-12.16-1.49-12.9-4.76c-0.07-0.29-0.06-0.57,0.46-4.15c0.36-2.46,0.65-4.42,0.86-5.53
			c0.67-3.55,1.02-9.62,5.21-12.67c1.12-0.82,10.53-7.15,11.85-6.95c1.33,0.2,3.27-2.55,4.19-2.45c0.92,0.1,11.55,1.33,17.68-0.82
			c0,0,2.25-1.02,2.35-0.72c0.1,0.31,4.5,2.35,5.83,2.45c1.33,0.1,9.2,3.07,10.42,6.23c1.23,3.17,1.94,9.91,3.68,13.69
			c1.74,3.78,0.04,6.6,1.29,10.99c0,0-7.06,1.77-7.63,1.69c-0.57-0.08-0.49-5.05-0.65-6.19s1.14,8.59,0.73,10.89
			c-0.41,2.3-2.36,5.15-2.04,6.62c0.33,1.47-1.96,4.4-0.24,8.39s6.11,17.51,6.11,17.51L143.95,114.16z"/>
		<path class="st72" d="M125.19,121.98c0,0,0.08,15.35,0,16.24c-0.08,0.9-1.57,5.82-0.3,6.27s12.44,1.43,14.18,0.37
			c1.74-1.06,1.64-17.17,3.88-19.41c2.24-2.24,0.27-0.95,0.27-0.95S125.18,120.89,125.19,121.98z"/>
		<path class="st72" d="M116.23,122.81c0,0-1.48,15.28-1.48,16.18c-0.01,0.9,1.03,5.94-0.27,6.27c-1.3,0.33-12.52,0.29-14.16-0.92
			c-1.64-1.21-0.07-17.25-2.09-19.68c-2.03-2.43-0.19-0.97-0.19-0.97S116.34,121.72,116.23,122.81z"/>
		<path class="st72" d="M124.44,121c0,0,3.14,4.43,5.72,5.39c2.58,0.95,2.97,0.11,4.32,0c1.35-0.11,2.75,1.35,6.01-0.45
			c3.26-1.8,6.34-2.86,5.56-4.38c-0.79-1.52-1.85-3.7-1.85-3.7s0.9-1.38-2.3-0.36C138.69,118.53,123.87,120.25,124.44,121z"/>
		<circle class="st69" cx="137.32" cy="123.77" r="1.29"/>
		<path class="st72" d="M118.37,122.55c0,0,0.83,0.52,0,1.34c-0.83,0.83-0.97,2.68-2.08,3.2c-1.12,0.52-2.15,1.45-3.9,1.24
			s-4.03,0.31-7.54-0.62s-6.92-1.62-7.43-2.26c-0.52-0.63,0.52-1.67,0.62-2.08s-0.14-1.17,0.59-1.79c0.73-0.62,1.68-1.01,2.58-0.62
			c0.9,0.39,2.86,0.17,3.42,0.45c0.56,0.28,1.74,0,2.75,0.39C108.39,122.21,118.37,122.55,118.37,122.55z"/>
		<circle class="st69" cx="106.44" cy="124.42" r="1.29"/>
	</g>
	<g>
		<path class="st25" d="M48.4,81.16c0,0,3.46-12.03,7.29-12.7s4.34,3.59,4.34,3.59s7.77,28.07,7.17,36.43s-0.36,15.14,0.28,16.58
			c0.64,1.44,2.87,4.93,1.63,8.75c-1.24,3.82-4.53,4.93-4.13,0.79s-0.89-5.12-0.89-5.12s-1.41,3.03-1.97,1.39
			c-0.56-1.65,0.31-2.03,0.44-4.84s-3.49-26.17-4.59-28.27C56.88,95.65,48.4,81.16,48.4,81.16z"/>
		<path class="st25" d="M26.41,167.63c0,0-2.04,7.58-1.55,14.09c0.49,6.51,1.29,17.59,0.74,20.9s-0.99,3.89-0.81,4.57
			s-0.8,4.96,1.63,5.83c3.15,1.13,9.33-2.52,8.94-4.76c-0.1-0.57-0.62-0.87-0.94-1.12c-3.69-2.87,0.23-14.9,2.3-22.21
			c1.06-3.76,2.5-9.32,3.79-16.33C40.5,168.6,27.86,164.33,26.41,167.63z"/>
		<path class="st88" d="M26.77,213.22c0.69,0.11,1.65,0.2,2.79,0.11c1.58-0.13,5.3-0.35,6.12-2.33c0.8-1.93-1.3-5.16-4.08-6.09
			c-2.69-0.9-6.01,0.38-6.89,2.32c-0.14,0.31-0.16,0.59-0.16,0.78c-0.07,0.27-0.63,2.64,0.85,4.26
			C25.86,212.76,26.36,213.05,26.77,213.22z"/>
		<path class="st25" d="M30.69,83.07c-1.07-6.42-3.66-11.27-6.94-12.03c-0.58-0.13-2.35-0.54-3.55,0.39
			c-1.04,0.8-1.82,3.49-1.82,3.49l0,0c0,0-5.53,28.59-4.26,36.88c1.26,8.29,1.56,15.06,1.03,16.55c-0.52,1.49-2.47,5.14-0.94,8.85
			c1.54,3.71,4.91,4.56,4.18,0.46c-0.73-4.09,0.48-5.17,0.48-5.17s1.65,2.91,2.07,1.23c0.42-1.69-0.47-2-0.82-4.79
			s1.41-26.37,2.34-28.54C23.38,98.2,30.69,83.07,30.69,83.07z"/>
		<path class="st25" d="M59,168.85c0,0,2.04,7.58,1.55,14.09c-0.49,6.51-1.29,17.59-0.74,20.9s0.99,3.89,0.81,4.57
			s0.8,4.96-1.63,5.83c-3.15,1.13-9.33-2.52-8.94-4.76c0.1-0.57,0.62-0.87,0.94-1.12c3.69-2.87-0.23-14.9-2.3-22.21
			c-1.06-3.76-2.5-9.32-3.79-16.33C44.91,169.82,57.54,165.54,59,168.85z"/>
		<path class="st25" d="M57.01,68.9c-6.19,1.07-11.46-1.45-12.82-5.27c-0.24-0.68-0.8-2.62,0.32-5.44
			c-2.44-0.74-6.29-2.06-10.77-4.28c-6.77-3.35-8.95-5.77-10.8-4.77c-2.85,1.54-1.89,9.2,0.35,13.81c2.12,4.37,5.38,5.99,5.96,5.87
			c0.01,0,0.09-0.02,0.16,0.02c0.41,0.18,0.54,1.4,0.14,2.03c-0.39,0.61-1.27,0.66-3.73,0.63c-1.25-0.01-2.75-0.05-4.46-0.11
			c1.91,2.91,6.79,9.35,15.42,12.04c2.87,0.89,13.45,4.2,18.54-1.77C59.21,77.08,57.33,70.03,57.01,68.9z"/>
		<path class="st22" d="M22.8,47.01c0,0,1.06-1.92,2.26,0c1.21,1.92,1.17,2.09-1.13,2.11S22.8,47.01,22.8,47.01z"/>
		<g>
			<g>
				<path class="st65" d="M48,49.23c-0.28,1.27-0.1,1.46,0.05,2.7c0.27,2.25-1.24,2.93-1.61,4.94c-0.18,0.97-0.1,1.96,0.31,2.87
					c0.17,0.38,0.4,0.74,0.66,1.07c1.33,1.74,1.05,0.39,0.77,3.46c0.09-0.96-1.41-0.96-1.5,0c-0.3,3.38,4.22,2.74,4.44-0.3
					c0.04-0.5-0.06-1.07-0.27-1.53c-0.34-0.76-0.48-0.63-0.85-1.17c-1.05-1.52-0.79-0.12-1.32-3.04c-0.5-2.76-0.17-1.86,0.7-3.7
					c0.14-0.3,0.38-0.65,0.45-0.98c0.31-1.37-0.69-2.52-0.38-3.92C49.65,48.68,48.21,48.28,48,49.23L48,49.23z"/>
			</g>
		</g>
		<g>
			<g>
				<path class="st65" d="M49.72,49.62c5.04-0.06,2.33,6.89,2.08,9.13c-0.08,0.67-0.25,1.83,0.27,2.41
					c0.36,0.39,0.79,0.27,1.16,0.49c2.69,1.55,1.82,1.24,1.62,3.59c-0.04,0.42,0.37,0.73,0.75,0.75c1.16,0.05,2.2,0.01,3.35-0.13
					c0.95-0.11,0.96-1.61,0-1.5c-1.15,0.13-2.19,0.17-3.35,0.13c0.25,0.25,0.5,0.5,0.75,0.75c0.11-1.35,1.55-2.91,0.49-4.15
					c-0.4-0.47-1.46-0.67-1.98-0.77c-0.33-0.07-1.19,0.05-1.42-0.15c-0.57-0.49,0.23-3.18,0.36-3.79c0.75-3.45,0.57-8.31-4.08-8.25
					C48.75,48.13,48.75,49.63,49.72,49.62L49.72,49.62z"/>
			</g>
		</g>
		<path class="st65" d="M20.56,46.02c0,0-1.84-9.45,6.05-12.43s12.05-3.16,16.22,0s4.82,10.74,5.15,12.43
			c0.33,1.69-0.28,13.96-8.03,14.29S22.51,57.48,20.56,46.02z"/>
		<g>
			<g>
				<path class="st65" d="M22.16,48.1c-2.98-0.15-5.56,1.47-6.62,4.3c-0.6,1.61-0.62,3.31-0.22,4.97c0.2,0.83,0.5,1.59,0.87,2.35
					c0.24,0.51,0.51,1,0.8,1.48c1.11,1.49,0.96,3.15-0.46,4.97c0.91,0.32,1.31-1.13,0.4-1.45c-0.51-0.18-0.74-0.15-1.17,0.18
					c-0.27,0.21-0.44,0.49-0.34,0.85c0.55,2.14,3.13,1.96,4.08,0.12c0.74-1.45-0.05-3.14-0.67-4.45c-0.95-1.99-2.22-3.66-2.28-5.98
					c-0.09-3.35,2.22-6.01,5.63-5.84C23.12,49.65,23.12,48.15,22.16,48.1L22.16,48.1z"/>
			</g>
		</g>
		<g>
			<path class="st65" d="M22.03,50.5c0.06,0.71,0.12,1.45-0.08,2.14c-0.45,1.59-2.17,2.69-2.29,4.34c-0.09,1.22,0.75,2.34,0.78,3.56
				c0.04,1.42-1.15,2.74-2.56,2.93"/>
			<g>
				<path class="st65" d="M21.28,50.5c0.18,2.58-1.56,3.4-2.21,5.6c-0.61,2.07,2.17,5.68-1.39,6.64c-0.93,0.25-0.54,1.7,0.4,1.45
					c2.14-0.58,3.43-2.34,2.98-4.58c-0.27-1.35-0.99-1.9-0.33-3.56c0.26-0.66,0.87-1.17,1.23-1.77c0.75-1.23,0.91-2.34,0.81-3.78
					C22.71,49.54,21.21,49.53,21.28,50.5L21.28,50.5z"/>
			</g>
		</g>
		<path class="st89" d="M48.02,46.99c0,0,2.2-0.55,1.1,1.38C48.02,50.29,45.82,52.63,48.02,46.99z"/>
		<path class="st89" d="M20.86,48.46c0,0,0.54-2.2,1.73-0.33C23.78,50,24.82,53.04,20.86,48.46z"/>
		<path class="st88" d="M58.71,214.37c-0.67,0.16-1.6,0.29-2.7,0.16c-1.53-0.18-5.12-0.49-5.92-3.3c-0.77-2.74,1.25-7.31,3.94-8.62
			c2.6-1.27,5.81,0.54,6.65,3.29c0.13,0.43,0.15,0.84,0.15,1.11c0.07,0.38,0.61,3.74-0.83,6.03
			C59.6,213.72,59.11,214.13,58.71,214.37z"/>
		<g>
			<g>
				<path class="st65" d="M48.12,48.73c-0.12,1.38,0.49,2.43,0.57,3.79c0.09,1.5-0.71,2.67-0.61,4.17c0.06,0.93,0.4,1.88,0.96,2.63
					c0.24,0.32,0.54,0.59,0.83,0.85c1.71,1.5,1.06,0.1,1.42,3.37c-0.1-0.95-1.61-0.96-1.5,0c0.38,3.47,4.76,2.09,4.31-1.08
					c-0.36-2.49-3.45-2.98-4.41-5.17c-0.82-1.89,1.09-3.1,1.07-4.79c-0.02-1.49-1.29-2.15-1.15-3.77
					C49.71,47.77,48.21,47.77,48.12,48.73L48.12,48.73z"/>
			</g>
		</g>
		<g>
			<g>
				<path class="st65" d="M49.94,48.71c4.48-1.1,3.71,5.09,3.74,7.48c0.01,0.89-0.1,2.75,0.75,3.35c0.72,0.52,1.33,0.18,2.15,0.17
					c0.92-0.02,1.28-0.07,1.51,0.67c0.18,0.57-0.18,1.83-0.1,2.49c0.06,0.52,0.43,0.81,0.95,0.72c1.14-0.18,2.16-0.43,3.25-0.79
					c0.91-0.3,0.52-1.75-0.4-1.45c-1.1,0.36-2.11,0.6-3.25,0.79c0.32,0.24,0.63,0.48,0.95,0.72c-0.17-1.44,1-3.3-0.39-4.33
					c-0.51-0.38-1.57-0.34-2.11-0.33c-1.27,0.02-0.95,0.44-1.52-0.95c-0.45-1.11-0.23-2.17-0.23-3.33c-0.01-3.39-1.5-7.68-5.7-6.65
					C48.6,47.5,49,48.94,49.94,48.71L49.94,48.71z"/>
			</g>
		</g>
		<g>
			<g>
				<path class="st65" d="M49.65,48.59c0.1,1.09,0.63,1.57,0.98,2.51c0.7,1.85,0.07,3.34,0.38,5.13c0.18,1.06,0.7,2.06,1.5,2.79
					c0.49,0.44,1.01,0.66,1.59,0.95c2.91,1.44,0.4-0.41,1.33,2.69c-0.28-0.92-1.72-0.53-1.45,0.4c0.92,3.07,4.66,1.4,4.1-1.49
					c-0.49-2.53-3.47-2.53-4.8-4.3c-1.41-1.88-0.1-3.19-0.35-5.18c-0.16-1.29-1.7-2.37-1.81-3.5
					C51.06,47.64,49.56,47.63,49.65,48.59L49.65,48.59z"/>
			</g>
		</g>
		<g>
			<g>
				<path class="st65" d="M51.49,48.35c5.81-2.61,3.76,8.41,6.29,9.84c0.66,0.37,1.17,0.05,1.85-0.09c1.34-0.27,1.52-0.66,1.93,0.34
					c0.24,0.6,0.15,1.76,0.37,2.47c0.11,0.37,0.53,0.66,0.92,0.52C64,61.05,65.04,60.59,66.1,60c0.84-0.47,0.09-1.77-0.76-1.3
					c-0.93,0.52-1.87,0.94-2.88,1.28c0.31,0.17,0.62,0.35,0.92,0.52c-0.44-1.44,0.39-3.52-1.31-4.16c-0.84-0.32-1.64,0.24-2.44,0.18
					c-0.93-0.08-1.01,0.31-1.49-0.93c-0.26-0.67-0.3-1.53-0.41-2.23c-0.58-3.53-2.55-8.31-6.98-6.32
					C49.86,47.45,50.62,48.74,51.49,48.35L51.49,48.35z"/>
			</g>
		</g>
		<g>
			<g>
				<path class="st65" d="M21.01,49.34c-0.98,0.49-1.25,1.15-1.87,1.92c-1.45,1.8-2.75,1.13-4.47,2.19
					c-0.85,0.53-1.55,1.34-1.94,2.25c-0.19,0.44-0.3,0.89-0.36,1.37c-0.31,2.41,0.74,1.42-2.07,3.1c0.83-0.5,0.07-1.79-0.76-1.3
					c-3.1,1.86,1.26,5.73,3.63,2.61c1.91-2.52-0.75-6.05,3.49-7.2c0.98-0.26,2.05-0.16,2.88-0.84c1.02-0.83,0.92-2.18,2.21-2.82
					C22.64,50.21,21.88,48.91,21.01,49.34L21.01,49.34z"/>
			</g>
		</g>
		<g>
			<g>
				<path class="st65" d="M19.96,50.83c4.91,4.84-6.33,6.53-6.53,9.69c-0.04,0.58,0.39,0.83,0.54,1.36
					c0.79,2.87,0.21,2.17-1.49,3.59c-0.32,0.27-0.25,0.78,0,1.06c0.78,0.85,1.54,1.57,2.45,2.29c0.75,0.6,1.82-0.46,1.06-1.06
					c-0.9-0.72-1.67-1.43-2.45-2.29c0,0.35,0,0.71,0,1.06c1.19-1,3.04-0.9,3.29-2.57c0.1-0.7-0.76-1.4-0.85-1.96
					c-0.41-2.53,1-2.77,2.55-3.82c2.85-1.93,5.59-5.35,2.49-8.41C20.33,49.09,19.27,50.15,19.96,50.83L19.96,50.83z"/>
			</g>
		</g>
		<g>
			<g>
				<path class="st65" d="M24.67,49.66c-2.98-0.15-5.56,1.47-6.62,4.3c-0.6,1.61-0.62,3.31-0.22,4.97c0.2,0.83,0.5,1.59,0.87,2.35
					c0.24,0.51,0.51,1,0.8,1.48c1.11,1.49,0.96,3.15-0.46,4.97c0.91,0.32,1.31-1.13,0.4-1.45c-0.51-0.18-0.74-0.15-1.17,0.18
					c-0.27,0.21-0.44,0.49-0.34,0.85c0.55,2.14,3.13,1.96,4.08,0.12c0.74-1.45-0.05-3.14-0.67-4.45c-0.95-1.99-2.22-3.66-2.28-5.98
					c-0.09-3.35,2.22-6.01,5.63-5.84C25.64,51.2,25.63,49.7,24.67,49.66L24.67,49.66z"/>
			</g>
		</g>
		<g>
			<g>
				<path class="st65" d="M21.53,50.89c-0.98,0.49-1.25,1.15-1.87,1.92c-1.45,1.8-2.75,1.13-4.47,2.19
					c-0.85,0.53-1.55,1.34-1.94,2.25c-0.19,0.44-0.3,0.89-0.36,1.37c-0.31,2.41,0.74,1.42-2.07,3.1c0.83-0.5,0.07-1.79-0.76-1.3
					c-3.1,1.86,1.26,5.73,3.63,2.61c1.91-2.52-0.75-6.05,3.49-7.2c0.98-0.26,2.05-0.16,2.88-0.84c1.02-0.83,0.92-2.18,2.21-2.82
					C23.15,51.76,22.39,50.47,21.53,50.89L21.53,50.89z"/>
			</g>
		</g>
		<g>
			<path class="st90" d="M56.96,105.67c0,0,16.72,37.69,22.33,54.98s1.68,13.49-3.65,16.25s-13.46,0.35-16.55,3.46
				s-10.1,6.92-13.46,4.5c-3.37-2.42-4.77-4.84-7.57-1.73c-2.8,3.11-3.93,5.68-9.82,2.5c-5.89-3.19-8.13,0.27-12.06-2.84
				s-4.77-7.95-10.38-11.41s-1.4-11.07,0-19.37s18.23-46.34,18.23-46.34H56.96z"/>
			<path class="st91" d="M56.96,102.81c0,0,16.72,37.69,22.33,54.98s1.68,13.49-3.65,16.25c-5.33,2.77-13.46,0.35-16.55,3.46
				c-3.08,3.11-10.1,6.92-13.46,4.5c-3.37-2.42-4.77-4.84-7.57-1.73c-2.8,3.11-3.93,5.68-9.82,2.5c-5.89-3.19-8.13,0.27-12.06-2.84
				c-3.93-3.11-4.77-7.95-10.38-11.41c-5.61-3.46-1.4-11.07,0-19.37s18.23-46.34,18.23-46.34H56.96z"/>
			<path class="st90" d="M56.96,100.47c0,0,16.72,37.69,22.33,54.98s1.68,13.49-3.65,16.25c-5.33,2.77-13.46,0.35-16.55,3.46
				s-10.1,6.92-13.46,4.5c-3.37-2.42-4.77-4.84-7.57-1.73c-2.8,3.11-3.93,5.68-9.82,2.5c-5.89-3.19-8.13,0.27-12.06-2.84
				c-3.93-3.11-4.77-7.95-10.38-11.41c-5.61-3.46-1.4-11.07,0-19.37s18.23-46.34,18.23-46.34H56.96z"/>
		</g>
		<path class="st90" d="M50.14,68.43c1.05,0.22,2.54,0.39,4.28,0.07c0.75-0.14,1.01-0.27,1.34-0.11c0.83,0.41,0.7,2.01,0.09,7.62
			c-0.44,3.98-0.58,5.09-1.54,5.64c-0.92,0.52-2.15,0.28-2.85-0.1C47.69,79.54,50.01,68.99,50.14,68.43z"/>
		<path class="st90" d="M36.68,100.47c6.76,0,13.53,0,20.29,0c-0.08-1.93-0.21-4.65-0.41-7.9c-0.79-13.01-1.44-14.2-2.3-15.05
			c-2.06-2.04-3.88-0.98-16.19-1.02c-8.29-0.02-10.19-0.9-12.13,0.9c-1.95,1.81-2.08,5.1-2.26,11.63
			c-0.13,4.81,0.12,8.77,0.38,11.44C28.25,100.47,32.46,100.47,36.68,100.47z"/>
		<path class="st90" d="M29.54,70.88c-1.21,0.34-2.75,0.57-4.46,0.27c-0.74-0.13-1-0.27-1.34-0.11c-0.83,0.41-0.7,2.01-0.09,7.62
			c0.44,3.98,0.58,5.09,1.54,5.64c0.93,0.53,2.16,0.26,2.85-0.1C31.88,82.18,29.68,71.51,29.54,70.88z"/>
	</g>
</g>
</svg>
