<?xml version="1.0" encoding="utf-8"?>
<!-- Generator: Adobe Illustrator 23.0.1, SVG Export Plug-In . SVG Version: 6.00 Build 0)  -->
<svg version="1.1" xmlns="http://www.w3.org/2000/svg" xmlns:xlink="http://www.w3.org/1999/xlink" x="0px" y="0px"
	 viewBox="0 0 379.44 205.39" style="enable-background:new 0 0 379.44 205.39;" xml:space="preserve">
<style type="text/css">
	.st0{display:none;}
	.st1{display:inline;fill:#757370;}
	.st2{display:inline;fill:#8F8C88;}
	.st3{display:inline;fill:#E0AE7F;}
	.st4{display:inline;fill:#DB96E9;}
	.st5{display:inline;fill:#D9A280;}
	.st6{display:inline;}
	.st7{display:inline;fill:#753225;}
	.st8{display:inline;fill:#5CA9E6;}
	.st9{fill:#EDE6DD;}
	.st10{fill:#C8BEB4;stroke:#727172;stroke-width:0.2179;stroke-miterlimit:10;}
	.st11{fill:#C8BEB4;stroke:#727172;stroke-width:0.1878;stroke-miterlimit:10;}
	.st12{opacity:0.54;fill:#342826;}
	.st13{fill:#E3DFE4;stroke:#474747;stroke-width:0.1503;stroke-miterlimit:10;}
	.st14{fill:#A0968C;stroke:#C8BEB4;stroke-width:0.8715;stroke-miterlimit:10;}
	.st15{fill:#372A29;}
	.st16{opacity:0.54;fill:#372A29;}
	.st17{fill:none;stroke:#372A29;stroke-width:0.3391;stroke-miterlimit:10;}
	.st18{fill:#253530;}
	.st19{fill:#8E8E8E;stroke:#363A39;stroke-width:0.1683;stroke-miterlimit:10;}
	.st20{fill:#191615;}
	.st21{fill:#CE3D25;}
	.st22{fill:#FFFFFF;}
	.st23{fill:#A82F1E;}
	.st24{fill:#222927;}
	.st25{fill:#D9A280;}
	.st26{fill:#B57E4F;}
	.st27{fill:#96C7F7;}
	.st28{fill:#974A37;}
	.st29{opacity:0.43;fill:#EFA1A1;}
	.st30{fill:#ED5F5F;}
	.st31{opacity:0.83;fill:#F4F4F4;}
	.st32{fill:#ED5F5F;stroke:#EFA1A1;stroke-width:2;stroke-miterlimit:10;}
	.st33{fill:#805035;}
	.st34{fill:#F3E6D6;}
	.st35{fill:#E8B486;}
	.st36{fill:none;stroke:#ED5F5F;stroke-width:3;stroke-miterlimit:10;}
	.st37{fill:#E06F5C;}
	.st38{fill:#F2E7E6;}
	.st39{fill:#A5A4A2;}
	.st40{fill:#E3C858;stroke:#DDBB34;stroke-width:2.1451;stroke-miterlimit:10;}
	.st41{fill:#E3C858;stroke:#DDBB34;stroke-width:2.1949;stroke-miterlimit:10;}
	.st42{fill:#E3C858;stroke:#DDBB34;stroke-width:3.6433;stroke-miterlimit:10;}
	.st43{fill:#0E110F;}
	.st44{fill:#773F30;}
	.st45{fill:#CF8775;}
	.st46{fill:#A980C2;}
	.st47{fill:#991B38;}
	.st48{fill:#F5F6F6;}
	.st49{fill:#C12538;}
	.st50{fill:none;stroke:#040506;stroke-width:0.6777;stroke-miterlimit:10;}
	.st51{fill:#A45E40;}
	.st52{fill:#010101;}
	.st53{fill:#EC9B80;}
	.st54{fill:#181927;}
	.st55{fill:#567BD1;stroke:#A2C0ED;stroke-width:3.8226;stroke-miterlimit:10;}
	.st56{fill:#757370;}
	.st57{fill:#8F8C88;}
	.st58{fill:#E0AE7F;}
	.st59{fill:#B562CA;}
	.st60{fill:#111010;}
	.st61{fill:#669C04;}
	.st62{fill:#567BD1;}
	.st63{fill:#F0F4F7;}
	.st64{fill:#969696;}
	.st65{fill:#020202;}
	.st66{fill:#636363;}
	.st67{fill:#181818;stroke:#2C2D2B;stroke-width:0.4942;stroke-miterlimit:10;}
	.st68{fill:#F9F9F9;}
	.st69{fill:#5C5E58;}
	.st70{fill:#181818;stroke:#5C5E58;stroke-width:0.5;stroke-miterlimit:10;}
	.st71{fill:#2954AA;}
	.st72{fill:#474747;}
	.st73{fill:#636363;stroke:#474747;stroke-width:0.1683;stroke-miterlimit:10;}
	.st74{fill:#E3DFE4;}
	.st75{fill:#C69479;}
	.st76{fill:#633127;}
	.st77{fill:#181818;stroke:#2C2D2B;stroke-width:0.2933;stroke-miterlimit:10;}
	.st78{fill:#AF826E;}
	.st79{fill:#181818;stroke:#5C5E58;stroke-width:0.2933;stroke-miterlimit:10;}
	.st80{fill:#72372B;}
	.st81{fill:#1A468E;}
	.st82{fill:#1A468E;stroke:#143359;stroke-width:0.25;stroke-miterlimit:10;}
	.st83{fill:#143359;}
	.st84{fill:#246319;}
	.st85{fill:#F2581C;}
	.st86{fill:#0A0A0A;}
	.st87{fill:#80CEC7;}
	.st88{fill:#C0213B;}
	.st89{fill:#FFE7EC;}
	.st90{opacity:0.37;fill:#B2B2B2;}
	.st91{fill:#848484;}
	.st92{fill:#A3A3A3;}
	.st93{fill:#148C83;}
	.st94{fill:#323127;}
	.st95{fill:#11756B;}
	.st96{fill:#C8BEB4;stroke:#727172;stroke-width:0.2643;stroke-miterlimit:10;}
	.st97{fill:#A0968C;stroke:#C8BEB4;stroke-width:1.057;stroke-miterlimit:10;}
	.st98{fill:#E3DFE4;stroke:#474747;stroke-width:0.1823;stroke-miterlimit:10;}
	.st99{fill:#C8BEB4;}
	.st100{fill:#BBBBBB;}
	.st101{fill:#D2D2D2;stroke:#9C9C9C;stroke-width:0.25;stroke-miterlimit:10;}
	.st102{fill:#7D7D7D;}
	.st103{fill:#E3DFE4;stroke:#474747;stroke-width:0.1843;stroke-miterlimit:10;}
	.st104{fill:#7D7D7D;stroke:#9C9C9C;stroke-miterlimit:10;}
	.st105{fill:#DFDFDF;}
	.st106{fill:#9C9C9C;}
	.st107{fill:#EDDA2B;}
	.st108{fill:#E8CD0A;}
</style>
<g id="Layer_2" class="st0">
</g>
<g id="Layer_1">
	<g>
		<path class="st18" d="M360.06,163.19c10.97-12.43,6.14-26.87,2.68-69.97c-2.9-36.16-7.97-53.92-11.27-57.88
			c-5.33-6.41-17.57-17.11-89.29-18.79c-33.88-0.79-61.64,0.88-80.19,2.47c-35.21,0.4-75.36,1.31-120.2,3.09
			c-15.62,0.62-31.22,1.46-41.47,12.66c-9.79,10.7-8.16,23.69-6.34,61.78c3.41,71.33,0.36,81.54,10.98,89.38
			c10.13,7.48,26.32,7.27,58.71,6.87c5.49-0.07,7.74-0.25,20.58-1c0,0,66.75-3.87,111.94-4.51c10.51-0.15,17.8-0.09,17.8-0.09
			c8.56,0.06,11.38,0.28,27.18-0.01c37.69-0.69,60.11-4.36,84.18-14.34C350.6,170.66,355.63,168.22,360.06,163.19z"/>
	</g>
	<path class="st19" d="M84.77,71.44c0,0-28.55-3.16-25.31,0.21c3.24,3.37,20.79,18.78,29.21,16.04
		C97.08,84.95,84.77,71.44,84.77,71.44z"/>
	<path class="st20" d="M55.67,75.66c0,0-14.36-19.28-18.9-17.91c-4.54,1.37-3.1,11.84-2.23,13.26
		C35.4,72.43,56.22,77.56,55.67,75.66z"/>
	<path class="st21" d="M44.24,59.19c0,0,21.01,8.92,22.86,12.4c1.85,3.48-4.64,6.39-6.74,4.88C58.25,74.96,44.24,59.19,44.24,59.19z
		"/>
	<path class="st22" d="M59.65,75.22c-5.01-6.41-13.61-16.59-18.73-17.31c-0.41-0.06-3.24-0.45-3.35-0.06
		c-0.03,0.09,0.58,0.36,1.63,1.03c0,0,0.45,0.28,1.44,0.99c1.87,1.34,4.15,4.23,4.15,4.23c2.71,3.44,2.29,2.51,4.58,5.48
		c1.53,1.98,2.96,3.99,5.72,5.43c0.09,0.05,0.17,0.09,0.23,0.12C56.76,75.15,58.21,75.18,59.65,75.22z"/>
	<path class="st23" d="M63.07,75.41c0,0,3.49-1.66,0.5-3.35s-6.36-2.97-4.43-0.37S63.07,75.41,63.07,75.41z"/>
	<path class="st24" d="M312.83,81.96c0,0,1.75-13.81-3.34-18.63c-5.09-4.82-12.86-7.03-18.63-5.83c-5.77,1.21-11.82,2.13-9.03,2.66
		C284.61,60.7,308.32,87.39,312.83,81.96z"/>
	<path class="st25" d="M254.26,61.73c0,0-19.41,3.8-19.26,8.6c0.01,0.34,0.14,0.61,0.32,1c1.36,2.97,5.72,4.78,9.14,3.96
		c0.64-0.15,1.23-0.48,1.23-0.48c1.23-0.6,1.82-1.3,2.63-1.97c1.01-0.84,1.13-0.62,2.87-1.71c1.26-0.79,2.98-1.9,4.46-3.78
		c0.97-1.23,1.6-2.03,1.44-3.03C256.8,62.55,254.26,61.73,254.26,61.73z"/>
	<path class="st19" d="M73.37,75.22c0,0-28.55-3.16-25.31,0.21c3.24,3.37,20.79,18.78,29.21,16.04S73.37,75.22,73.37,75.22z"/>
	<path class="st21" d="M60.93,98.27c0,0,9.13-6.84,8.68-9.16c-0.45-2.32-7.22-8.73-13.28-10.7s-6.15-5.07-9.63-4.59
		c-3.48,0.48-13.68-3.9-10.9-1.26C38.59,75.21,62.62,88.92,60.93,98.27z"/>
	<path class="st22" d="M61.26,97.87c-0.31,0.32-2.47,2.47-5.68,2.22c-2.12-0.17-3.54-1.29-4.04-1.73
		c-16.67-14.28-34.54-30.27-33-32.29c0.11-0.14,0.27-0.17,0.37-0.18c5.14-0.71,13.02,2.07,25.46,11.95
		C56.79,87.72,62.82,94.1,61.26,97.87z"/>
	<path class="st71" d="M228.14,77.99c0,0,11.02,3.73,12.62,20.35s-1.93,24.48-4.77,25.71c-2.84,1.23-18.09,11.41-34.87-3.37
		s-44.97-37.02-59.54-34.04C127,89.61,71.87,101.85,66.4,100.4s8.3-10.42,6.9-19.92c-1.41-9.5-6.4-13.68,22.39-11.58
		s42.02-8.31,63.96-4.88S228.14,77.99,228.14,77.99z"/>
	<path class="st72" d="M303.49,89.26c1.64,0.73,3.96-0.62,4.12-0.72c2.13-1.28,3.78-3.92,3.69-5.94c-0.09-1.96-1.73-1.63-5.46-5.75
		c-0.81-0.89-0.99-1.2-1.36-1.09C302.55,76.34,299.73,87.59,303.49,89.26z"/>
	<path class="st25" d="M296.48,66.85c0,0,0.7-0.61,0.47-1.3c-0.23-0.69,1.33-2.02,0.51-3.26c-0.82-1.24-2-1.84-2.92-1.18
		s-1.42,0.7-1.99,0.81S290.95,65.82,296.48,66.85z"/>
	<path class="st73" d="M237.35,122.6c3.53-1.1,18.55-5.8,22.13-6.92c26.66-8.35,24.72-8.01,25.92-8.26
		c11.75-2.5,18.64-2.12,21.06-7.01c0.32-0.64,0.34-3.38,0.39-8.87c0.08-8.28-0.37-11.05-1.45-13.83c-0.28-0.71-1.03-2.42-2.3-4.43
		c-0.86-1.37-0.24-0.04-6.61-6.8c-7.64-8.11-9.16-10.68-12.93-11.72c-0.97-0.27-3.93,0.22-9.83,1.2
		c-15.88,2.63-20.58,5.32-21.97,5.45c-0.05,0.01-0.21,0.02-0.34,0.13c-0.41,0.33-0.14,1.16,0.14,2.59c0.23,1.19,0.4,2.08,0.42,3.22
		c0,0.25,0,0.23,0,1.63c0,0.93,0,1.7,0,2.2c0.72-0.12,1.8-0.32,3.09-0.66c1.88-0.49,2.45-0.85,2.5-0.76
		c0.12,0.24-4.37,2.47-5.62,2.14c-0.06-0.02-0.3-0.09-0.62-0.06c-0.6,0.05-1.02,0.42-1.12,0.5c-1.22,1-7.7,1.8-14.18,3.72
		c-0.01,0-0.03,0.01-0.05,0.01c-3.14,0.08-3.9,0.37-4.2,0.59c0,0-0.12,0.09-0.23,0.19C230.22,78.05,234.11,103.13,237.35,122.6z"/>
	<g>
		<path class="st72" d="M250.94,72.39c0.63,4.35,0.57,8.81-0.18,13.14"/>
	</g>
	<g>
		<path class="st72" d="M251.59,72.45c0.85,2.54,1.31,5.2,1.38,7.87"/>
	</g>
	<path class="st20" d="M59.55,99.26c0.63-1.48-1.07-4.07-8.47-11.24c-6.44-6.25-11.27-10.88-19.17-16.07
		c-4.5-2.96-11.8-7.69-13.93-5.77c-0.27,0.24-0.38,0.52-0.42,0.64c-1.07,2.85,5.85,8.58,13.96,15.91
		c13.85,12.52,18.24,18.05,24.51,17.91C56.91,100.6,59.01,100.53,59.55,99.26z"/>
</g>
</svg>
