<?xml version="1.0" encoding="utf-8"?>
<!-- Generator: Adobe Illustrator 23.0.1, SVG Export Plug-In . SVG Version: 6.00 Build 0)  -->
<svg version="1.1" xmlns="http://www.w3.org/2000/svg" xmlns:xlink="http://www.w3.org/1999/xlink" x="0px" y="0px"
	 viewBox="0 0 362.52 367.01" style="enable-background:new 0 0 362.52 367.01;" xml:space="preserve">
<style type="text/css">
	.st0{display:none;}
	.st1{display:inline;fill:#757370;}
	.st2{display:inline;fill:#8F8C88;}
	.st3{display:inline;fill:#E0AE7F;}
	.st4{display:inline;fill:#DB96E9;}
	.st5{display:inline;fill:#D9A280;}
	.st6{display:inline;}
	.st7{display:inline;fill:#753225;}
	.st8{display:inline;fill:#5CA9E6;}
	.st9{fill:#EDE6DD;}
	.st10{fill:#C8BEB4;stroke:#727172;stroke-width:0.2179;stroke-miterlimit:10;}
	.st11{fill:#C8BEB4;stroke:#727172;stroke-width:0.1878;stroke-miterlimit:10;}
	.st12{opacity:0.54;fill:#342826;}
	.st13{fill:#E3DFE4;stroke:#474747;stroke-width:0.1503;stroke-miterlimit:10;}
	.st14{fill:#A0968C;stroke:#C8BEB4;stroke-width:0.8715;stroke-miterlimit:10;}
	.st15{fill:#372A29;}
	.st16{opacity:0.54;fill:#372A29;}
	.st17{fill:none;stroke:#372A29;stroke-width:0.3391;stroke-miterlimit:10;}
	.st18{fill:#253530;}
	.st19{fill:#8E8E8E;stroke:#363A39;stroke-width:0.1683;stroke-miterlimit:10;}
	.st20{fill:#191615;}
	.st21{fill:#CE3D25;}
	.st22{fill:#FFFFFF;}
	.st23{fill:#A82F1E;}
	.st24{fill:#222927;}
	.st25{fill:#D9A280;}
	.st26{fill:#B57E4F;}
	.st27{fill:#96C7F7;}
	.st28{fill:#974A37;}
	.st29{opacity:0.43;fill:#EFA1A1;}
	.st30{fill:#ED5F5F;}
	.st31{opacity:0.83;fill:#F4F4F4;}
	.st32{fill:#ED5F5F;stroke:#EFA1A1;stroke-width:2;stroke-miterlimit:10;}
	.st33{fill:#805035;}
	.st34{fill:#F3E6D6;}
	.st35{fill:#E8B486;}
	.st36{fill:none;stroke:#ED5F5F;stroke-width:3;stroke-miterlimit:10;}
	.st37{fill:#E06F5C;}
	.st38{fill:#F2E7E6;}
	.st39{fill:#A5A4A2;}
	.st40{fill:#E3C858;stroke:#DDBB34;stroke-width:2.1451;stroke-miterlimit:10;}
	.st41{fill:#E3C858;stroke:#DDBB34;stroke-width:2.1949;stroke-miterlimit:10;}
	.st42{fill:#E3C858;stroke:#DDBB34;stroke-width:3.6433;stroke-miterlimit:10;}
	.st43{fill:#0E110F;}
	.st44{fill:#773F30;}
	.st45{fill:#CF8775;}
	.st46{fill:#A980C2;}
	.st47{fill:#991B38;}
	.st48{fill:#F5F6F6;}
	.st49{fill:#C12538;}
	.st50{fill:none;stroke:#040506;stroke-width:0.6777;stroke-miterlimit:10;}
	.st51{fill:#A45E40;}
	.st52{fill:#010101;}
	.st53{fill:#EC9B80;}
	.st54{fill:#181927;}
	.st55{fill:#567BD1;stroke:#A2C0ED;stroke-width:3.8226;stroke-miterlimit:10;}
	.st56{fill:#757370;}
	.st57{fill:#8F8C88;}
	.st58{fill:#E0AE7F;}
	.st59{fill:#B562CA;}
	.st60{fill:#111010;}
	.st61{fill:#669C04;}
	.st62{fill:#567BD1;}
	.st63{fill:#F0F4F7;}
	.st64{fill:#969696;}
	.st65{fill:#020202;}
	.st66{fill:#636363;}
	.st67{fill:#181818;stroke:#2C2D2B;stroke-width:0.4942;stroke-miterlimit:10;}
	.st68{fill:#F9F9F9;}
	.st69{fill:#5C5E58;}
	.st70{fill:#181818;stroke:#5C5E58;stroke-width:0.5;stroke-miterlimit:10;}
	.st71{fill:#2954AA;}
	.st72{fill:#474747;}
	.st73{fill:#636363;stroke:#474747;stroke-width:0.1683;stroke-miterlimit:10;}
	.st74{fill:#E3DFE4;}
	.st75{fill:#C69479;}
	.st76{fill:#633127;}
	.st77{fill:#181818;stroke:#2C2D2B;stroke-width:0.2933;stroke-miterlimit:10;}
	.st78{fill:#AF826E;}
	.st79{fill:#181818;stroke:#5C5E58;stroke-width:0.2933;stroke-miterlimit:10;}
	.st80{fill:#72372B;}
	.st81{fill:#1A468E;}
	.st82{fill:#1A468E;stroke:#143359;stroke-width:0.25;stroke-miterlimit:10;}
	.st83{fill:#143359;}
	.st84{fill:#246319;}
	.st85{fill:#F2581C;}
	.st86{fill:#0A0A0A;}
	.st87{fill:#80CEC7;}
	.st88{fill:#C0213B;}
	.st89{fill:#FFE7EC;}
	.st90{opacity:0.37;fill:#B2B2B2;}
	.st91{fill:#848484;}
	.st92{fill:#A3A3A3;}
	.st93{fill:#148C83;}
	.st94{fill:#323127;}
	.st95{fill:#11756B;}
	.st96{fill:#C8BEB4;stroke:#727172;stroke-width:0.2643;stroke-miterlimit:10;}
	.st97{fill:#A0968C;stroke:#C8BEB4;stroke-width:1.057;stroke-miterlimit:10;}
	.st98{fill:#E3DFE4;stroke:#474747;stroke-width:0.1823;stroke-miterlimit:10;}
	.st99{fill:#C8BEB4;}
	.st100{fill:#BBBBBB;}
	.st101{fill:#D2D2D2;stroke:#9C9C9C;stroke-width:0.25;stroke-miterlimit:10;}
	.st102{fill:#7D7D7D;}
	.st103{fill:#E3DFE4;stroke:#474747;stroke-width:0.1843;stroke-miterlimit:10;}
	.st104{fill:#7D7D7D;stroke:#9C9C9C;stroke-miterlimit:10;}
	.st105{fill:#DFDFDF;}
	.st106{fill:#9C9C9C;}
	.st107{fill:#EDDA2B;}
	.st108{fill:#E8CD0A;}
</style>
<g id="Layer_2" class="st0">
</g>
<g id="Layer_1">
	<path class="st18" d="M14.17,334.53c0,0,282.31,8.95,293.75-9.8s64.6-277.67,12.33-275.93c-52.28,1.74-193.29-18.04-209.53,6.99
		S-20.11,333.64,14.17,334.53z"/>
	<path class="st20" d="M318.21,141.12c0,0,2.93,5.77,6.47,2.22c3.53-3.54,16.21-27.25,17.24-30.71c1.03-3.46-1.16-7.32-3-7.92
		c-1.85-0.6,1.45,2.26-0.04,5.51c-1.49,3.25-11.41,20.7-12.49,22.33C325.28,134.19,320.29,141.8,318.21,141.12z"/>
	<path class="st22" d="M320.21,112.22c0,0,3.49,1.94,5.7-0.19c2.21-2.13,8.89-7.36,10.94-7.33c2.06,0.02,5.29,1.31,1.91,9.41
		s-16.69,33.43-22.88,25.87C309.7,132.43,307.6,124.28,320.21,112.22z"/>
	<path class="st22" d="M323.3,113.85c0,0,4.28,8.04,9.29,7.94L330.2,126c0,0-7.54-1.87-9.4-5.88
		C318.95,116.11,317.58,110.07,323.3,113.85z"/>
	<path class="st22" d="M281.7,140.47c16.51-1.02,21.21,0.01,21.51,1.49c1.03,5.12-49.38,21.19-52.95,14.35
		c-0.69-1.31,0.01-4.14,0.58-5.64c1.22-3.22,3.63-5.02,4.78-5.88C260.1,141.44,269.69,139.53,281.7,140.47z"/>
	<path class="st20" d="M251.56,153.09c2.07-2.44,5.29-5.37,9.69-6.08c4.44-0.72,5.89,1.4,10.44,1.69c7.88,0.51,9.75-6.14,19.09-8.25
		c6.28-1.42,15.62-0.79,17.25,3.54c2.21,5.89-2.84,20.67-15.94,20.6c-13.1-0.07-21.19-0.78-25.16,0.85c-5.3,2.18-8.9,1.78-11.34,0.5
		c-3.49-1.83-4.72-5.33-4.78-5.51C249.66,156.75,251.25,153.67,251.56,153.09z"/>
	<path class="st91" d="M279.47,140.13c0,0-3.01-1.89-4.27-5.55s-2.28-8.47-5.52-11.77c-3.24-3.31-5.87-7.42-6.4-8.04
		c-0.53-0.62-1.68-8.26-6.93-8.22c-5.25,0.05-22.83,21.62-18.28,27.36c4.54,5.74,6.76,7.07,7.46,8.71c0.69,1.64,3.35,4.49,3.75,4.99
		c0.39,0.48,0.87,3.96,1.24,3.94c0.01,0,0.03-0.01,0.04-0.01c0.43-0.25,1.12-1.38,1.3-1.68c3.75-4.03,7.48-5.93,9.75-6.85
		c2.58-1.05,4.82-1.34,7.35-1.91C271.47,140.52,275.08,139.96,279.47,140.13z"/>
	<path class="st25" d="M198.74,76.59c0,0,0.25,21.19,0.92,27.51c0.67,6.32,4.52,10.78,0.18,11.36c-4.34,0.58-11.67-0.05-11.7-0.92
		C188.11,113.67,182.33,70.37,198.74,76.59z"/>
	<path class="st25" d="M115.13,75.84c0,0,1.41,28.47,1.23,37c-0.17,8.53-3.67,14.82,0.71,15.26c4.38,0.44,11.63-0.98,11.6-2.15
		S131.01,66.2,115.13,75.84z"/>
	<path class="st92" d="M183.3,136.23c0,0,7.97-17.73,10.91-20.35s4.9-4.19,7.87-5.8c2.97-1.61,4.88-4.7,9.81-7.88
		s26.2-14.99,28.65-17.08s3.84-5.67,9.39-5.35c5.55,0.32,12.19,3.11,13.76,4.58c1.56,1.46,41.19,17.55,43.91,20.6
		c2.72,3.04,6.08,5.3,8.95,5.77c2.86,0.47,6.03,1.51,4.7,4.4c-1.33,2.89-6.34,23.28-7.79,22.47c-1.45-0.81-7.58-5.44-10.71-5.34
		c-3.13,0.1-9-5.11-12.16-6.14c-3.17-1.03-11.57-5.31-17.08-8.54c-5.52-3.23-7.58-5.16-10.71-5.34c-3.14-0.18-5.81-3.38-7.78-2.67
		s-5.72,0.27-5.77,2.55c-0.05,2.28-3.56,8.09-6.01,11.31c-2.46,3.21-10.22,9.45-12.4,12.37s-8.23,9.39-11.5,13.77
		c-3.27,4.38-3.8,5.49-6.9,6.62c-3.09,1.12-24.68,2.7-31.53-14.73L183.3,136.23z"/>
	<path class="st93" d="M201.11,114.75c0,0-1.88-1.76-4.41-2.14c-2.52-0.37-3.53-3.08-4.89-2.8c-1.36,0.27,0.37-2.52-1.22-2.47
		c-1.6,0.05,0.62-1.85-1.45-2.46c-2.07-0.62-3.79-5.35-3.79-5.35s4.17,3.28,6.43,2.52c2.26-0.76,5.93-0.2,7.89-3
		c1.96-2.8,6.89-12.56,1.41-19.22c-5.47-6.67-14.51-17.55-14.51-17.55l-11.2-0.54c0,0-5.18-4.85-3.65-6.73
		c1.54-1.88,2.75-6.48-2.16-3.12c-4.91,3.36-10.94,7.21-17.12,6.96c-6.17-0.25-19.38-6.2-20.13-8.23s-2.17-3.35-5.55-2.1
		c-3.38,1.25-16.25,19.12-14.55,22.22c1.7,3.09,10.58,16.04,11.48,22.63c0.9,6.59,11.18,34.1,13.03,34.72
		c1.85,0.62,4.07,5.57,6.35,5.72s2.98,0.37,5.99,1.63c3.01,1.26,24.34,4.2,28.71,5.2C182.15,141.63,194.2,116.71,201.11,114.75z"/>
	<g>
		<path class="st74" d="M188.56,350.83c16.91,1.01,32.54-8.03,48.61-13.41c34.53-11.56,75.41-7.36,103.97-29.96
			c8.16-6.46,15.2-16.74,12.19-26.71c-1.66-5.48-6.03-9.65-10.38-13.36c-23.49-20.02-51.68-34.48-81.65-41.88
			c-16.56-4.08-33.8-6.1-49.36-13.09c4.03-10.34,8.06-20.67,12.09-31.01c1.39-3.56,2.79-7.19,3.15-10.99
			c1.41-14.94-13.39-26.6-27.85-30.64c-14.45-4.04-30.19-3.73-43.69-10.29c-7.72-3.75-14.28-9.56-21.91-13.5
			c-7.63-3.93-17.28-5.75-24.57-1.22c-9.41,5.85-10.51,18.87-10.59,29.96c-0.13,18.34,0.24,38.21,11.45,52.73
			c3.65,4.72,8.29,8.62,11.73,13.49c3.44,4.87,5.6,11.27,3.41,16.81c-0.87,2.2-2.4,4.29-2.22,6.64c0.2,2.66,2.49,4.61,4.58,6.26
			c20.46,16.17,40.67,37.22,41.56,63.29c0.27,7.99-1.34,15.93-1.32,23.93s2.02,16.55,8.04,21.82c6.01,5.26,16.79,5.33,21.04-1.43"/>
	</g>
	<path class="st25" d="M169.82,49.51c0,0-4.03-1.06-2.37-5.12s0.58-6.46,1.99-6.08C170.86,38.69,175.37,42.14,169.82,49.51z"/>
	<g>
		<path class="st94" d="M171.39,37.13c0.12,0,0.51-4.83-0.16-10.42c-0.32-2.64-0.79-4.85-1.22-6.49c-1.04-2.07-3.25-5.74-7.43-8.76
			c-2.64-1.9-5.2-2.91-7.06-3.47c0.11,0.22,0.27,0.47,0.48,0.73c0.12,0.15,0.24,0.27,0.36,0.38c-1.22-0.15-2.7-0.23-4.36-0.14
			c-1.82,0.1-3.39,0.39-4.66,0.71c0.36-0.22,0.72-0.45,1.07-0.67c-3.7,1.86-7.11,4.31-10.05,7.23c0.39-0.24,0.78-0.49,1.17-0.73
			c0.01,0,0.01-0.01,0.01,0c0.04,0.05-4.81,4.53-7.49,8.79c-1.45,2.31-3.11,5.9-3.62,11.26c0.13,2.91,0.27,5.82,0.4,8.73
			c0.3-0.87,0.6-1.75,0.9-2.62c0.18,3.79,1.11,7.55,2.7,11c0.39-0.36,0.6-0.9,0.58-1.43c2.23,3.2,4.6,5.19,6.24,6.36
			c3.85,2.74,7.94,4.01,7.99,3.91c0.02-0.03-0.42-0.25-0.38-0.42c0.05-0.2,0.7-0.19,0.9-0.19c0.75,0,6.24,0.04,9.77-0.74
			c0.46-0.1,1.23-0.29,2.12-0.62c3.59-1.34,5.86-3.75,7.13-5.41c-0.3,0.19-0.64,0.37-0.77,0.26c-0.21-0.19,0.34-1.06,0.85-2.14
			c0,0,0.2-0.42,1.16-3.11c1.46-4.12,2.7-13.22,3.17-13.17C171.36,35.95,171.34,37.13,171.39,37.13z"/>
	</g>
	<g>
		<path class="st95" d="M177.68,89.23c0,0-9.73-8.59-16.19-9.8c-6.46-1.21-16.48-2.48-20.5-5.38"/>
	</g>
	<path class="st95" d="M185.59,106.79c0,0-8.25,4.38-21.29,3.56c-13.04-0.81-14.47-0.83-14.47-0.83"/>
	<path class="st95" d="M169.77,113.92c0,0,14.55-1.62,17.69-4.1"/>
	<g>
		<path class="st95" d="M149.76,85.97c0,0,8.69,3.91,15,6.19c6.31,2.28,12.47-0.24,16.11,2.14"/>
	</g>
	<path class="st90" d="M160,172c2.01-9.6,2.88-19.79-0.38-29.04c-1.15-3.25-2.78-6.31-4.41-9.35c-0.87-1.62-5-12.01-8.66-8.46
		c-1.39,1.35,5.71,10.88,6.8,13.12C158.39,148.7,160.78,160.43,160,172z"/>
	<path class="st90" d="M152.87,197.16c3.35,6.83,7.97,12.6,13.37,16.69c0.28,0.21,0.59,0.43,0.91,0.36
		c0.43-0.09,0.69-0.64,0.84-1.17c0.34-1.16,0.38-2.46,0.11-3.66c-0.6-2.73-7.25-7.89-9-10.07c-2.91-3.63-5.4-8.14-8.44-11.47
		C149.65,190.48,151.69,194.74,152.87,197.16z"/>
</g>
</svg>
