<?xml version="1.0" encoding="utf-8"?>
<!-- Generator: Adobe Illustrator 23.0.1, SVG Export Plug-In . SVG Version: 6.00 Build 0)  -->
<svg version="1.1" xmlns="http://www.w3.org/2000/svg" xmlns:xlink="http://www.w3.org/1999/xlink" x="0px" y="0px"
	 viewBox="0 0 360.76 238.73" style="enable-background:new 0 0 360.76 238.73;" xml:space="preserve">
<style type="text/css">
	.st0{display:none;}
	.st1{display:inline;fill:#757370;}
	.st2{display:inline;fill:#8F8C88;}
	.st3{display:inline;fill:#E0AE7F;}
	.st4{display:inline;fill:#DB96E9;}
	.st5{display:inline;fill:#D9A280;}
	.st6{display:inline;}
	.st7{display:inline;fill:#753225;}
	.st8{display:inline;fill:#5CA9E6;}
	.st9{fill:#EDE6DD;}
	.st10{fill:#C8BEB4;stroke:#727172;stroke-width:0.2179;stroke-miterlimit:10;}
	.st11{fill:#C8BEB4;stroke:#727172;stroke-width:0.1878;stroke-miterlimit:10;}
	.st12{opacity:0.54;fill:#342826;}
	.st13{fill:#E3DFE4;stroke:#474747;stroke-width:0.1503;stroke-miterlimit:10;}
	.st14{fill:#A0968C;stroke:#C8BEB4;stroke-width:0.8715;stroke-miterlimit:10;}
	.st15{fill:#372A29;}
	.st16{opacity:0.54;fill:#372A29;}
	.st17{fill:none;stroke:#372A29;stroke-width:0.3391;stroke-miterlimit:10;}
	.st18{fill:#253530;}
	.st19{fill:#8E8E8E;stroke:#363A39;stroke-width:0.1683;stroke-miterlimit:10;}
	.st20{fill:#191615;}
	.st21{fill:#CE3D25;}
	.st22{fill:#FFFFFF;}
	.st23{fill:#A82F1E;}
	.st24{fill:#222927;}
	.st25{fill:#D9A280;}
	.st26{fill:#B57E4F;}
	.st27{fill:#96C7F7;}
	.st28{fill:#974A37;}
	.st29{opacity:0.43;fill:#EFA1A1;}
	.st30{fill:#ED5F5F;}
	.st31{opacity:0.83;fill:#F4F4F4;}
	.st32{fill:#ED5F5F;stroke:#EFA1A1;stroke-width:2;stroke-miterlimit:10;}
	.st33{fill:#805035;}
	.st34{fill:#F3E6D6;}
	.st35{fill:#E8B486;}
	.st36{fill:none;stroke:#ED5F5F;stroke-width:3;stroke-miterlimit:10;}
	.st37{fill:#E06F5C;}
	.st38{fill:#F2E7E6;}
	.st39{fill:#A5A4A2;}
	.st40{fill:#E3C858;stroke:#DDBB34;stroke-width:2.1451;stroke-miterlimit:10;}
	.st41{fill:#E3C858;stroke:#DDBB34;stroke-width:2.1949;stroke-miterlimit:10;}
	.st42{fill:#E3C858;stroke:#DDBB34;stroke-width:3.6433;stroke-miterlimit:10;}
	.st43{fill:#0E110F;}
	.st44{fill:#773F30;}
	.st45{fill:#CF8775;}
	.st46{fill:#A980C2;}
	.st47{fill:#991B38;}
	.st48{fill:#F5F6F6;}
	.st49{fill:#C12538;}
	.st50{fill:none;stroke:#040506;stroke-width:0.6777;stroke-miterlimit:10;}
	.st51{fill:#A45E40;}
	.st52{fill:#010101;}
	.st53{fill:#EC9B80;}
	.st54{fill:#181927;}
	.st55{fill:#567BD1;stroke:#A2C0ED;stroke-width:3.8226;stroke-miterlimit:10;}
	.st56{fill:#757370;}
	.st57{fill:#8F8C88;}
	.st58{fill:#E0AE7F;}
	.st59{fill:#B562CA;}
	.st60{fill:#111010;}
	.st61{fill:#669C04;}
	.st62{fill:#567BD1;}
	.st63{fill:#F0F4F7;}
	.st64{fill:#969696;}
	.st65{fill:#020202;}
	.st66{fill:#636363;}
	.st67{fill:#181818;stroke:#2C2D2B;stroke-width:0.4942;stroke-miterlimit:10;}
	.st68{fill:#F9F9F9;}
	.st69{fill:#5C5E58;}
	.st70{fill:#181818;stroke:#5C5E58;stroke-width:0.5;stroke-miterlimit:10;}
	.st71{fill:#2954AA;}
	.st72{fill:#474747;}
	.st73{fill:#636363;stroke:#474747;stroke-width:0.1683;stroke-miterlimit:10;}
	.st74{fill:#E3DFE4;}
	.st75{fill:#C69479;}
	.st76{fill:#633127;}
	.st77{fill:#181818;stroke:#2C2D2B;stroke-width:0.2933;stroke-miterlimit:10;}
	.st78{fill:#AF826E;}
	.st79{fill:#181818;stroke:#5C5E58;stroke-width:0.2933;stroke-miterlimit:10;}
	.st80{fill:#72372B;}
	.st81{fill:#1A468E;}
	.st82{fill:#1A468E;stroke:#143359;stroke-width:0.25;stroke-miterlimit:10;}
	.st83{fill:#143359;}
	.st84{fill:#246319;}
	.st85{fill:#F2581C;}
	.st86{fill:#0A0A0A;}
	.st87{fill:#80CEC7;}
	.st88{fill:#C0213B;}
	.st89{fill:#FFE7EC;}
	.st90{opacity:0.37;fill:#B2B2B2;}
	.st91{fill:#848484;}
	.st92{fill:#A3A3A3;}
	.st93{fill:#148C83;}
	.st94{fill:#323127;}
	.st95{fill:#11756B;}
	.st96{fill:#BBBBBB;}
	.st97{fill:#D2D2D2;stroke:#9C9C9C;stroke-width:0.25;stroke-miterlimit:10;}
	.st98{fill:#7D7D7D;}
	.st99{fill:#E3DFE4;stroke:#474747;stroke-width:0.1843;stroke-miterlimit:10;}
	.st100{fill:#7D7D7D;stroke:#9C9C9C;stroke-miterlimit:10;}
	.st101{fill:#DFDFDF;}
	.st102{fill:#9C9C9C;}
	.st103{fill:#EDDA2B;}
	.st104{fill:#E8CD0A;}
	.st105{fill:#E0D2C3;}
	.st106{fill:#C8BEB4;stroke:#727172;stroke-width:0.2643;stroke-miterlimit:10;}
	.st107{fill:#A0968C;stroke:#C8BEB4;stroke-width:1.057;stroke-miterlimit:10;}
	.st108{fill:#E3DFE4;stroke:#474747;stroke-width:0.1823;stroke-miterlimit:10;}
	.st109{fill:#C8BEB4;}
</style>
<g id="Layer_2" class="st0">
	<rect x="40.12" y="-373.27" class="st1" width="15.08" height="403.16"/>
	<rect x="11.77" y="-373.27" class="st1" width="15.08" height="403.16"/>
	<rect x="155.89" y="-373.27" class="st1" width="15.08" height="403.16"/>
	<rect x="127.53" y="-373.27" class="st1" width="15.08" height="403.16"/>
	<rect x="98.36" y="-373.27" class="st1" width="15.08" height="403.16"/>
	<rect x="70.01" y="-373.27" class="st1" width="15.08" height="403.16"/>
	<rect x="272.65" y="-373.27" class="st1" width="15.08" height="403.16"/>
	<rect x="244.3" y="-373.27" class="st1" width="15.08" height="403.16"/>
	<rect x="215.12" y="-373.27" class="st1" width="15.08" height="403.16"/>
	<rect x="186.77" y="-373.27" class="st1" width="15.08" height="403.16"/>
	<rect x="358.03" y="-373.27" class="st1" width="15.08" height="403.16"/>
	<rect x="329.67" y="-373.27" class="st1" width="15.08" height="403.16"/>
	<rect x="300.5" y="-373.27" class="st1" width="15.08" height="403.16"/>
	<rect x="44.85" y="-373.27" class="st2" width="15.08" height="403.16"/>
	<rect x="16.49" y="-373.27" class="st2" width="15.08" height="403.16"/>
	<rect x="-12.68" y="-373.27" class="st2" width="15.08" height="403.16"/>
	<path class="st5" d="M25.69,124.71l0.91,31.79c0,0-5.15-0.4-5.59,1.25s-9.64-29.12-9.34-33.04
		C11.96,120.79,25.55,119.88,25.69,124.71z"/>
	<path class="st5" d="M43.79,125.92l-4.53,47.97c0,0-5.88,3.77-5.88-1.36c0-5.13-2.51-49.18-2.51-49.18S42.13,104.95,43.79,125.92z"
		/>
	<path class="st5" d="M0.56,33.92c0,0-4.21,8.42-7.02,7.62s-10.64-4.32-10.48-5.62s0.46-4.6,0-5.19c-0.46-0.59-0.77,2.22-1.51,2.22
		c-0.74,0-5.26-4-5.84-2.87c-0.58,1.13-3.53,3.6-1.4,6.06s14.93,14.98,18.26,16.27s7.14-1.3,8.99-4.36
		C3.43,45.01,0.56,33.92,0.56,33.92z"/>
	<path class="st5" d="M42.15,32.34c0,0,2.46-12.2,6.21-13.17s4.59,3.21,4.59,3.21s9.95,27.2,10.02,35.53s0.85,15.03,1.6,16.41
		c0.75,1.38,3.24,4.66,2.32,8.54c-0.92,3.88-4.1,5.25-4.03,1.12s-1.29-5-1.29-5s-1.16,3.12-1.84,1.53
		c-0.68-1.59,0.14-2.04,0.05-4.84s-5.55-25.66-6.81-27.65S42.15,32.34,42.15,32.34z"/>
	<path class="st8" d="M45.92,19.15c0,0,1.55-1.11,3.54,0.66c1.99,1.77,4.43,15.72,3.32,18.38s-5.23,16.38-3.5,22.36
		c1.73,5.98,5.49,24.52,5.49,31.41s1.77,21.72,5.31,23.94c3.54,2.21,1.99,3.99-1.55,5.31c-3.54,1.33-10.85,5.76-22.14,3.1
		c-11.29-2.66-5.98,1.99-14.39,1.77c-3.09-0.08-7.01-0.55-10.71-1.31c-6.37-1.31-12.07-3.48-11.65-6
		c0.66-3.99,6.64-45.83,12.62-56.68S45.92,19.15,45.92,19.15z"/>
	<path class="st6" d="M24.3,170.22c0,0,2.85-0.26,2.73-6.61c-0.12-6.35,1.47-7.1-0.75-8.26c-2.23-1.16-6.12-2.32-6.17,2.08
		c-0.05,4.4-1.95,10.17-0.48,11.4C21.1,170.06,24.3,170.22,24.3,170.22z"/>
	<path class="st6" d="M36.01,183.23c0,0,2.87-0.07,3.15-6.42c0.29-6.35,1.93-6.99-0.22-8.29c-2.15-1.3-5.96-2.71-6.29,1.67
		s-2.61,10.03-1.21,11.35S36.01,183.23,36.01,183.23z"/>
	<path class="st7" d="M37.73,37.97c0,0,0.66-3.54,6.2-10.85s7.97-33.21,4.43-40.52S38.4-27.41,28.88-25.83S11.38-20.26,10.06-9.19
		s2.66,20.37,0,23.91S2.31,24.25,1.2,30.89s4.43,18.73-1.11,21.88c-5.54,3.14-11.15,1.81-12.22,2.04
		c-1.07,0.22,2.03,10.41,11.77,11.96s25.02,1.11,32.1-9.08S36.63,45.5,37.73,37.97z"/>
	<rect x="160.61" y="-373.27" class="st2" width="15.08" height="403.16"/>
	<rect x="132.26" y="-373.27" class="st2" width="15.08" height="403.16"/>
	<rect x="103.08" y="-373.27" class="st2" width="15.08" height="403.16"/>
	<rect x="74.73" y="-373.27" class="st2" width="15.08" height="403.16"/>
	<rect x="277.38" y="-373.27" class="st2" width="15.08" height="403.16"/>
	<rect x="249.02" y="-373.27" class="st2" width="15.08" height="403.16"/>
	<rect x="219.85" y="-373.27" class="st2" width="15.08" height="403.16"/>
	<rect x="191.49" y="-373.27" class="st2" width="15.08" height="403.16"/>
	<rect x="334.4" y="-373.27" class="st2" width="15.08" height="403.16"/>
	<rect x="305.22" y="-373.27" class="st2" width="15.08" height="403.16"/>
</g>
<g id="Layer_1">
	<g>
		<polygon class="st105" points="250.75,11.09 72.92,71.36 72.92,174.69 321.96,111.34 		"/>
		<rect x="72.92" y="165.31" class="st106" width="77.69" height="64.73"/>
		<polygon class="st106" points="9,118.11 9,178.23 72.92,230.05 72.92,165.31 		"/>
		<polygon class="st106" points="150.61,230.05 150.61,165.31 257.7,119.09 257.7,190.15 		"/>
		<path class="st106" d="M349.44,79.49l-91.74,39.6v71.06c30.58-16.79,61.16-33.58,91.74-50.37
			C349.44,119.68,349.44,99.58,349.44,79.49z"/>
		
			<rect x="95.66" y="178.23" transform="matrix(-1 -4.489798e-11 4.489798e-11 -1 228.9672 382.5726)" class="st107" width="37.64" height="26.11"/>
		<path class="st107" d="M292.4,150.66c10.09-4.58,20.17-9.15,30.26-13.73c-0.23-8.53-0.47-17.06-0.7-25.59
			c-10.37,4.01-20.75,8.01-31.12,12.02C291.35,132.47,291.88,141.57,292.4,150.66z"/>
		<path class="st107" d="M22.14,187.83c0.52-13.96,1.04-27.92,1.56-41.89l13.3,10.32l-2.06,41.94
			C30.66,194.74,26.4,191.28,22.14,187.83z"/>
		<path class="st107" d="M34.17,197.59c0.73-13.95,1.46-27.9,2.19-41.86l13.14,10.52l-2.69,41.9
			C42.59,204.63,38.38,201.11,34.17,197.59z"/>
		<circle class="st15" cx="32.93" cy="174.69" r="0.89"/>
		<polygon class="st107" points="9,118.11 72.92,71.36 72.92,165.31 		"/>
		<path class="st107" d="M150.61,165.31c0.92-40.2,1.85-80.39,2.78-120.59c59.24,42.58,96.7,69.14,101.03,71.34
			c0.5,0.25,3.46,1.65,3.28,3.02c-0.11,0.82-1.3,1.36-2.45,1.71C220.37,135.64,185.49,150.48,150.61,165.31z"/>
		<polygon class="st107" points="349.44,79.49 250.75,11.09 257.7,119.09 		"/>
		<polygon class="st107" points="72.92,165.31 105.54,60.78 150.61,165.31 		"/>
		<polygon class="st109" points="150.61,165.31 105.54,60.78 153.38,44.73 		"/>
	</g>
</g>
</svg>
