<?xml version="1.0" encoding="utf-8"?>
<!-- Generator: Adobe Illustrator 23.0.1, SVG Export Plug-In . SVG Version: 6.00 Build 0)  -->
<svg version="1.1" id="Layer_1" xmlns="http://www.w3.org/2000/svg" xmlns:xlink="http://www.w3.org/1999/xlink" x="0px" y="0px"
	 viewBox="0 0 1537.3 768" style="enable-background:new 0 0 1537.3 768;" xml:space="preserve">
<style type="text/css">
	.st0{fill:#E0D2C3;}
	.st1{fill:#C8BEB4;stroke:#727172;stroke-width:0.3418;stroke-miterlimit:10;}
	.st2{fill:#A0968C;stroke:#C8BEB4;stroke-width:1.3671;stroke-miterlimit:10;}
	.st3{fill:#E3DFE4;stroke:#474747;stroke-width:0.2357;stroke-miterlimit:10;}
	.st4{fill:#EDE6DD;}
	.st5{fill:#372A29;}
	.st6{fill:#C8BEB4;}
	.st7{fill:#E3DFE4;}
	.st8{fill:#969696;}
	.st9{fill:#C69479;}
	.st10{fill:#633127;}
	.st11{fill:#020202;}
	.st12{fill:#CE3D25;}
	.st13{fill:#181818;stroke:#2C2D2B;stroke-width:0.2611;stroke-miterlimit:10;}
	.st14{fill:#F9F9F9;}
	.st15{fill:#5C5E58;}
	.st16{fill:#AF826E;}
	.st17{fill:#D9A280;}
	.st18{fill:#FFFFFF;}
	.st19{fill:#181818;stroke:#5C5E58;stroke-width:0.2611;stroke-miterlimit:10;}
	.st20{fill:#72372B;}
	.st21{fill:#636363;}
	.st22{fill:#1A468E;}
	.st23{fill:#1A468E;stroke:#143359;stroke-width:0.2226;stroke-miterlimit:10;}
	.st24{fill:#143359;}
	.st25{fill:#246319;}
	.st26{fill:#F2581C;}
</style>
<g>
	<polygon class="st0" points="319.8,132.2 89.9,210.1 89.9,343.8 411.9,261.9 	"/>
	<rect x="89.9" y="331.7" class="st1" width="100.5" height="83.7"/>
	<polygon class="st1" points="7.2,270.6 7.2,348.4 89.9,415.4 89.9,331.7 	"/>
	<polygon class="st1" points="190.3,415.4 190.3,331.7 328.8,271.9 328.8,363.8 	"/>
	<path class="st1" d="M447.5,220.7l-118.6,51.2v91.9c39.5-21.7,79.1-43.4,118.6-65.1C447.5,272.6,447.5,246.6,447.5,220.7z"/>
	<rect x="119.3" y="348.4" class="st2" width="48.7" height="33.8"/>
	<path class="st3" d="M221.2,343"/>
	<path class="st2" d="M373.7,312.7c13-5.9,26.1-11.8,39.1-17.8c-0.3-11-0.6-22.1-0.9-33.1c-13.4,5.2-26.8,10.4-40.2,15.5
		C372.4,289.2,373,300.9,373.7,312.7z"/>
	<path class="st4" d="M190.3,331.7"/>
	<path class="st2" d="M24.2,360.8c0.7-18.1,1.3-36.1,2-54.2l17.2,13.3l-2.7,54.2C35.2,369.7,29.7,365.2,24.2,360.8z"/>
	<path class="st2" d="M39.7,373.4c0.9-18,1.9-36.1,2.8-54.1l17,13.6L56,387.1C50.6,382.5,45.2,378,39.7,373.4z"/>
	<circle class="st5" cx="38.1" cy="343.8" r="1.2"/>
	<polygon class="st2" points="7.2,270.6 89.9,210.1 89.9,331.7 	"/>
	<path class="st2" d="M190.3,331.7c1.2-52,2.4-104,3.6-155.9c76.6,55.1,125.1,89.4,130.7,92.3c0.6,0.3,4.5,2.1,4.2,3.9
		c-0.1,1.1-1.7,1.8-3.2,2.2C280.6,293.3,235.4,312.5,190.3,331.7z"/>
	<polygon class="st2" points="447.5,220.7 319.8,132.2 328.8,271.9 	"/>
	<polygon class="st2" points="89.9,331.7 132,196.5 190.3,331.7 	"/>
	<polygon class="st6" points="190.3,331.7 132,196.5 193.9,175.7 	"/>
</g>
<g>
	<polygon class="st0" points="463.7,276 233.7,354 233.7,487.6 555.8,405.7 	"/>
	<rect x="233.7" y="475.5" class="st1" width="100.5" height="83.7"/>
	<polygon class="st1" points="151,414.5 151,492.2 233.7,559.2 233.7,475.5 	"/>
	<polygon class="st1" points="334.2,559.2 334.2,475.5 472.7,415.7 472.7,507.6 	"/>
	<path class="st1" d="M591.3,364.5l-118.6,51.2v91.9c39.5-21.7,79.1-43.4,118.6-65.1C591.3,416.5,591.3,390.5,591.3,364.5z"/>
	<rect x="263.1" y="492.2" class="st2" width="48.7" height="33.8"/>
	<path class="st3" d="M365,486.8"/>
	<path class="st2" d="M517.6,456.6c13-5.9,26.1-11.8,39.1-17.8c-0.3-11-0.6-22.1-0.9-33.1c-13.4,5.2-26.8,10.4-40.2,15.5
		C516.2,433,516.9,444.8,517.6,456.6z"/>
	<path class="st4" d="M334.2,475.5"/>
	<path class="st2" d="M168,504.6c0.7-18.1,1.3-36.1,2-54.2l17.2,13.3l-2.7,54.2C179.1,513.6,173.6,509.1,168,504.6z"/>
	<path class="st2" d="M183.6,517.2c0.9-18,1.9-36.1,2.8-54.1l17,13.6l-3.5,54.2C194.5,526.3,189.1,521.8,183.6,517.2z"/>
	<circle class="st5" cx="182" cy="487.6" r="1.2"/>
	<polygon class="st2" points="151,414.5 233.7,354 233.7,475.5 	"/>
	<path class="st2" d="M334.2,475.5c1.2-52,2.4-104,3.6-156c76.6,55.1,125.1,89.4,130.7,92.3c0.6,0.3,4.5,2.1,4.2,3.9
		c-0.1,1.1-1.7,1.8-3.2,2.2C424.4,437.1,379.3,456.3,334.2,475.5z"/>
	<polygon class="st2" points="591.3,364.5 463.7,276 472.7,415.7 	"/>
	<polygon class="st2" points="233.7,475.5 275.9,340.3 334.2,475.5 	"/>
	<polygon class="st6" points="334.2,475.5 275.9,340.3 337.8,319.5 	"/>
</g>
<g>
	<polygon class="st0" points="621.9,421.8 391.9,499.8 391.9,633.4 714,551.5 	"/>
	<rect x="391.9" y="621.3" class="st1" width="100.5" height="83.7"/>
	<polygon class="st1" points="309.2,560.2 309.2,638 391.9,705 391.9,621.3 	"/>
	<polygon class="st1" points="492.4,705 492.4,621.3 630.9,561.5 630.9,653.4 	"/>
	<path class="st1" d="M749.5,510.3l-118.7,51.2v91.9c39.5-21.7,79.1-43.4,118.7-65.1C749.5,562.3,749.5,536.3,749.5,510.3z"/>
	<rect x="421.3" y="638" class="st2" width="48.7" height="33.8"/>
	<path class="st3" d="M523.2,632.6"/>
	<path class="st2" d="M675.8,602.3c13-5.9,26.1-11.8,39.1-17.8c-0.3-11-0.6-22.1-0.9-33.1c-13.4,5.2-26.8,10.4-40.2,15.5
		C674.4,578.8,675.1,590.6,675.8,602.3z"/>
	<path class="st4" d="M492.4,621.3"/>
	<path class="st2" d="M326.2,650.4c0.7-18.1,1.3-36.1,2-54.2l17.2,13.3l-2.7,54.2C337.3,659.3,331.7,654.9,326.2,650.4z"/>
	<path class="st2" d="M341.8,663c0.9-18,1.9-36.1,2.8-54.1l17,13.6l-3.5,54.2C352.7,672.1,347.2,667.6,341.8,663z"/>
	<circle class="st5" cx="340.2" cy="633.4" r="1.2"/>
	<polygon class="st2" points="309.2,560.2 391.9,499.8 391.9,621.3 	"/>
	<path class="st2" d="M492.4,621.3c1.2-52,2.4-104,3.6-156c76.6,55.1,125.1,89.4,130.7,92.3c0.6,0.3,4.5,2.1,4.2,3.9
		c-0.1,1.1-1.7,1.8-3.2,2.2C582.6,582.9,537.5,602.1,492.4,621.3z"/>
	<polygon class="st2" points="749.5,510.3 621.9,421.8 630.9,561.5 	"/>
	<polygon class="st2" points="391.9,621.3 434.1,486.1 492.4,621.3 	"/>
	<polygon class="st6" points="492.4,621.3 434.1,486.1 496,465.3 	"/>
</g>
<g>
	<polygon class="st0" points="1080.8,33.2 850.9,111.2 850.9,244.8 1172.9,162.9 	"/>
	<rect x="850.9" y="232.7" class="st1" width="100.5" height="83.7"/>
	<polygon class="st1" points="768.2,171.6 768.2,249.4 850.9,316.4 850.9,232.7 	"/>
	<polygon class="st1" points="951.3,316.4 951.3,232.7 1089.8,172.9 1089.8,264.8 	"/>
	<path class="st1" d="M1208.5,121.7l-118.7,51.2v91.9c39.6-21.7,79.1-43.4,118.7-65.1C1208.5,173.6,1208.5,147.6,1208.5,121.7z"/>
	<rect x="880.3" y="249.4" class="st2" width="48.7" height="33.8"/>
	<path class="st3" d="M982.2,244"/>
	<path class="st2" d="M1134.7,213.7c13.1-5.9,26.1-11.8,39.1-17.8c-0.3-11-0.6-22.1-0.9-33.1c-13.4,5.2-26.8,10.4-40.2,15.6
		C1133.4,190.2,1134,201.9,1134.7,213.7z"/>
	<path class="st4" d="M951.3,232.7"/>
	<path class="st2" d="M785.2,261.8c0.7-18.1,1.3-36.1,2-54.2l17.2,13.3l-2.7,54.2C796.2,270.7,790.7,266.2,785.2,261.8z"/>
	<path class="st2" d="M800.7,274.4c0.9-18,1.9-36.1,2.8-54.1l17,13.6l-3.5,54.2C811.6,283.5,806.2,279,800.7,274.4z"/>
	<circle class="st5" cx="799.1" cy="244.8" r="1.2"/>
	<polygon class="st2" points="768.2,171.6 850.9,111.2 850.9,232.7 	"/>
	<path class="st2" d="M951.3,232.7c1.2-52,2.4-104,3.6-155.9c76.6,55.1,125,89.4,130.7,92.3c0.6,0.3,4.5,2.1,4.2,3.9
		c-0.1,1.1-1.7,1.8-3.2,2.2C1041.6,194.3,996.4,213.5,951.3,232.7z"/>
	<polygon class="st2" points="1208.5,121.7 1080.8,33.2 1089.8,172.9 	"/>
	<polygon class="st2" points="850.9,232.7 893,97.5 951.3,232.7 	"/>
	<polygon class="st6" points="951.3,232.7 893,97.5 954.9,76.7 	"/>
</g>
<g>
	<polygon class="st0" points="1237.7,171.1 1007.7,249 1007.7,382.6 1329.8,300.7 	"/>
	<rect x="1007.7" y="370.5" class="st1" width="100.5" height="83.7"/>
	<polygon class="st1" points="925,309.5 925,387.2 1007.7,454.2 1007.7,370.5 	"/>
	<polygon class="st1" points="1108.2,454.2 1108.2,370.5 1246.7,310.7 1246.7,402.6 	"/>
	<path class="st1" d="M1365.3,259.5l-118.7,51.2v91.9c39.6-21.7,79.1-43.4,118.7-65.1C1365.3,311.5,1365.3,285.5,1365.3,259.5z"/>
	<rect x="1037.1" y="387.2" class="st2" width="48.7" height="33.8"/>
	<path class="st3" d="M1139,381.8"/>
	<path class="st2" d="M1291.6,351.6c13.1-5.9,26.1-11.8,39.1-17.8c-0.3-11-0.6-22.1-0.9-33.1c-13.4,5.2-26.8,10.4-40.2,15.5
		C1290.2,328,1290.9,339.8,1291.6,351.6z"/>
	<path class="st4" d="M1108.2,370.5"/>
	<path class="st2" d="M942,399.6c0.7-18.1,1.3-36.1,2-54.2l17.2,13.3l-2.7,54.2C953.1,408.6,947.6,404.1,942,399.6z"/>
	<path class="st2" d="M957.6,412.2c0.9-18,1.9-36.1,2.8-54.1l17,13.6l-3.5,54.2C968.5,421.4,963.1,416.8,957.6,412.2z"/>
	<circle class="st5" cx="956" cy="382.6" r="1.2"/>
	<polygon class="st2" points="925,309.5 1007.7,249 1007.7,370.5 	"/>
	<path class="st2" d="M1108.2,370.5c1.2-52,2.4-104,3.6-155.9c76.6,55.1,125.1,89.4,130.7,92.3c0.6,0.3,4.5,2.1,4.2,3.9
		c-0.1,1.1-1.7,1.8-3.2,2.2C1198.4,332.1,1153.3,351.3,1108.2,370.5z"/>
	<polygon class="st2" points="1365.3,259.5 1237.7,171.1 1246.7,310.7 	"/>
	<polygon class="st2" points="1007.7,370.5 1049.9,235.3 1108.2,370.5 	"/>
	<polygon class="st6" points="1108.2,370.5 1049.9,235.3 1111.8,214.6 	"/>
</g>
<g>
	<polygon class="st0" points="1395.9,316.8 1165.9,394.8 1165.9,528.4 1488,446.5 	"/>
	<rect x="1165.9" y="516.3" class="st1" width="100.5" height="83.7"/>
	<polygon class="st1" points="1083.2,455.2 1083.2,533 1165.9,600 1165.9,516.3 	"/>
	<polygon class="st1" points="1266.4,600 1266.4,516.3 1404.9,456.5 1404.9,548.4 	"/>
	<path class="st1" d="M1523.5,405.3l-118.6,51.2v91.9c39.6-21.7,79.1-43.4,118.7-65.1C1523.5,457.3,1523.5,431.3,1523.5,405.3z"/>
	<rect x="1195.3" y="533" class="st2" width="48.7" height="33.8"/>
	<path class="st3" d="M1297.2,527.6"/>
	<path class="st2" d="M1449.8,497.3c13.1-5.9,26.1-11.8,39.1-17.8c-0.3-11-0.6-22.1-0.9-33.1c-13.4,5.2-26.8,10.4-40.2,15.5
		C1448.4,473.8,1449.1,485.6,1449.8,497.3z"/>
	<path class="st4" d="M1266.4,516.3"/>
	<path class="st2" d="M1100.2,545.4c0.7-18.1,1.3-36.1,2-54.2l17.2,13.3l-2.7,54.2C1111.3,554.3,1105.7,549.9,1100.2,545.4z"/>
	<path class="st2" d="M1115.8,558c0.9-18,1.9-36.1,2.8-54.1l17,13.6l-3.5,54.2C1126.7,567.1,1121.2,562.6,1115.8,558z"/>
	<circle class="st5" cx="1114.2" cy="528.4" r="1.2"/>
	<polygon class="st2" points="1083.2,455.2 1165.9,394.8 1165.9,516.3 	"/>
	<path class="st2" d="M1266.4,516.3c1.2-52,2.4-104,3.6-156c76.6,55.1,125.1,89.4,130.7,92.3c0.6,0.3,4.5,2.1,4.2,3.9
		c-0.1,1.1-1.7,1.8-3.2,2.2C1356.6,477.9,1311.5,497.1,1266.4,516.3z"/>
	<polygon class="st2" points="1523.5,405.3 1395.9,316.8 1404.9,456.5 	"/>
	<polygon class="st2" points="1165.9,516.3 1208.1,381.1 1266.4,516.3 	"/>
	<polygon class="st6" points="1266.4,516.3 1208.1,381.1 1270,360.3 	"/>
</g>
<g>
	<path class="st7" d="M782.7,476.3"/>
	<path class="st8" d="M792.1,447.3c0,0-1.7,0.2-1.3,1.2c0.4,1,1.7,1.8,2.3,1.8C793.7,450.3,793.3,447.4,792.1,447.3z"/>
	<path class="st8" d="M819.7,465.1c0,0-1.7,0.2-1.3,1.2c0.4,1,1.7,1.8,2.3,1.8C821.3,468,820.9,465.1,819.7,465.1z"/>
	<path class="st8" d="M722.1,475.3c0,0-1.7,0.2-1.3,1.2c0.4,1,1.7,1.8,2.3,1.8S723.3,475.4,722.1,475.3z"/>
	<path class="st9" d="M717.8,406.5c0.2,2.5,0.4,3.3,0.2,3.9c-0.2,0.6,0.3,3.4,0.4,4.3c0.1,0.9,1.5,6.6,1.5,6.6s0.5,3.6,0.6,4.1
		s1,2.1,0.7,2.8c-0.3,0.7-1.3,5,1,6.1c2.3,1.2,2.3-0.7,1.7-0.6c-0.5,0.1,4.5-2.7,2.6-5.4s-2.1-2.5-2.2-3.7c-0.1-1.2-0.3-0.7-0.5-2.2
		c-0.2-1.6,0.2-9.1,0-10c-0.2-0.9-1-7-1.6-7.5C721.7,404.5,717.7,405.4,717.8,406.5z"/>
	<path class="st9" d="M738.5,389.4c0,0-0.6-0.3,0-2c0.6-1.6,0.8-3.2-0.3-3.2s-10.4-0.2-9.5,2.6c0.9,2.8,0.4,3.7,0.4,3.7
		S736.9,391.3,738.5,389.4z"/>
	<path class="st9" d="M726.7,380.8c0,0-0.3-0.4-0.7-0.4c-0.4,0-0.8,0.3-0.4,1.5c0.3,1.1,0.9,3.9,1.6,3.8c0.7-0.1,1-0.9,1-0.9
		L726.7,380.8z"/>
	<path class="st9" d="M741.1,380.4c0,0,0.4-0.2,0.5,0.3c0.1,0.5,0.2,2-0.3,2.8c-0.4,0.8-0.9,1.8-1.3,1.8S740.1,380.5,741.1,380.4z"
		/>
	<path class="st10" d="M741.2,379.1c0.4-3.7-0.6-7.2-2.8-8.6c-1-0.6-2.5-1-2.5-1c-0.4-0.1-1-0.3-1.9-0.3c-0.2,0-1.2-0.1-2.1,0
		c-1.4,0.1-2.8,0.7-3.7,1.3c-2.3,1.6-2.4,4.9-2.5,6.8c-0.2,4.3,1.4,7.6,2.5,9.5c3.2,2.3,7.5,2.2,10.2-0.1
		C741.8,383.9,741.2,379.3,741.2,379.1z"/>
	<path class="st11" d="M723.2,429.4c0,0,0.2,0.3,0.1,0.7c0,0.4-0.4,3.1-0.5,4c-0.1,0.9-0.3,3.7-0.2,4c0.1,0.4,0,0.5-0.2,0.5
		s-0.1,2.2,0,2.7c0.1,0.5-0.2,0.7-0.1,1.1s-0.2,0.6-0.2,1.2s0.2,3,0.7,5c0.5,2,0.2,2.6,0.2,2.9s0.1,2.2,0.4,3.1
		c0.3,0.9,0,2.3,0.1,2.8c0.2,0.5,0,0.9,0,1.2c0,0.4-0.3,0.8-0.5,1.1c-0.2,0.3-0.3,0.7-0.5,1.8s-0.2,1.5-0.3,1.8c0,0.3,0,0.7-0.1,0.9
		s-0.4,0.5-0.5,0.9s-0.4,0.4-0.5,0.9c-0.1,0.5,0,0.7-0.2,1.1c-0.2,0.4-0.4,0.4-0.1,1c0.3,0.6,0.2,1.8,0.3,2.2s0.1,1.6,0.7,2.3
		s0.5,1.1,0.4,1.3c-0.1,0.2-0.2,3.1,0.7,4.1c0.9,0.9,0.6,1,1.2,1.2c0.5,0.1,2.8,1.1,3.9,1s3.3-0.5,3.6-1.2s0-1.2,0.3-2.1
		c0.3-0.9,0.4-3.2,0.5-3.9c0.1-0.8,0.4-1.8,0.4-2.3c0-0.5,1.2-3.4,1.4-4.5c0.3-1.1,0.4-2,0-2.7c-0.4-0.7-0.4-1.6-0.4-1.9
		c0-0.3,0.3-4.5,0.1-5c-0.3-0.5-0.3-1.4-0.1-1.8c0.2-0.4,0.8-2.9,0.8-3.5s0.2-1.3,0.3-1.2c0.1,0.1,0.2,1.3,0.2,1.9s0.4,2.1,0.4,2.5
		s-0.4,1.4-0.1,2.1c0.2,0.7,0.3,1.4,0.3,1.8s0,3,0,3.8c0,0.8,0.5,1.9,0.4,2.3c0,0.4-0.2,3.7-0.4,4.3c-0.2,0.7-0.2,0.8-0.7,0.9
		s-1,0.5-1.1,1.3c-0.1,0.9-0.2,2-0.1,2.4c0.1,0.4,0.4,1.9,0.7,2.5c0.2,0.6-0.4,1.7,0.5,2.4c0.8,0.7,1.5,1,1.9,1.1s1.7,0.2,2.6,0
		s2.7-0.8,3.3-2c0.6-1.3,0.8-1.2,1.3-1.8s0.6-1.4,0.6-2s0.6-2.4,0.9-3.8c0.3-1.4,0.5-4.2,0.4-4.8c0-0.6-1-3.4-0.8-4.2s0-2.4,0.2-3.2
		s0.3-4.3,0.5-5c0.2-0.7-0.1-3.4-0.3-4.5c-0.2-1.1-0.7-3.1-0.3-4.6c0.4-1.5,0.2-4.5,0.2-5s3.9-11.5,3.2-11.9
		C748.1,426.4,723.1,428.7,723.2,429.4z"/>
	<path class="st9" d="M749.5,406.5c0,0,0.8,4.3,0.9,5c0.1,0.7,0.2,1.7,0.3,2.4c0.1,0.7,0.3,2.9,0.3,4s-0.4,4.9-0.5,5.6
		c-0.1,0.6,0,3.6-0.3,4.1c-0.3,0.5-2.1,4.3-2.2,4.8c0,0.5-0.3,2.8-0.6,3.4c-0.3,0.6-0.9,2.3-1.3,2.3s-0.9-1.3-0.6-2.6
		c0.3-1.3,1.1-8,1.7-8.1c0.6-0.1-1-10.3-1-10.3l-1.9-6.4C744.6,410.8,743,403.7,749.5,406.5z"/>
	<path class="st12" d="M747.2,427.2c0,0-2.7,1-7.2,2.1c-4.4,1-14,1.9-15.9,0.5l-0.8-0.5c0,0-0.3-2.3,0.4-3.5s0.1-1.8-0.2-3
		c-0.3-1.2-0.1-1.7-0.3-2.8c-0.2-1.1-0.1-2.7,0.6-4.2s0.6-2,0.4-3.6c-0.2-1.5-0.6-4.5-0.6-4.5c0,0.4,0,0.8,0,1.1
		c-2.5-0.2-6.3-0.8-6.7-2.5c0-0.2,0-0.3,0.2-2.2c0.2-1.3,0.3-2.3,0.4-2.9c0.4-1.9,0.5-5,2.7-6.6c0.6-0.4,5.5-3.7,6.2-3.6
		c0.7,0.1,1.7-1.3,2.2-1.3c0.5,0.1,6,0.7,9.2-0.4c0,0,1.2-0.5,1.2-0.4c0.1,0.2,2.3,1.2,3,1.3c0.7,0.1,4.8,1.6,5.4,3.3
		c0.6,1.7,1,5.2,1.9,7.2c0.9,2,0,3.4,0.7,5.7c0,0-3.7,0.9-4,0.9c-0.3,0-0.3-2.6-0.3-3.2c-0.1-0.6,0.6,4.5,0.4,5.7
		c-0.2,1.2-1.2,2.7-1.1,3.5c0.2,0.8-1,2.3-0.1,4.4c0.9,2.1,3.2,9.1,3.2,9.1L747.2,427.2z"/>
	<path class="st13" d="M737.4,431.3c0,0,0,8,0,8.5s-0.8,3-0.2,3.3c0.7,0.2,6.5,0.7,7.4,0.2c0.9-0.6,0.9-9,2-10.1
		c1.2-1.2,0.1-0.5,0.1-0.5S737.4,430.7,737.4,431.3z"/>
	<path class="st13" d="M732.7,431.7c0,0-0.8,8-0.8,8.4c0,0.5,0.5,3.1-0.1,3.3s-6.5,0.2-7.4-0.5s0-9-1.1-10.3s-0.1-0.5-0.1-0.5
		S732.8,431.2,732.7,431.7z"/>
	<path class="st14" d="M735.1,437.6c0,0,0.5-0.5,0.5-0.7c0-0.2-0.2-0.2-0.4-0.1C735,436.7,734.8,437.6,735.1,437.6z"/>
	<path class="st13" d="M737,430.8c0,0,1.6,2.3,3,2.8s1.6,0.1,2.3,0c0.7-0.1,1.4,0.7,3.1-0.2c1.7-0.9,3.3-1.5,2.9-2.3
		c-0.4-0.8-1-1.9-1-1.9s0.5-0.7-1.2-0.2C744.4,429.5,736.7,430.4,737,430.8z"/>
	<circle class="st15" cx="743.7" cy="432.2" r="0.7"/>
	<path class="st13" d="M733.8,431.6c0,0,0.4,0.3,0,0.7s-0.5,1.4-1.1,1.7c-0.6,0.3-1.1,0.8-2,0.6c-0.9-0.1-2.1,0.2-3.9-0.3
		c-1.8-0.5-3.6-0.8-3.9-1.2c-0.3-0.3,0.3-0.9,0.3-1.1s-0.1-0.6,0.3-0.9s0.9-0.5,1.3-0.3c0.5,0.2,1.5,0.1,1.8,0.2
		c0.3,0.1,0.9,0,1.4,0.2C728.6,431.4,733.8,431.6,733.8,431.6z"/>
	<circle class="st15" cx="727.6" cy="432.6" r="0.7"/>
	<path class="st8" d="M749.7,493.1c0,0-1.7,0.2-1.3,1.2s1.7,1.8,2.3,1.8C751.3,496,750.9,493.1,749.7,493.1z"/>
	<path class="st16" d="M745.4,424.3c0.2,2.5,0.4,3.3,0.2,3.9s0.3,3.4,0.4,4.3c0.1,0.9,1.5,6.6,1.5,6.6s0.5,3.6,0.6,4.1
		c0,0.4,1,2.1,0.7,2.8s-1.3,5,1,6.1s2.3-0.7,1.7-0.6c-0.5,0.1,4.5-2.7,2.6-5.4c-1.9-2.7-2.1-2.5-2.2-3.7c-0.1-1.2-0.3-0.7-0.5-2.2
		c-0.2-1.6,0.2-9.1,0-10s-1-7-1.6-7.5S745.3,423.1,745.4,424.3z"/>
	<path class="st16" d="M766,407.2c0,0-0.6-0.3,0-2c0.6-1.6,0.8-3.2-0.3-3.2s-10.4-0.2-9.5,2.6c0.9,2.8,0.4,3.7,0.4,3.7
		S764.5,409.1,766,407.2z"/>
	<path class="st16" d="M754.2,398.5c0,0-0.3-0.4-0.7-0.4c-0.4,0-0.8,0.3-0.4,1.5c0.3,1.1,0.9,3.9,1.6,3.8c0.7-0.1,1-0.9,1-0.9
		L754.2,398.5z"/>
	<path class="st16" d="M768.7,398.1c0,0,0.4-0.2,0.5,0.3c0.1,0.5,0.2,2-0.3,2.8c-0.4,0.8-0.9,1.8-1.3,1.8S767.6,398.3,768.7,398.1z"
		/>
	<path class="st11" d="M768.7,396.9c0.4-3.7-0.6-7.2-2.8-8.6c-1-0.6-2.5-1-2.5-1c-0.4-0.1-1-0.3-1.9-0.3c-0.2,0-1.2-0.1-2.1,0
		c-1.4,0.1-2.8,0.7-3.7,1.3c-2.3,1.6-2.4,4.9-2.5,6.8c-0.2,4.3,1.4,7.6,2.5,9.5c3.2,2.3,7.5,2.2,10.2-0.1
		C769.4,401.7,768.8,397.1,768.7,396.9z"/>
	<path class="st11" d="M750.8,447.2c0,0,0.2,0.3,0.1,0.7c0,0.4-0.4,3.1-0.5,4c-0.1,0.9-0.3,3.7-0.2,4s0,0.5-0.2,0.5s-0.1,2.2,0,2.7
		c0.1,0.5-0.2,0.7-0.1,1.1c0,0.3-0.2,0.6-0.2,1.2c0,0.6,0.2,3,0.7,5c0.5,2,0.2,2.6,0.2,2.9s0.1,2.2,0.4,3.1c0.3,0.9,0,2.3,0.1,2.8
		c0.2,0.5,0,0.9,0,1.2s-0.3,0.8-0.5,1.1c-0.2,0.3-0.3,0.7-0.5,1.8c-0.1,1.1-0.2,1.5-0.3,1.8c0,0.3,0,0.7-0.1,0.9
		c-0.1,0.2-0.4,0.5-0.5,0.9c-0.1,0.4-0.4,0.4-0.5,0.9c-0.1,0.5,0,0.7-0.2,1.1c-0.2,0.4-0.4,0.4-0.1,1c0.3,0.6,0.2,1.8,0.3,2.2
		c0.1,0.4,0.1,1.6,0.7,2.3c0.6,0.7,0.5,1.1,0.4,1.3s-0.2,3.1,0.7,4.1c0.9,0.9,0.6,1,1.2,1.2c0.5,0.1,2.8,1.1,3.9,1
		c1.1,0,3.3-0.5,3.6-1.2c0.3-0.6,0-1.2,0.3-2.1c0.3-0.9,0.4-3.2,0.5-3.9c0.1-0.8,0.4-1.8,0.4-2.3c0-0.5,1.2-3.4,1.4-4.5
		c0.3-1.1,0.4-2,0-2.7s-0.4-1.6-0.4-1.9c0-0.3,0.3-4.5,0.1-5s-0.3-1.4-0.1-1.8s0.8-2.9,0.8-3.5s0.2-1.3,0.3-1.2
		c0.1,0.1,0.2,1.3,0.2,1.9c0,0.6,0.4,2.1,0.4,2.5s-0.4,1.4-0.1,2.1c0.2,0.7,0.3,1.4,0.3,1.8s0,3,0,3.8s0.5,1.9,0.4,2.3
		c0,0.4-0.2,3.7-0.4,4.3c-0.2,0.7-0.2,0.8-0.7,0.9s-1,0.5-1.1,1.3c-0.1,0.9-0.2,2-0.1,2.4c0.1,0.4,0.4,1.9,0.7,2.5
		c0.2,0.6-0.4,1.7,0.5,2.4c0.8,0.7,1.5,1,1.9,1.1c0.4,0,1.7,0.2,2.6,0c0.9-0.2,2.7-0.8,3.3-2c0.6-1.3,0.8-1.2,1.3-1.8
		c0.5-0.7,0.6-1.4,0.6-2c-0.1-0.6,0.6-2.4,0.9-3.8c0.3-1.4,0.5-4.2,0.4-4.8c0-0.6-1-3.4-0.8-4.2c0.2-0.8,0-2.4,0.2-3.2
		c0.3-0.8,0.3-4.3,0.5-5c0.2-0.7-0.1-3.4-0.3-4.5c-0.2-1.1-0.7-3.1-0.3-4.6c0.4-1.5,0.2-4.5,0.2-5s3.9-11.5,3.2-11.9
		C775.7,444.1,750.7,446.5,750.8,447.2z"/>
	<path class="st17" d="M777.1,424.3c0,0,0.8,4.3,0.9,5c0.1,0.7,0.2,1.7,0.3,2.4s0.3,2.9,0.3,4s-0.4,4.9-0.5,5.6
		c-0.1,0.6,0,3.6-0.3,4.1c-0.3,0.5-2.1,4.3-2.2,4.8c0,0.5-0.3,2.8-0.6,3.4c-0.3,0.6-0.9,2.3-1.3,2.3s-0.9-1.3-0.6-2.6
		c0.3-1.3,1.1-8,1.7-8.1c0.6-0.1-1-10.3-1-10.3l-1.9-6.4C772.2,428.5,770.5,421.5,777.1,424.3z"/>
	<path class="st18" d="M774.8,445c0,0-2.7,1-7.2,2.1c-4.4,1-14,1.9-15.9,0.5l-0.8-0.5c0,0-0.3-2.3,0.4-3.5s0.1-1.8-0.2-3
		c-0.3-1.2-0.1-1.7-0.3-2.8c-0.2-1.1-0.1-2.7,0.6-4.2c0.7-1.5,0.6-2,0.4-3.6s-0.6-4.5-0.6-4.5c0,0.4,0,0.8,0,1.1
		c-2.5-0.2-6.3-0.8-6.7-2.5c0-0.2,0-0.3,0.2-2.2c0.2-1.3,0.3-2.3,0.4-2.9c0.4-1.9,0.5-5,2.7-6.6c0.6-0.4,5.5-3.7,6.2-3.6
		s1.7-1.3,2.2-1.3c0.5,0.1,6,0.7,9.2-0.4c0,0,1.2-0.5,1.2-0.4c0.1,0.2,2.3,1.2,3,1.3c0.7,0.1,4.8,1.6,5.4,3.3c0.6,1.7,1,5.2,1.9,7.2
		c0.9,2,0,3.4,0.7,5.7c0,0-3.7,0.9-4,0.9c-0.3,0-0.3-2.6-0.3-3.2c-0.1-0.6,0.6,4.5,0.4,5.7c-0.2,1.2-1.2,2.7-1.1,3.5
		c0.2,0.8-1,2.3-0.1,4.4c0.9,2.1,3.2,9.1,3.2,9.1L774.8,445z"/>
	<path class="st13" d="M765,449.1c0,0,0,8,0,8.5c0,0.5-0.8,3-0.2,3.3s6.5,0.7,7.4,0.2c0.9-0.6,0.9-9,2-10.1c1.2-1.2,0.1-0.5,0.1-0.5
		S765,448.5,765,449.1z"/>
	<path class="st13" d="M760.3,449.5c0,0-0.8,8-0.8,8.4c0,0.5,0.5,3.1-0.1,3.3s-6.5,0.2-7.4-0.5s0-9-1.1-10.3s-0.1-0.5-0.1-0.5
		S760.4,448.9,760.3,449.5z"/>
	<path class="st14" d="M762.7,455.3c0,0,0.5-0.5,0.5-0.7c0-0.2-0.2-0.2-0.4-0.1S762.4,455.4,762.7,455.3z"/>
	<path class="st19" d="M764.6,448.6c0,0,1.6,2.3,3,2.8s1.6,0.1,2.3,0c0.7-0.1,1.4,0.7,3.1-0.2c1.7-0.9,3.3-1.5,2.9-2.3
		c-0.4-0.8-1-1.9-1-1.9s0.5-0.7-1.2-0.2C772,447.3,764.3,448.2,764.6,448.6z"/>
	<circle class="st15" cx="771.3" cy="450" r="0.7"/>
	<path class="st13" d="M761.4,449.4c0,0,0.4,0.3,0,0.7c-0.4,0.4-0.5,1.4-1.1,1.7c-0.6,0.3-1.1,0.8-2,0.6c-0.9-0.1-2.1,0.2-3.9-0.3
		c-1.8-0.5-3.6-0.8-3.9-1.2c-0.3-0.3,0.3-0.9,0.3-1.1s-0.1-0.6,0.3-0.9c0.4-0.3,0.9-0.5,1.3-0.3c0.5,0.2,1.5,0.1,1.8,0.2
		s0.9,0,1.4,0.2C756.2,449.2,761.4,449.4,761.4,449.4z"/>
	<circle class="st15" cx="755.2" cy="450.3" r="0.7"/>
	<path class="st8" d="M768.1,510.4c0,0-1.7,0.2-1.3,1.2c0.4,1,1.7,1.8,2.3,1.8S769.3,510.4,768.1,510.4z"/>
	<path class="st17" d="M763.8,441.6c0.2,2.5,0.4,3.3,0.2,3.9c-0.2,0.6,0.3,3.4,0.4,4.3c0.1,0.9,1.5,6.6,1.5,6.6s0.5,3.6,0.6,4.1
		s1,2.1,0.7,2.8c-0.3,0.7-1.3,5,1,6.1c2.3,1.2,2.3-0.7,1.7-0.6c-0.5,0.1,4.5-2.7,2.6-5.4s-2.1-2.5-2.2-3.7c-0.1-1.2-0.3-0.7-0.5-2.2
		c-0.2-1.6,0.2-9.1,0-10c-0.2-0.9-1-7-1.6-7.5C767.7,439.5,763.7,440.4,763.8,441.6z"/>
	<path class="st17" d="M784.5,424.5c0,0-0.6-0.3,0-2c0.6-1.6,0.8-3.2-0.3-3.2s-10.4-0.2-9.5,2.6c0.9,2.8,0.4,3.7,0.4,3.7
		S783,426.4,784.5,424.5z"/>
	<path class="st17" d="M772.7,415.8c0,0-0.3-0.4-0.7-0.4s-0.8,0.3-0.4,1.5c0.3,1.1,0.9,3.9,1.6,3.8c0.7-0.1,1-0.9,1-0.9L772.7,415.8
		z"/>
	<path class="st17" d="M787.2,415.4c0,0,0.4-0.2,0.5,0.3c0.1,0.5,0.2,2-0.3,2.8c-0.4,0.8-0.9,1.8-1.3,1.8
		C785.6,420.3,786.1,415.6,787.2,415.4z"/>
	<path class="st10" d="M787.2,414.2c0.4-3.7-0.6-7.2-2.8-8.6c-1-0.6-2.5-1-2.5-1c-0.4-0.1-1-0.3-1.9-0.3c-0.2,0-1.2-0.1-2.1,0
		c-1.4,0.1-2.8,0.7-3.7,1.3c-2.3,1.6-2.4,4.9-2.5,6.8c-0.2,4.3,1.4,7.6,2.5,9.5c3.2,2.3,7.5,2.2,10.2-0.1
		C787.9,419,787.2,414.4,787.2,414.2z"/>
	<path class="st11" d="M769.3,464.5c0,0,0.2,0.3,0.1,0.7s-0.4,3.1-0.5,4c-0.1,0.9-0.3,3.7-0.2,4c0.1,0.4,0,0.5-0.2,0.5
		c-0.3,0-0.1,2.2,0,2.7s-0.2,0.7-0.1,1.1s-0.2,0.6-0.2,1.2c0,0.6,0.2,3,0.7,5s0.2,2.6,0.2,2.9s0.1,2.2,0.4,3.1s0,2.3,0.1,2.8
		c0.2,0.5,0,0.9,0,1.2c0,0.4-0.3,0.8-0.5,1.1c-0.2,0.3-0.3,0.7-0.5,1.8c-0.1,1.1-0.2,1.5-0.3,1.8c0,0.3,0,0.7-0.1,0.9
		s-0.4,0.5-0.5,0.9c-0.1,0.4-0.4,0.4-0.5,0.9s0,0.7-0.2,1.1c-0.2,0.4-0.4,0.4-0.1,1c0.3,0.6,0.2,1.8,0.3,2.2
		c0.1,0.4,0.1,1.6,0.7,2.3c0.6,0.7,0.5,1.1,0.4,1.3c-0.1,0.2-0.2,3.1,0.7,4.1c0.9,0.9,0.6,1,1.2,1.2c0.5,0.1,2.8,1.1,3.9,1
		c1.1,0,3.3-0.5,3.6-1.2c0.3-0.6,0-1.2,0.3-2.1c0.3-0.9,0.4-3.2,0.5-3.9c0.1-0.8,0.4-1.8,0.4-2.3c0-0.5,1.2-3.4,1.4-4.5
		c0.3-1.1,0.4-2,0-2.7c-0.4-0.7-0.4-1.6-0.4-1.9c0-0.3,0.3-4.5,0.1-5c-0.3-0.5-0.3-1.4-0.1-1.8s0.8-2.9,0.8-3.5s0.2-1.3,0.3-1.2
		c0.1,0.1,0.2,1.3,0.2,1.9c0,0.6,0.4,2.1,0.4,2.5s-0.4,1.4-0.1,2.1c0.2,0.7,0.3,1.4,0.3,1.8s0,3,0,3.8c0,0.8,0.5,1.9,0.4,2.3
		c0,0.4-0.2,3.7-0.4,4.3s-0.2,0.8-0.7,0.9s-1,0.5-1.1,1.3c-0.1,0.9-0.2,2-0.1,2.4c0.1,0.4,0.4,1.9,0.7,2.5c0.2,0.6-0.4,1.7,0.5,2.4
		c0.8,0.7,1.5,1,1.9,1.1c0.4,0,1.7,0.2,2.6,0c0.9-0.2,2.7-0.8,3.3-2s0.8-1.2,1.3-1.8c0.5-0.7,0.6-1.4,0.6-2
		c-0.1-0.6,0.6-2.4,0.9-3.8s0.5-4.2,0.4-4.8c0-0.6-1-3.4-0.8-4.2c0.2-0.8,0-2.4,0.2-3.2c0.3-0.8,0.3-4.3,0.5-5
		c0.2-0.7-0.1-3.4-0.3-4.5c-0.2-1.1-0.7-3.1-0.3-4.6c0.4-1.5,0.2-4.5,0.2-5c0-0.5,3.9-11.5,3.2-11.9
		C794.1,461.4,769.1,463.8,769.3,464.5z"/>
	<path class="st17" d="M795.5,441.6c0,0,0.8,4.3,0.9,5c0.1,0.7,0.2,1.7,0.3,2.4c0.1,0.7,0.3,2.9,0.3,4s-0.4,4.9-0.5,5.6
		c-0.1,0.6,0,3.6-0.3,4.1c-0.3,0.5-2.1,4.3-2.2,4.8c0,0.5-0.3,2.8-0.6,3.4c-0.3,0.6-0.9,2.3-1.3,2.3c-0.4,0.1-0.9-1.3-0.6-2.6
		c0.3-1.3,1.1-8,1.7-8.1s-1-10.3-1-10.3l-1.9-6.4C790.6,445.8,789,438.8,795.5,441.6z"/>
	<path class="st12" d="M793.2,462.3c0,0-2.7,1-7.2,2.1c-4.4,1-14,1.9-15.9,0.5l-0.8-0.5c0,0-0.3-2.3,0.4-3.5s0.1-1.8-0.2-3
		c-0.3-1.2-0.1-1.7-0.3-2.8c-0.2-1.1-0.1-2.7,0.6-4.2c0.7-1.5,0.6-2,0.4-3.6c-0.2-1.5-0.6-4.5-0.6-4.5c0,0.4,0,0.8,0,1.1
		c-2.5-0.2-6.3-0.8-6.7-2.5c0-0.2,0-0.3,0.2-2.2c0.2-1.3,0.3-2.3,0.4-2.9c0.4-1.9,0.5-5,2.7-6.6c0.6-0.4,5.5-3.7,6.2-3.6
		c0.7,0.1,1.7-1.3,2.2-1.3c0.5,0.1,6,0.7,9.2-0.4c0,0,1.2-0.5,1.2-0.4c0.1,0.2,2.3,1.2,3,1.3c0.7,0.1,4.8,1.6,5.4,3.3
		c0.6,1.7,1,5.2,1.9,7.2c0.9,2,0,3.4,0.7,5.7c0,0-3.7,0.9-4,0.9c-0.3,0-0.3-2.6-0.3-3.2c-0.1-0.6,0.6,4.5,0.4,5.7
		c-0.2,1.2-1.2,2.7-1.1,3.5c0.2,0.8-1,2.3-0.1,4.4c0.9,2.1,3.2,9.1,3.2,9.1L793.2,462.3z"/>
	<path class="st13" d="M783.4,466.4c0,0,0,8,0,8.5c0,0.5-0.8,3-0.2,3.3c0.7,0.2,6.5,0.7,7.4,0.2c0.9-0.6,0.9-9,2-10.1
		c1.2-1.2,0.1-0.5,0.1-0.5S783.4,465.8,783.4,466.4z"/>
	<path class="st13" d="M778.7,466.8c0,0-0.8,8-0.8,8.4s0.5,3.1-0.1,3.3c-0.7,0.2-6.5,0.2-7.4-0.5c-0.9-0.6,0-9-1.1-10.3
		c-1.1-1.3-0.1-0.5-0.1-0.5S778.8,466.2,778.7,466.8z"/>
	<path class="st14" d="M781.2,472.6c0,0,0.5-0.5,0.5-0.7c0-0.2-0.2-0.2-0.4-0.1S780.9,472.6,781.2,472.6z"/>
	<path class="st13" d="M783,465.8c0,0,1.6,2.3,3,2.8s1.6,0.1,2.3,0s1.4,0.7,3.1-0.2c1.7-0.9,3.3-1.5,2.9-2.3c-0.4-0.8-1-1.9-1-1.9
		s0.5-0.7-1.2-0.2C790.5,464.6,782.7,465.5,783,465.8z"/>
	<circle class="st15" cx="789.8" cy="467.3" r="0.7"/>
	<path class="st13" d="M779.9,466.7c0,0,0.4,0.3,0,0.7s-0.5,1.4-1.1,1.7c-0.6,0.3-1.1,0.8-2,0.6c-0.9-0.1-2.1,0.2-3.9-0.3
		c-1.8-0.5-3.6-0.8-3.9-1.2c-0.3-0.3,0.3-0.9,0.3-1.1s-0.1-0.6,0.3-0.9c0.4-0.3,0.9-0.5,1.3-0.3c0.5,0.2,1.5,0.1,1.8,0.2
		c0.3,0.1,0.9,0,1.4,0.2C774.6,466.5,779.9,466.7,779.9,466.7z"/>
	<circle class="st15" cx="773.6" cy="467.6" r="0.7"/>
	<path class="st8" d="M795.7,528.1c0,0-1.7,0.2-1.3,1.2s1.7,1.8,2.3,1.8S796.9,528.2,795.7,528.1z"/>
	<path class="st9" d="M791.4,459.3c0.2,2.5,0.4,3.3,0.2,3.9c-0.2,0.6,0.3,3.4,0.4,4.3c0.1,0.9,1.5,6.6,1.5,6.6s0.5,3.6,0.6,4.1
		s1,2.1,0.7,2.8c-0.3,0.7-1.3,5,1,6.1c2.3,1.2,2.3-0.7,1.7-0.6c-0.5,0.1,4.5-2.7,2.6-5.4s-2.1-2.5-2.2-3.7c-0.1-1.2-0.3-0.7-0.5-2.2
		c-0.2-1.6,0.2-9.1,0-10c-0.2-0.9-1-7-1.6-7.5C795.3,457.3,791.3,458.2,791.4,459.3z"/>
	<path class="st9" d="M812.1,442.2c0,0-0.6-0.3,0-2c0.6-1.6,0.8-3.2-0.3-3.2s-10.4-0.2-9.5,2.6c0.9,2.8,0.4,3.7,0.4,3.7
		S810.6,444.1,812.1,442.2z"/>
	<path class="st9" d="M800.3,433.6c0,0-0.3-0.4-0.7-0.4c-0.4,0-0.8,0.3-0.4,1.5c0.3,1.1,0.9,3.9,1.6,3.8c0.7-0.1,1-0.9,1-0.9
		L800.3,433.6z"/>
	<path class="st9" d="M814.8,433.2c0,0,0.4-0.2,0.5,0.3c0.1,0.5,0.2,2-0.3,2.8c-0.4,0.8-0.9,1.8-1.3,1.8
		C813.2,438.1,813.7,433.3,814.8,433.2z"/>
	<path class="st20" d="M814.8,431.9c0.4-3.7-0.6-7.2-2.8-8.6c-1-0.6-2.5-1-2.5-1c-0.4-0.1-1-0.3-1.9-0.3c-0.2,0-1.2-0.1-2.1,0
		c-1.4,0.1-2.8,0.7-3.7,1.3c-2.3,1.6-2.4,4.9-2.5,6.8c-0.2,4.3,1.4,7.6,2.5,9.5c3.2,2.3,7.5,2.2,10.2-0.1
		C815.5,436.7,814.8,432.2,814.8,431.9z"/>
	<path class="st11" d="M796.9,482.2c0,0,0.2,0.3,0.1,0.7c0,0.4-0.4,3.1-0.5,4c-0.1,0.9-0.3,3.7-0.2,4c0.1,0.4,0,0.5-0.2,0.5
		s-0.1,2.2,0,2.7c0.1,0.5-0.2,0.7-0.1,1.1s-0.2,0.6-0.2,1.2s0.2,3,0.7,5c0.5,2,0.2,2.6,0.2,2.9s0.1,2.2,0.4,3.1
		c0.3,0.9,0,2.3,0.1,2.8c0.2,0.5,0,0.9,0,1.2c0,0.4-0.3,0.8-0.5,1.1c-0.2,0.3-0.3,0.7-0.5,1.8c-0.1,1.1-0.2,1.5-0.3,1.8
		c0,0.3,0,0.7-0.1,0.9c-0.1,0.2-0.4,0.5-0.5,0.9c-0.1,0.4-0.4,0.4-0.5,0.9c-0.1,0.5,0,0.7-0.2,1.1c-0.2,0.4-0.4,0.4-0.1,1
		c0.3,0.6,0.2,1.8,0.3,2.2c0.1,0.4,0.1,1.6,0.7,2.3c0.6,0.7,0.5,1.1,0.4,1.3s-0.2,3.1,0.7,4.1c0.9,0.9,0.6,1,1.2,1.2
		c0.5,0.1,2.8,1.1,3.9,1c1.1,0,3.3-0.5,3.6-1.2s0-1.2,0.3-2.1c0.3-0.9,0.4-3.2,0.5-3.9c0.1-0.8,0.4-1.8,0.4-2.3s1.2-3.4,1.4-4.5
		c0.3-1.1,0.4-2,0-2.7c-0.4-0.7-0.4-1.6-0.4-1.9c0-0.3,0.3-4.5,0.1-5c-0.3-0.5-0.3-1.4-0.1-1.8c0.2-0.4,0.8-2.9,0.8-3.5
		s0.2-1.3,0.3-1.2c0.1,0.1,0.2,1.3,0.2,1.9s0.4,2.1,0.4,2.5s-0.4,1.4-0.1,2.1c0.2,0.7,0.3,1.4,0.3,1.8c0,0.4,0,3,0,3.8
		s0.5,1.9,0.4,2.3c0,0.4-0.2,3.7-0.4,4.3s-0.2,0.8-0.7,0.9s-1,0.5-1.1,1.3c-0.1,0.9-0.2,2-0.1,2.4c0.1,0.4,0.4,1.9,0.7,2.5
		c0.2,0.6-0.4,1.7,0.5,2.4c0.8,0.7,1.5,1,1.9,1.1c0.4,0,1.7,0.2,2.6,0s2.7-0.8,3.3-2s0.8-1.2,1.3-1.8c0.5-0.7,0.6-1.4,0.6-2
		s0.6-2.4,0.9-3.8c0.3-1.4,0.5-4.2,0.4-4.8c0-0.6-1-3.4-0.8-4.2s0-2.4,0.2-3.2s0.3-4.3,0.5-5c0.2-0.7-0.1-3.4-0.3-4.5
		c-0.2-1.1-0.7-3.1-0.3-4.6c0.4-1.5,0.2-4.5,0.2-5s3.9-11.5,3.2-11.9C821.7,479.2,796.7,481.5,796.9,482.2z"/>
	<path class="st17" d="M823.1,459.3c0,0,0.8,4.3,0.9,5c0.1,0.7,0.2,1.7,0.3,2.4c0.1,0.7,0.3,2.9,0.3,4s-0.4,4.9-0.5,5.6
		c-0.1,0.6,0,3.6-0.3,4.1c-0.3,0.5-2.1,4.3-2.2,4.8c0,0.5-0.3,2.8-0.6,3.4c-0.3,0.6-0.9,2.3-1.3,2.3s-0.9-1.3-0.6-2.6
		c0.3-1.3,1.1-8,1.7-8.1c0.6-0.1-1-10.3-1-10.3l-1.9-6.4C818.2,463.6,816.6,456.5,823.1,459.3z"/>
	<path class="st21" d="M820.8,480c0,0-2.7,1-7.2,2.1c-4.4,1-14,1.9-15.9,0.5l-0.8-0.5c0,0-0.3-2.3,0.4-3.5s0.1-1.8-0.2-3
		c-0.3-1.2-0.1-1.7-0.3-2.8c-0.2-1.1-0.1-2.7,0.6-4.2c0.7-1.5,0.6-2,0.4-3.6c-0.2-1.5-0.6-4.5-0.6-4.5c0,0.4,0,0.8,0,1.1
		c-2.5-0.2-6.3-0.8-6.7-2.5c0-0.2,0-0.3,0.2-2.2c0.2-1.3,0.3-2.3,0.4-2.9c0.4-1.9,0.5-5,2.7-6.6c0.6-0.4,5.5-3.7,6.2-3.6
		s1.7-1.3,2.2-1.3s6,0.7,9.2-0.4c0,0,1.2-0.5,1.2-0.4c0.1,0.2,2.3,1.2,3,1.3c0.7,0.1,4.8,1.6,5.4,3.3c0.6,1.7,1,5.2,1.9,7.2
		s0,3.4,0.7,5.7c0,0-3.7,0.9-4,0.9c-0.3,0-0.3-2.6-0.3-3.2c-0.1-0.6,0.6,4.5,0.4,5.7c-0.2,1.2-1.2,2.7-1.1,3.5
		c0.2,0.8-1,2.3-0.1,4.4c0.9,2.1,3.2,9.1,3.2,9.1L820.8,480z"/>
	<path class="st19" d="M811,484.1c0,0,0,8,0,8.5c0,0.5-0.8,3-0.2,3.3c0.7,0.2,6.5,0.7,7.4,0.2s0.9-9,2-10.1c1.2-1.2,0.1-0.5,0.1-0.5
		S811,483.5,811,484.1z"/>
	<path class="st13" d="M806.3,484.5c0,0-0.8,8-0.8,8.4c0,0.5,0.5,3.1-0.1,3.3s-6.5,0.2-7.4-0.5s0-9-1.1-10.3
		c-1.1-1.3-0.1-0.5-0.1-0.5S806.4,484,806.3,484.5z"/>
	<path class="st14" d="M808.7,490.4c0,0,0.5-0.5,0.5-0.7c0-0.2-0.2-0.2-0.4-0.1C808.6,489.5,808.4,490.4,808.7,490.4z"/>
	<path class="st19" d="M810.6,483.6c0,0,1.6,2.3,3,2.8s1.6,0.1,2.3,0c0.7-0.1,1.4,0.7,3.1-0.2c1.7-0.9,3.3-1.5,2.9-2.3
		c-0.4-0.8-1-1.9-1-1.9s0.5-0.7-1.2-0.2C818.1,482.3,810.3,483.2,810.6,483.6z"/>
	<circle class="st15" cx="817.3" cy="485.1" r="0.7"/>
	<path class="st13" d="M807.4,484.4c0,0,0.4,0.3,0,0.7c-0.4,0.4-0.5,1.4-1.1,1.7c-0.6,0.3-1.1,0.8-2,0.6c-0.9-0.1-2.1,0.2-3.9-0.3
		c-1.8-0.5-3.6-0.8-3.9-1.2c-0.3-0.3,0.3-0.9,0.3-1.1s-0.1-0.6,0.3-0.9s0.9-0.5,1.3-0.3c0.5,0.2,1.5,0.1,1.8,0.2
		c0.3,0.1,0.9,0,1.4,0.2C802.2,484.2,807.4,484.4,807.4,484.4z"/>
	<circle class="st15" cx="801.2" cy="485.4" r="0.7"/>
	<path class="st8" d="M807.7,542.8c0,0-1.7,0.2-1.3,1.2c0.4,1,1.7,1.8,2.3,1.8C809.3,545.7,808.9,542.8,807.7,542.8z"/>
	<path class="st17" d="M803.4,474c0.2,2.5,0.4,3.3,0.2,3.9c-0.2,0.6,0.3,3.4,0.4,4.3c0.1,0.9,1.5,6.6,1.5,6.6s0.5,3.6,0.6,4.1
		c0,0.4,1,2.1,0.7,2.8c-0.3,0.7-1.3,5,1,6.1s2.3-0.7,1.7-0.6c-0.5,0.1,4.5-2.7,2.6-5.4c-1.9-2.7-2.1-2.5-2.2-3.7
		c-0.1-1.2-0.3-0.7-0.5-2.2c-0.2-1.6,0.2-9.1,0-10s-1-7-1.6-7.5S803.3,472.8,803.4,474z"/>
	<path class="st17" d="M824,456.9c0,0-0.6-0.3,0-2c0.6-1.6,0.8-3.2-0.3-3.2s-10.4-0.2-9.5,2.6c0.9,2.8,0.4,3.7,0.4,3.7
		S822.5,458.8,824,456.9z"/>
	<path class="st17" d="M812.2,448.2c0,0-0.3-0.4-0.7-0.4c-0.4,0-0.8,0.3-0.4,1.5c0.3,1.1,0.9,3.9,1.6,3.8c0.7-0.1,1-0.9,1-0.9
		L812.2,448.2z"/>
	<path class="st17" d="M826.7,447.8c0,0,0.4-0.2,0.5,0.3c0.1,0.5,0.2,2-0.3,2.8c-0.4,0.8-0.9,1.8-1.3,1.8S825.6,448,826.7,447.8z"/>
	<path class="st10" d="M826.7,446.6c0.4-3.7-0.6-7.2-2.8-8.6c-1-0.6-2.5-1-2.5-1c-0.4-0.1-1-0.3-1.9-0.3c-0.2,0-1.2-0.1-2.1,0
		c-1.4,0.1-2.8,0.7-3.7,1.3c-2.3,1.6-2.4,4.9-2.5,6.8c-0.2,4.3,1.4,7.6,2.5,9.5c3.2,2.3,7.5,2.2,10.2-0.1
		C827.4,451.4,826.8,446.8,826.7,446.6z"/>
	<path class="st22" d="M808.8,496.9c0,0,0.2,0.3,0.1,0.7c0,0.4-0.4,3.1-0.5,4c-0.1,0.9-0.3,3.7-0.2,4s0,0.5-0.2,0.5s-0.1,2.2,0,2.7
		c0.1,0.5-0.2,0.7-0.1,1.1c0,0.3-0.2,0.6-0.2,1.2c0,0.6,0.2,3,0.7,5s0.2,2.6,0.2,2.9c0,0.3,0.1,2.2,0.4,3.1c0.3,0.9,0,2.3,0.1,2.8
		c0.2,0.5,0,0.9,0,1.2c0,0.4-0.3,0.8-0.5,1.1c-0.2,0.3-0.3,0.7-0.5,1.8c-0.1,1.1-0.2,1.5-0.3,1.8c0,0.3,0,0.7-0.1,0.9
		c-0.1,0.2-0.4,0.5-0.5,0.9s-0.4,0.4-0.5,0.9c-0.1,0.5,0,0.7-0.2,1.1c-0.2,0.4-0.4,0.4-0.1,1c0.3,0.6,0.2,1.8,0.3,2.2
		c0.1,0.4,0.1,1.6,0.7,2.3c0.6,0.7,0.5,1.1,0.4,1.3s-0.2,3.1,0.7,4.1c0.9,0.9,0.6,1,1.2,1.2c0.5,0.1,2.8,1.1,3.9,1
		c1.1,0,3.3-0.5,3.6-1.2c0.3-0.6,0-1.2,0.3-2.1c0.3-0.9,0.4-3.2,0.5-3.9s0.4-1.8,0.4-2.3c0-0.5,1.2-3.4,1.4-4.5c0.3-1.1,0.4-2,0-2.7
		c-0.4-0.7-0.4-1.6-0.4-1.9c0-0.3,0.3-4.5,0.1-5s-0.3-1.4-0.1-1.8s0.8-2.9,0.8-3.5c0.1-0.6,0.2-1.3,0.3-1.2c0.1,0.1,0.2,1.3,0.2,1.9
		s0.4,2.1,0.4,2.5s-0.4,1.4-0.1,2.1s0.3,1.4,0.3,1.8c0,0.4,0,3,0,3.8c0,0.8,0.5,1.9,0.4,2.3c0,0.4-0.2,3.7-0.4,4.3
		c-0.2,0.7-0.2,0.8-0.7,0.9s-1,0.5-1.1,1.3c-0.1,0.9-0.2,2-0.1,2.4c0.1,0.4,0.4,1.9,0.7,2.5c0.2,0.6-0.4,1.7,0.5,2.4
		c0.8,0.7,1.5,1,1.9,1.1c0.4,0,1.7,0.2,2.6,0c0.9-0.2,2.7-0.8,3.3-2c0.6-1.3,0.8-1.2,1.3-1.8s0.6-1.4,0.6-2s0.6-2.4,0.9-3.8
		c0.3-1.4,0.5-4.2,0.4-4.8c0-0.6-1-3.4-0.8-4.2c0.2-0.8,0-2.4,0.2-3.2s0.3-4.3,0.5-5c0.2-0.7-0.1-3.4-0.3-4.5
		c-0.2-1.1-0.7-3.1-0.3-4.6c0.4-1.5,0.2-4.5,0.2-5s3.9-11.5,3.2-11.9C833.7,493.8,808.7,496.2,808.8,496.9z"/>
	<path class="st17" d="M835.1,474c0,0,0.8,4.3,0.9,5c0.1,0.7,0.2,1.7,0.3,2.4s0.3,2.9,0.3,4s-0.4,4.9-0.5,5.6
		c-0.1,0.6,0,3.6-0.3,4.1c-0.3,0.5-2.1,4.3-2.2,4.8c0,0.5-0.3,2.8-0.6,3.4c-0.3,0.6-0.9,2.3-1.3,2.3s-0.9-1.3-0.6-2.6s1.1-8,1.7-8.1
		c0.6-0.1-1-10.3-1-10.3l-1.9-6.4C830.1,478.2,828.5,471.2,835.1,474z"/>
	<path class="st12" d="M832.8,494.7c0,0-2.7,1-7.2,2.1c-4.4,1-14,1.9-15.9,0.5l-0.8-0.5c0,0-0.3-2.3,0.4-3.5c0.7-1.2,0.1-1.8-0.2-3
		c-0.3-1.2-0.1-1.7-0.3-2.8c-0.2-1.1-0.1-2.7,0.6-4.2c0.7-1.5,0.6-2,0.4-3.6s-0.6-4.5-0.6-4.5c0,0.4,0,0.8,0,1.1
		c-2.5-0.2-6.3-0.8-6.7-2.5c0-0.2,0-0.3,0.2-2.2c0.2-1.3,0.3-2.3,0.4-2.9c0.4-1.9,0.5-5,2.7-6.6c0.6-0.4,5.5-3.7,6.2-3.6
		s1.7-1.3,2.2-1.3c0.5,0.1,6,0.7,9.2-0.4c0,0,1.2-0.5,1.2-0.4c0.1,0.2,2.3,1.2,3,1.3c0.7,0.1,4.8,1.6,5.4,3.3c0.6,1.7,1,5.2,1.9,7.2
		c0.9,2,0,3.4,0.7,5.7c0,0-3.7,0.9-4,0.9c-0.3,0-0.3-2.6-0.3-3.2c-0.1-0.6,0.6,4.5,0.4,5.7c-0.2,1.2-1.2,2.7-1.1,3.5
		c0.2,0.8-1,2.3-0.1,4.4c0.9,2.1,3.2,9.1,3.2,9.1L832.8,494.7z"/>
	<path class="st23" d="M823,498.8c0,0,0,8,0,8.5c0,0.5-0.8,3-0.2,3.3s6.5,0.7,7.4,0.2c0.9-0.6,0.9-9,2-10.1c1.2-1.2,0.1-0.5,0.1-0.5
		S823,498.2,823,498.8z"/>
	<path class="st23" d="M818.3,499.2c0,0-0.8,8-0.8,8.4c0,0.5,0.5,3.1-0.1,3.3s-6.5,0.2-7.4-0.5s0-9-1.1-10.3s-0.1-0.5-0.1-0.5
		S818.3,498.6,818.3,499.2z"/>
	<path class="st14" d="M820.7,505c0,0,0.5-0.5,0.5-0.7c0-0.2-0.2-0.2-0.4-0.1C820.6,504.2,820.4,505.1,820.7,505z"/>
	<path class="st23" d="M822.6,498.3c0,0,1.6,2.3,3,2.8s1.6,0.1,2.3,0c0.7-0.1,1.4,0.7,3.1-0.2c1.7-0.9,3.3-1.5,2.9-2.3
		c-0.4-0.8-1-1.9-1-1.9s0.5-0.7-1.2-0.2C830,497,822.3,497.9,822.6,498.3z"/>
	<circle class="st24" cx="829.3" cy="499.7" r="0.7"/>
	<path class="st23" d="M819.4,499.1c0,0,0.4,0.3,0,0.7c-0.4,0.4-0.5,1.4-1.1,1.7c-0.6,0.3-1.1,0.8-2,0.6s-2.1,0.2-3.9-0.3
		c-1.8-0.5-3.6-0.8-3.9-1.2c-0.3-0.3,0.3-0.9,0.3-1.1c0.1-0.2-0.1-0.6,0.3-0.9c0.4-0.3,0.9-0.5,1.3-0.3c0.5,0.2,1.5,0.1,1.8,0.2
		s0.9,0,1.4,0.2C814.2,498.9,819.4,499.1,819.4,499.1z"/>
	<circle class="st24" cx="813.2" cy="500" r="0.7"/>
	<path class="st17" d="M681.9,238.9c0.2,2.5,0.4,3.3,0.2,3.9c-0.2,0.6,0.3,3.4,0.4,4.3c0.1,0.9,1.5,6.6,1.5,6.6s0.5,3.6,0.6,4.1
		c0,0.4,1,2.1,0.7,2.8s-1.3,5,1,6.1c2.3,1.2,2.3-0.7,1.7-0.6c-0.5,0.1,4.5-2.7,2.6-5.4s-2.1-2.5-2.2-3.7s-0.3-0.7-0.5-2.2
		c-0.2-1.6,0.2-9.1,0-10s-1-7-1.6-7.5C685.8,236.9,681.8,237.8,681.9,238.9z"/>
	<path class="st17" d="M702.5,221.8c0,0-0.6-0.3,0-2c0.6-1.6,0.8-3.2-0.3-3.2s-10.4-0.2-9.5,2.6c0.9,2.8,0.4,3.7,0.4,3.7
		S701,223.7,702.5,221.8z"/>
	<path class="st17" d="M690.7,213.2c0,0-0.3-0.4-0.7-0.4s-0.8,0.3-0.4,1.5c0.3,1.1,0.9,3.9,1.6,3.8c0.7-0.1,1-0.9,1-0.9L690.7,213.2
		z"/>
	<path class="st17" d="M705.2,212.8c0,0,0.4-0.2,0.5,0.3c0.1,0.5,0.2,2-0.3,2.8c-0.4,0.8-0.9,1.8-1.3,1.8
		C703.7,217.7,704.1,212.9,705.2,212.8z"/>
	<path class="st10" d="M705.2,211.6c0.4-3.7-0.6-7.2-2.8-8.6c-1-0.6-2.5-1-2.5-1c-0.4-0.1-1-0.3-1.9-0.3c-0.2,0-1.2-0.1-2.1,0
		c-1.4,0.1-2.8,0.7-3.7,1.3c-2.3,1.6-2.4,4.9-2.5,6.8c-0.2,4.3,1.4,7.6,2.5,9.5c3.2,2.3,7.5,2.2,10.2-0.1
		C705.9,216.4,705.3,211.8,705.2,211.6z"/>
	<path class="st11" d="M687.3,261.9c0,0,0.2,0.3,0.1,0.7s-0.4,3.1-0.5,4c-0.1,0.9-0.3,3.7-0.2,4c0.1,0.4,0,0.5-0.2,0.5
		s-0.1,2.2,0,2.7s-0.2,0.7-0.1,1.1c0,0.3-0.2,0.6-0.2,1.2s0.2,3,0.7,5c0.5,2,0.2,2.6,0.2,2.9c0,0.3,0.1,2.2,0.4,3.1s0,2.3,0.1,2.8
		c0.2,0.5,0,0.9,0,1.2c0,0.4-0.3,0.8-0.5,1.1s-0.3,0.7-0.5,1.8c-0.1,1.1-0.2,1.5-0.3,1.8s0,0.7-0.1,0.9c-0.1,0.2-0.4,0.5-0.5,0.9
		c-0.1,0.4-0.4,0.4-0.5,0.9s0,0.7-0.2,1.1c-0.2,0.4-0.4,0.4-0.1,1c0.3,0.6,0.2,1.8,0.3,2.2c0.1,0.4,0.1,1.6,0.7,2.3
		c0.6,0.7,0.5,1.1,0.4,1.3s-0.2,3.1,0.7,4.1s0.6,1,1.2,1.2c0.5,0.1,2.8,1.1,3.9,1c1.1,0,3.3-0.5,3.6-1.2s0-1.2,0.3-2.1
		c0.3-0.9,0.4-3.2,0.5-3.9c0.1-0.8,0.4-1.8,0.4-2.3c0-0.5,1.2-3.4,1.4-4.5c0.3-1.1,0.4-2,0-2.7c-0.4-0.7-0.4-1.6-0.4-1.9
		c0-0.3,0.3-4.5,0.1-5c-0.3-0.5-0.3-1.4-0.1-1.8c0.2-0.4,0.8-2.9,0.8-3.5s0.2-1.3,0.3-1.2c0.1,0.1,0.2,1.3,0.2,1.9
		c0,0.6,0.4,2.1,0.4,2.5s-0.4,1.4-0.1,2.1c0.2,0.7,0.3,1.4,0.3,1.8s0,3,0,3.8s0.5,1.9,0.4,2.3c0,0.4-0.2,3.7-0.4,4.3
		s-0.2,0.8-0.7,0.9s-1,0.5-1.1,1.3c-0.1,0.9-0.2,2-0.1,2.4c0.1,0.4,0.4,1.9,0.7,2.5c0.2,0.6-0.4,1.7,0.5,2.4c0.8,0.7,1.5,1,1.9,1.1
		c0.4,0,1.7,0.2,2.6,0s2.7-0.8,3.3-2c0.6-1.3,0.8-1.2,1.3-1.8c0.5-0.7,0.6-1.4,0.6-2c-0.1-0.6,0.6-2.4,0.9-3.8
		c0.3-1.4,0.5-4.2,0.4-4.8c0-0.6-1-3.4-0.8-4.2c0.2-0.8,0-2.4,0.2-3.2s0.3-4.3,0.5-5c0.2-0.7-0.1-3.4-0.3-4.5
		c-0.2-1.1-0.7-3.1-0.3-4.6s0.2-4.5,0.2-5s3.9-11.5,3.2-11.9C712.2,258.8,687.2,261.2,687.3,261.9z"/>
	<path class="st17" d="M713.6,238.9c0,0,0.8,4.3,0.9,5c0.1,0.7,0.2,1.7,0.3,2.4s0.3,2.9,0.3,4s-0.4,4.9-0.5,5.6
		c-0.1,0.6,0,3.6-0.3,4.1c-0.3,0.5-2.1,4.3-2.2,4.8c0,0.5-0.3,2.8-0.6,3.4c-0.3,0.6-0.9,2.3-1.3,2.3c-0.4,0.1-0.9-1.3-0.6-2.6
		s1.1-8,1.7-8.1s-1-10.3-1-10.3l-1.9-6.4C708.6,243.2,707,236.1,713.6,238.9z"/>
	<path class="st25" d="M711.3,259.7c0,0-2.7,1-7.2,2.1c-4.4,1-14,1.9-15.9,0.5l-0.8-0.5c0,0-0.3-2.3,0.4-3.5c0.7-1.2,0.1-1.8-0.2-3
		c-0.3-1.2-0.1-1.7-0.3-2.8c-0.2-1.1-0.1-2.7,0.6-4.2c0.7-1.5,0.6-2,0.4-3.6c-0.2-1.5-0.6-4.5-0.6-4.5c0,0.4,0,0.8,0,1.1
		c-2.5-0.2-6.3-0.8-6.7-2.5c0-0.2,0-0.3,0.2-2.2c0.2-1.3,0.3-2.3,0.4-2.9c0.4-1.9,0.5-5,2.7-6.6c0.6-0.4,5.5-3.7,6.2-3.6
		c0.7,0.1,1.7-1.3,2.2-1.3c0.5,0.1,6,0.7,9.2-0.4c0,0,1.2-0.5,1.2-0.4c0.1,0.2,2.3,1.2,3,1.3s4.8,1.6,5.4,3.3c0.6,1.7,1,5.2,1.9,7.2
		c0.9,2,0,3.4,0.7,5.7c0,0-3.7,0.9-4,0.9c-0.3,0-0.3-2.6-0.3-3.2c-0.1-0.6,0.6,4.5,0.4,5.7c-0.2,1.2-1.2,2.7-1.1,3.5
		c0.2,0.8-1,2.3-0.1,4.4s3.2,9.1,3.2,9.1L711.3,259.7z"/>
	<path class="st13" d="M701.5,263.7c0,0,0,8,0,8.5c0,0.5-0.8,3-0.2,3.3c0.7,0.2,6.5,0.7,7.4,0.2s0.9-9,2-10.1
		c1.2-1.2,0.1-0.5,0.1-0.5S701.5,263.2,701.5,263.7z"/>
	<path class="st13" d="M696.8,264.2c0,0-0.8,8-0.8,8.4c0,0.5,0.5,3.1-0.1,3.3c-0.7,0.2-6.5,0.2-7.4-0.5c-0.9-0.6,0-9-1.1-10.3
		c-1.1-1.3-0.1-0.5-0.1-0.5S696.8,263.6,696.8,264.2z"/>
	<path class="st14" d="M699.2,270c0,0,0.5-0.5,0.5-0.7c0-0.2-0.2-0.2-0.4-0.1C699.1,269.2,698.9,270,699.2,270z"/>
	<path class="st13" d="M701.1,263.2c0,0,1.6,2.3,3,2.8s1.6,0.1,2.3,0s1.4,0.7,3.1-0.2c1.7-0.9,3.3-1.5,2.9-2.3c-0.4-0.8-1-1.9-1-1.9
		s0.5-0.7-1.2-0.2S700.8,262.8,701.1,263.2z"/>
	<circle class="st15" cx="707.8" cy="264.7" r="0.7"/>
	<path class="st13" d="M697.9,264c0,0,0.4,0.3,0,0.7c-0.4,0.4-0.5,1.4-1.1,1.7c-0.6,0.3-1.1,0.8-2,0.6c-0.9-0.1-2.1,0.2-3.9-0.3
		c-1.8-0.5-3.6-0.8-3.9-1.2c-0.3-0.3,0.3-0.9,0.3-1.1s-0.1-0.6,0.3-0.9c0.4-0.3,0.9-0.5,1.3-0.3c0.5,0.2,1.5,0.1,1.8,0.2
		c0.3,0.1,0.9,0,1.4,0.2C692.7,263.9,697.9,264,697.9,264z"/>
	<circle class="st15" cx="691.7" cy="265" r="0.7"/>
	<path class="st17" d="M709.4,256.7c0.2,2.5,0.4,3.3,0.2,3.9c-0.2,0.6,0.3,3.4,0.4,4.3c0.1,0.9,1.5,6.6,1.5,6.6s0.5,3.6,0.6,4.1
		s1,2.1,0.7,2.8c-0.3,0.7-1.3,5,1,6.1c2.3,1.2,2.3-0.7,1.7-0.6c-0.5,0.1,4.5-2.7,2.6-5.4s-2.1-2.5-2.2-3.7c-0.1-1.2-0.3-0.7-0.5-2.2
		c-0.2-1.6,0.2-9.1,0-10c-0.2-0.9-1-7-1.6-7.5C713.4,254.6,709.4,255.6,709.4,256.7z"/>
	<path class="st17" d="M730.1,239.6c0,0-0.6-0.3,0-2s0.8-3.2-0.3-3.2s-10.4-0.2-9.5,2.6c0.9,2.8,0.4,3.7,0.4,3.7
		S728.6,241.5,730.1,239.6z"/>
	<path class="st17" d="M718.3,230.9c0,0-0.3-0.4-0.7-0.4c-0.4,0-0.8,0.3-0.4,1.5s0.9,3.9,1.6,3.8s1-0.9,1-0.9L718.3,230.9z"/>
	<path class="st17" d="M732.8,230.5c0,0,0.4-0.2,0.5,0.3c0.1,0.5,0.2,2-0.3,2.8c-0.4,0.8-0.9,1.8-1.3,1.8
		C731.2,235.4,731.7,230.7,732.8,230.5z"/>
	<path class="st11" d="M732.8,229.3c0.4-3.7-0.6-7.2-2.8-8.6c-1-0.6-2.5-1-2.5-1c-0.4-0.1-1-0.3-1.9-0.3c-0.2,0-1.2-0.1-2.1,0
		c-1.4,0.1-2.8,0.7-3.7,1.3c-2.3,1.6-2.4,4.9-2.5,6.8c-0.2,4.3,1.4,7.6,2.5,9.5c3.2,2.3,7.5,2.2,10.2-0.1
		C733.5,234.1,732.8,229.5,732.8,229.3z"/>
	<path class="st22" d="M714.9,279.6c0,0,0.2,0.3,0.1,0.7c0,0.4-0.4,3.1-0.5,4c-0.1,0.9-0.3,3.7-0.2,4c0.1,0.4,0,0.5-0.2,0.5
		c-0.3,0-0.1,2.2,0,2.7s-0.2,0.7-0.1,1.1s-0.2,0.6-0.2,1.2c0,0.6,0.2,3,0.7,5s0.2,2.6,0.2,2.9s0.1,2.2,0.4,3.1
		c0.3,0.9,0,2.3,0.1,2.8c0.2,0.5,0,0.9,0,1.2c0,0.4-0.3,0.8-0.5,1.1c-0.2,0.3-0.3,0.7-0.5,1.8c-0.1,1.1-0.2,1.5-0.3,1.8
		c0,0.3,0,0.7-0.1,0.9s-0.4,0.5-0.5,0.9c-0.1,0.4-0.4,0.4-0.5,0.9s0,0.7-0.2,1.1c-0.2,0.4-0.4,0.4-0.1,1c0.3,0.6,0.2,1.8,0.3,2.2
		c0.1,0.4,0.1,1.6,0.7,2.3c0.6,0.7,0.5,1.1,0.4,1.3c-0.1,0.2-0.2,3.1,0.7,4.1s0.6,1,1.2,1.2c0.5,0.1,2.8,1.1,3.9,1
		c1.1,0,3.3-0.5,3.6-1.2s0-1.2,0.3-2.1c0.3-0.9,0.4-3.2,0.5-3.9c0.1-0.8,0.4-1.8,0.4-2.3c0-0.5,1.2-3.4,1.4-4.5s0.4-2,0-2.7
		c-0.4-0.7-0.4-1.6-0.4-1.9c0-0.3,0.3-4.5,0.1-5s-0.3-1.4-0.1-1.8s0.8-2.9,0.8-3.5s0.2-1.3,0.3-1.2c0.1,0.1,0.2,1.3,0.2,1.9
		c0,0.6,0.4,2.1,0.4,2.5s-0.4,1.4-0.1,2.1c0.2,0.7,0.3,1.4,0.3,1.8s0,3,0,3.8c0,0.8,0.5,1.9,0.4,2.3c0,0.4-0.2,3.7-0.4,4.3
		s-0.2,0.8-0.7,0.9s-1,0.5-1.1,1.3c-0.1,0.9-0.2,2-0.1,2.4c0.1,0.4,0.4,1.9,0.7,2.5c0.2,0.6-0.4,1.7,0.5,2.4c0.8,0.7,1.5,1,1.9,1.1
		s1.7,0.2,2.6,0s2.7-0.8,3.3-2c0.6-1.3,0.8-1.2,1.3-1.8c0.5-0.7,0.6-1.4,0.6-2c-0.1-0.6,0.6-2.4,0.9-3.8s0.5-4.2,0.4-4.8
		c0-0.6-1-3.4-0.8-4.2c0.2-0.8,0-2.4,0.2-3.2c0.3-0.8,0.3-4.3,0.5-5c0.2-0.7-0.1-3.4-0.3-4.5c-0.2-1.1-0.7-3.1-0.3-4.6
		c0.4-1.5,0.2-4.5,0.2-5c0-0.5,3.9-11.5,3.2-11.9C739.8,276.6,714.8,278.9,714.9,279.6z"/>
	<path class="st17" d="M741.2,256.7c0,0,0.8,4.3,0.9,5s0.2,1.7,0.3,2.4c0.1,0.7,0.3,2.9,0.3,4s-0.4,4.9-0.5,5.6
		c-0.1,0.6,0,3.6-0.3,4.1c-0.3,0.5-2.1,4.3-2.2,4.8c0,0.5-0.3,2.8-0.6,3.4c-0.3,0.6-0.9,2.3-1.3,2.3s-0.9-1.3-0.6-2.6
		c0.3-1.3,1.1-8,1.7-8.1c0.6-0.1-1-10.3-1-10.3l-1.9-6.4C736.2,261,734.6,253.9,741.2,256.7z"/>
	<path class="st18" d="M738.8,277.4c0,0-2.7,1-7.2,2.1c-4.4,1-14,1.9-15.9,0.5l-0.8-0.5c0,0-0.3-2.3,0.4-3.5s0.1-1.8-0.2-3
		c-0.3-1.2-0.1-1.7-0.3-2.8c-0.2-1.1-0.1-2.7,0.6-4.2c0.7-1.5,0.6-2,0.4-3.6c-0.2-1.5-0.6-4.5-0.6-4.5c0,0.4,0,0.8,0,1.1
		c-2.5-0.2-6.3-0.8-6.7-2.5c0-0.2,0-0.3,0.2-2.2c0.2-1.3,0.3-2.3,0.4-2.9c0.4-1.9,0.5-5,2.7-6.6c0.6-0.4,5.5-3.7,6.2-3.6
		s1.7-1.3,2.2-1.3c0.5,0.1,6,0.7,9.2-0.4c0,0,1.2-0.5,1.2-0.4c0.1,0.2,2.3,1.2,3,1.3s4.8,1.6,5.4,3.3c0.6,1.7,1,5.2,1.9,7.2
		c0.9,2,0,3.4,0.7,5.7c0,0-3.7,0.9-4,0.9c-0.3,0-0.3-2.6-0.3-3.2c-0.1-0.6,0.6,4.5,0.4,5.7c-0.2,1.2-1.2,2.7-1.1,3.5
		c0.2,0.8-1,2.3-0.1,4.4c0.9,2.1,3.2,9.1,3.2,9.1L738.8,277.4z"/>
	<path class="st23" d="M729,281.5c0,0,0,8,0,8.5c0,0.5-0.8,3-0.2,3.3c0.7,0.2,6.5,0.7,7.4,0.2c0.9-0.6,0.9-9,2-10.1
		c1.2-1.2,0.1-0.5,0.1-0.5S729,280.9,729,281.5z"/>
	<path class="st23" d="M724.4,281.9c0,0-0.8,8-0.8,8.4s0.5,3.1-0.1,3.3c-0.7,0.2-6.5,0.2-7.4-0.5s0-9-1.1-10.3
		c-1.1-1.3-0.1-0.5-0.1-0.5S724.4,281.4,724.4,281.9z"/>
	<path class="st14" d="M726.8,287.7c0,0,0.5-0.5,0.5-0.7s-0.2-0.2-0.4-0.1S726.5,287.8,726.8,287.7z"/>
	<path class="st23" d="M725.5,281.8c0,0,0.4,0.3,0,0.7c-0.4,0.4-0.5,1.4-1.1,1.7c-0.6,0.3-1.1,0.8-2,0.6c-0.9-0.1-2.1,0.2-3.9-0.3
		c-1.8-0.5-3.6-0.8-3.9-1.2c-0.3-0.3,0.3-0.9,0.3-1.1s-0.1-0.6,0.3-0.9s0.9-0.5,1.3-0.3c0.5,0.2,1.5,0.1,1.8,0.2
		c0.3,0.1,0.9,0,1.4,0.2C720.3,281.6,725.5,281.8,725.5,281.8z"/>
	<circle class="st24" cx="719.3" cy="282.8" r="0.7"/>
	<path class="st17" d="M727.9,274c0.2,2.5,0.4,3.3,0.2,3.9c-0.2,0.6,0.3,3.4,0.4,4.3c0.1,0.9,1.5,6.6,1.5,6.6s0.5,3.6,0.6,4.1
		s1,2.1,0.7,2.8c-0.3,0.7-1.3,5,1,6.1c2.3,1.2,2.3-0.7,1.7-0.6c-0.5,0.1,4.5-2.7,2.6-5.4c-1.9-2.7-2.1-2.5-2.2-3.7s-0.3-0.7-0.5-2.2
		c-0.2-1.6,0.2-9.1,0-10c-0.2-0.9-1-7-1.6-7.5C731.8,271.9,727.8,272.9,727.9,274z"/>
	<path class="st17" d="M748.6,256.9c0,0-0.6-0.3,0-2c0.6-1.6,0.8-3.2-0.3-3.2c-1.1,0-10.4-0.2-9.5,2.6c0.9,2.8,0.4,3.7,0.4,3.7
		S747.1,258.8,748.6,256.9z"/>
	<path class="st17" d="M736.8,248.2c0,0-0.3-0.4-0.7-0.4s-0.8,0.3-0.4,1.5s0.9,3.9,1.6,3.8c0.7-0.1,1-0.9,1-0.9L736.8,248.2z"/>
	<path class="st17" d="M751.2,247.8c0,0,0.4-0.2,0.5,0.3c0.1,0.5,0.2,2-0.3,2.8c-0.4,0.8-0.9,1.8-1.3,1.8
		C749.7,252.7,750.2,248,751.2,247.8z"/>
	<path class="st11" d="M751.3,246.6c0.4-3.7-0.6-7.2-2.8-8.6c-1-0.6-2.5-1-2.5-1c-0.4-0.1-1-0.3-1.9-0.3c-0.2,0-1.2-0.1-2.1,0
		c-1.4,0.1-2.8,0.7-3.7,1.3c-2.3,1.6-2.4,4.9-2.5,6.8c-0.2,4.3,1.4,7.6,2.5,9.5c3.2,2.3,7.5,2.2,10.2-0.1
		C751.9,251.4,751.3,246.8,751.3,246.6z"/>
	<path class="st11" d="M733.3,296.9c0,0,0.2,0.3,0.1,0.7s-0.4,3.1-0.5,4c-0.1,0.9-0.3,3.7-0.2,4c0.1,0.4,0,0.5-0.2,0.5
		s-0.1,2.2,0,2.7s-0.2,0.7-0.1,1.1c0,0.3-0.2,0.6-0.2,1.2c0,0.6,0.2,3,0.7,5s0.2,2.6,0.2,2.9s0.1,2.2,0.4,3.1s0,2.3,0.1,2.8
		c0.2,0.5,0,0.9,0,1.2c0,0.4-0.3,0.8-0.5,1.1c-0.2,0.3-0.3,0.7-0.5,1.8c-0.1,1.1-0.2,1.5-0.3,1.8c0,0.3,0,0.7-0.1,0.9
		c-0.1,0.2-0.4,0.5-0.5,0.9c-0.1,0.4-0.4,0.4-0.5,0.9c-0.1,0.5,0,0.7-0.2,1.1c-0.2,0.4-0.4,0.4-0.1,1c0.3,0.6,0.2,1.8,0.3,2.2
		c0.1,0.4,0.1,1.6,0.7,2.3s0.5,1.1,0.4,1.3c-0.1,0.2-0.2,3.1,0.7,4.1c0.9,0.9,0.6,1,1.2,1.2c0.5,0.1,2.8,1.1,3.9,1
		c1.1,0,3.3-0.5,3.6-1.2s0-1.2,0.3-2.1c0.3-0.9,0.4-3.2,0.5-3.9c0.1-0.8,0.4-1.8,0.4-2.3c0-0.5,1.2-3.4,1.4-4.5c0.3-1.1,0.4-2,0-2.7
		c-0.4-0.7-0.4-1.6-0.4-1.9c0-0.3,0.3-4.5,0.1-5c-0.3-0.5-0.3-1.4-0.1-1.8c0.2-0.4,0.8-2.9,0.8-3.5c0.1-0.6,0.2-1.3,0.3-1.2
		s0.2,1.3,0.2,1.9s0.4,2.1,0.4,2.5s-0.4,1.4-0.1,2.1c0.2,0.7,0.3,1.4,0.3,1.8c0,0.4,0,3,0,3.8c0,0.8,0.5,1.9,0.4,2.3
		c0,0.4-0.2,3.7-0.4,4.3c-0.2,0.7-0.2,0.8-0.7,0.9c-0.5,0.1-1,0.5-1.1,1.3c-0.1,0.9-0.2,2-0.1,2.4c0.1,0.4,0.4,1.9,0.7,2.5
		s-0.4,1.7,0.5,2.4c0.8,0.7,1.5,1,1.9,1.1s1.7,0.2,2.6,0s2.7-0.8,3.3-2c0.6-1.3,0.8-1.2,1.3-1.8c0.5-0.7,0.6-1.4,0.6-2
		c-0.1-0.6,0.6-2.4,0.9-3.8c0.3-1.4,0.5-4.2,0.4-4.8c0-0.6-1-3.4-0.8-4.2c0.2-0.8,0-2.4,0.2-3.2c0.3-0.8,0.3-4.3,0.5-5
		c0.2-0.7-0.1-3.4-0.3-4.5c-0.2-1.1-0.7-3.1-0.3-4.6s0.2-4.5,0.2-5c0-0.5,3.9-11.5,3.2-11.9C758.2,293.9,733.2,296.2,733.3,296.9z"
		/>
	<path class="st17" d="M759.6,274c0,0,0.8,4.3,0.9,5c0.1,0.7,0.2,1.7,0.3,2.4c0.1,0.7,0.3,2.9,0.3,4s-0.4,4.9-0.5,5.6s0,3.6-0.3,4.1
		c-0.3,0.5-2.1,4.3-2.2,4.8s-0.3,2.8-0.6,3.4s-0.9,2.3-1.3,2.3c-0.4,0.1-0.9-1.3-0.6-2.6s1.1-8,1.7-8.1c0.6-0.1-1-10.3-1-10.3
		l-1.9-6.4C754.7,278.2,753.1,271.2,759.6,274z"/>
	<path class="st12" d="M757.3,294.7c0,0-2.7,1-7.2,2.1c-4.4,1-14,1.9-15.9,0.5l-0.8-0.5c0,0-0.3-2.3,0.4-3.5s0.1-1.8-0.2-3
		c-0.3-1.2-0.1-1.7-0.3-2.8c-0.2-1.1-0.1-2.7,0.6-4.2c0.7-1.5,0.6-2,0.4-3.6c-0.2-1.5-0.6-4.5-0.6-4.5c0,0.4,0,0.8,0,1.1
		c-2.5-0.2-6.3-0.8-6.7-2.5c0-0.2,0-0.3,0.2-2.2c0.2-1.3,0.3-2.3,0.4-2.9c0.4-1.9,0.5-5,2.7-6.6c0.6-0.4,5.5-3.7,6.2-3.6
		c0.7,0.1,1.7-1.3,2.2-1.3c0.5,0.1,6,0.7,9.2-0.4c0,0,1.2-0.5,1.2-0.4c0.1,0.2,2.3,1.2,3,1.3c0.7,0.1,4.8,1.6,5.4,3.3
		c0.6,1.7,1,5.2,1.9,7.2c0.9,2,0,3.4,0.7,5.7c0,0-3.7,0.9-4,0.9c-0.3,0-0.3-2.6-0.3-3.2c-0.1-0.6,0.6,4.5,0.4,5.7
		c-0.2,1.2-1.2,2.7-1.1,3.5c0.2,0.8-1,2.3-0.1,4.4c0.9,2.1,3.2,9.1,3.2,9.1L757.3,294.7z"/>
	<path class="st13" d="M747.5,298.8c0,0,0,8,0,8.5s-0.8,3-0.2,3.3c0.7,0.2,6.5,0.7,7.4,0.2c0.9-0.6,0.9-9,2-10.1
		c1.2-1.2,0.1-0.5,0.1-0.5S747.5,298.2,747.5,298.8z"/>
	<path class="st13" d="M742.8,299.2c0,0-0.8,8-0.8,8.4c0,0.5,0.5,3.1-0.1,3.3c-0.7,0.2-6.5,0.2-7.4-0.5c-0.9-0.6,0-9-1.1-10.3
		c-1.1-1.3-0.1-0.5-0.1-0.5S742.9,298.7,742.8,299.2z"/>
	<path class="st14" d="M745.2,305c0,0,0.5-0.5,0.5-0.7c0-0.2-0.2-0.2-0.4-0.1C745.1,304.2,744.9,305.1,745.2,305z"/>
	<path class="st13" d="M747.1,298.3c0,0,1.6,2.3,3,2.8c1.3,0.5,1.6,0.1,2.3,0c0.7-0.1,1.4,0.7,3.1-0.2c1.7-0.9,3.3-1.5,2.9-2.3
		c-0.4-0.8-1-1.9-1-1.9s0.5-0.7-1.2-0.2C754.5,297,746.8,297.9,747.1,298.3z"/>
	<circle class="st15" cx="753" cy="299.4" r="0.7"/>
	<path class="st13" d="M743.9,299.1c0,0,0.4,0.3,0,0.7s-0.5,1.4-1.1,1.7c-0.6,0.3-1.1,0.8-2,0.6c-0.9-0.1-2.1,0.2-3.9-0.3
		c-1.8-0.5-3.6-0.8-3.9-1.2s0.3-0.9,0.3-1.1c0.1-0.2-0.1-0.6,0.3-0.9s0.9-0.5,1.3-0.3c0.5,0.2,1.5,0.1,1.8,0.2
		c0.3,0.1,0.9,0,1.4,0.2S743.9,299.1,743.9,299.1z"/>
	<circle class="st15" cx="737.7" cy="300.1" r="0.7"/>
	<path class="st8" d="M759.8,360.6c0,0-1.7,0.2-1.3,1.2c0.4,1,1.7,1.8,2.3,1.8C761.4,363.5,761,360.6,759.8,360.6z"/>
	<path class="st17" d="M755.5,291.8c0.2,2.5,0.4,3.3,0.2,3.9c-0.2,0.6,0.3,3.4,0.4,4.3c0.1,0.9,1.5,6.6,1.5,6.6s0.5,3.6,0.6,4.1
		s1,2.1,0.7,2.8s-1.3,5,1,6.1c2.3,1.2,2.3-0.7,1.7-0.6c-0.5,0.1,4.5-2.7,2.6-5.4s-2.1-2.5-2.2-3.7s-0.3-0.7-0.5-2.2
		c-0.2-1.6,0.2-9.1,0-10c-0.2-0.9-1-7-1.6-7.5C759.4,289.7,755.4,290.6,755.5,291.8z"/>
	<path class="st17" d="M776.2,274.6c0,0-0.6-0.3,0-2c0.6-1.6,0.8-3.2-0.3-3.2s-10.4-0.2-9.5,2.6s0.4,3.7,0.4,3.7
		S774.6,276.5,776.2,274.6z"/>
	<path class="st17" d="M764.4,266c0,0-0.3-0.4-0.7-0.4s-0.8,0.3-0.4,1.5c0.3,1.1,0.9,3.9,1.6,3.8c0.7-0.1,1-0.9,1-0.9L764.4,266z"/>
	<path class="st17" d="M778.8,265.6c0,0,0.4-0.2,0.5,0.3c0.1,0.5,0.2,2-0.3,2.8c-0.4,0.8-0.9,1.8-1.3,1.8
		C777.3,270.5,777.8,265.7,778.8,265.6z"/>
	<path class="st11" d="M778.8,264.4c0.4-3.7-0.6-7.2-2.8-8.6c-1-0.6-2.5-1-2.5-1c-0.4-0.1-1-0.3-1.9-0.3c-0.2,0-1.2-0.1-2.1,0
		c-1.4,0.1-2.8,0.7-3.7,1.3c-2.3,1.6-2.4,4.9-2.5,6.8c-0.2,4.3,1.4,7.6,2.5,9.5c3.2,2.3,7.5,2.2,10.2-0.1
		C779.5,269.2,778.9,264.6,778.8,264.4z"/>
	<path class="st11" d="M760.9,314.7c0,0,0.2,0.3,0.1,0.7s-0.4,3.1-0.5,4c-0.1,0.9-0.3,3.7-0.2,4c0.1,0.4,0,0.5-0.2,0.5
		s-0.1,2.2,0,2.7s-0.2,0.7-0.1,1.1c0,0.3-0.2,0.6-0.2,1.2s0.2,3,0.7,5c0.5,2,0.2,2.6,0.2,2.9c0,0.3,0.1,2.2,0.4,3.1
		c0.3,0.9,0,2.3,0.1,2.8c0.2,0.5,0,0.9,0,1.2c0,0.4-0.3,0.8-0.5,1.1c-0.2,0.3-0.3,0.7-0.5,1.8c-0.1,1.1-0.2,1.5-0.3,1.8
		c0,0.3,0,0.7-0.1,0.9c-0.1,0.2-0.4,0.5-0.5,0.9c-0.1,0.4-0.4,0.4-0.5,0.9s0,0.7-0.2,1.1c-0.2,0.4-0.4,0.4-0.1,1
		c0.3,0.6,0.2,1.8,0.3,2.2c0.1,0.4,0.1,1.6,0.7,2.3s0.5,1.1,0.4,1.3s-0.2,3.1,0.7,4.1c0.9,0.9,0.6,1,1.2,1.2c0.5,0.1,2.8,1.1,3.9,1
		c1.1,0,3.3-0.5,3.6-1.2s0-1.2,0.3-2.1s0.4-3.2,0.5-3.9c0.1-0.8,0.4-1.8,0.4-2.3s1.2-3.4,1.4-4.5c0.3-1.1,0.4-2,0-2.7
		c-0.4-0.7-0.4-1.6-0.4-1.9c0-0.3,0.3-4.5,0.1-5c-0.3-0.5-0.3-1.4-0.1-1.8c0.2-0.4,0.8-2.9,0.8-3.5s0.2-1.3,0.3-1.2
		c0.1,0.1,0.2,1.3,0.2,1.9c0,0.6,0.4,2.1,0.4,2.5s-0.4,1.4-0.1,2.1c0.2,0.7,0.3,1.4,0.3,1.8s0,3,0,3.8s0.5,1.9,0.4,2.3
		c0,0.4-0.2,3.7-0.4,4.3c-0.2,0.7-0.2,0.8-0.7,0.9c-0.5,0.1-1,0.5-1.1,1.3s-0.2,2-0.1,2.4c0.1,0.4,0.4,1.9,0.7,2.5s-0.4,1.7,0.5,2.4
		c0.8,0.7,1.5,1,1.9,1.1c0.4,0,1.7,0.2,2.6,0s2.7-0.8,3.3-2c0.6-1.3,0.8-1.2,1.3-1.8c0.5-0.7,0.6-1.4,0.6-2
		c-0.1-0.6,0.6-2.4,0.9-3.8c0.3-1.4,0.5-4.2,0.4-4.8c0-0.6-1-3.4-0.8-4.2c0.2-0.8,0-2.4,0.2-3.2s0.3-4.3,0.5-5
		c0.2-0.7-0.1-3.4-0.3-4.5c-0.2-1.1-0.7-3.1-0.3-4.6s0.2-4.5,0.2-5s3.9-11.5,3.2-11.9C785.8,311.6,760.8,314,760.9,314.7z"/>
	<path class="st17" d="M787.2,291.8c0,0,0.8,4.3,0.9,5c0.1,0.7,0.2,1.7,0.3,2.4c0.1,0.7,0.3,2.9,0.3,4s-0.4,4.9-0.5,5.6
		c-0.1,0.6,0,3.6-0.3,4.1c-0.3,0.5-2.1,4.3-2.2,4.8c0,0.5-0.3,2.8-0.6,3.4c-0.3,0.6-0.9,2.3-1.3,2.3c-0.4,0.1-0.9-1.3-0.6-2.6
		s1.1-8,1.7-8.1s-1-10.3-1-10.3l-1.9-6.4C782.3,296,780.6,288.9,787.2,291.8z"/>
	<path class="st22" d="M784.9,312.5c0,0-2.7,1-7.2,2.1c-4.4,1-14,1.9-15.9,0.5l-0.8-0.5c0,0-0.3-2.3,0.4-3.5c0.7-1.2,0.1-1.8-0.2-3
		c-0.3-1.2-0.1-1.7-0.3-2.8c-0.2-1.1-0.1-2.7,0.6-4.2c0.7-1.5,0.6-2,0.4-3.6c-0.2-1.5-0.6-4.5-0.6-4.5c0,0.4,0,0.8,0,1.1
		c-2.5-0.2-6.3-0.8-6.7-2.5c0-0.2,0-0.3,0.2-2.2c0.2-1.3,0.3-2.3,0.4-2.9c0.4-1.9,0.5-5,2.7-6.6c0.6-0.4,5.5-3.7,6.2-3.6
		c0.7,0.1,1.7-1.3,2.2-1.3c0.5,0.1,6,0.7,9.2-0.4c0,0,1.2-0.5,1.2-0.4c0.1,0.2,2.3,1.2,3,1.3c0.7,0.1,4.8,1.6,5.4,3.3
		c0.6,1.7,1,5.2,1.9,7.2c0.9,2,0,3.4,0.7,5.7c0,0-3.7,0.9-4,0.9c-0.3,0-0.3-2.6-0.3-3.2c-0.1-0.6,0.6,4.5,0.4,5.7
		c-0.2,1.2-1.2,2.7-1.1,3.5c0.2,0.8-1,2.3-0.1,4.4c0.9,2.1,3.2,9.1,3.2,9.1L784.9,312.5z"/>
	<path class="st19" d="M775.1,316.5c0,0,0,8,0,8.5s-0.8,3-0.2,3.3c0.7,0.2,6.5,0.7,7.4,0.2c0.9-0.6,0.9-9,2-10.1
		c1.2-1.2,0.1-0.5,0.1-0.5S775.1,316,775.1,316.5z"/>
	<path class="st13" d="M770.4,317c0,0-0.8,8-0.8,8.4c0,0.5,0.5,3.1-0.1,3.3c-0.7,0.2-6.5,0.2-7.4-0.5c-0.9-0.6,0-9-1.1-10.3
		c-1.1-1.3-0.1-0.5-0.1-0.5S770.5,316.4,770.4,317z"/>
	<path class="st14" d="M772.8,322.8c0,0,0.5-0.5,0.5-0.7c0-0.2-0.2-0.2-0.4-0.1C772.7,322,772.5,322.8,772.8,322.8z"/>
	<path class="st19" d="M774.7,316c0,0,1.6,2.3,3,2.8s1.6,0.1,2.3,0s1.4,0.7,3.1-0.2s3.3-1.5,2.9-2.3c-0.4-0.8-1-1.9-1-1.9
		s0.5-0.7-1.2-0.2S774.4,315.6,774.7,316z"/>
	<circle class="st15" cx="781.4" cy="317.5" r="0.7"/>
	<path class="st13" d="M771.5,316.8c0,0,0.4,0.3,0,0.7s-0.5,1.4-1.1,1.7c-0.6,0.3-1.1,0.8-2,0.6c-0.9-0.1-2.1,0.2-3.9-0.3
		c-1.8-0.5-3.6-0.8-3.9-1.2s0.3-0.9,0.3-1.1c0.1-0.2-0.1-0.6,0.3-0.9s0.9-0.5,1.3-0.3s1.5,0.1,1.8,0.2c0.3,0.1,0.9,0,1.4,0.2
		S771.5,316.8,771.5,316.8z"/>
	<circle class="st15" cx="766.1" cy="317.9" r="0.7"/>
	<path class="st8" d="M771.7,375.2c0,0-1.7,0.2-1.3,1.2c0.4,1,1.7,1.8,2.3,1.8S772.9,375.2,771.7,375.2z"/>
	<path class="st17" d="M767.4,306.4c0.2,2.5,0.4,3.3,0.2,3.9c-0.2,0.6,0.3,3.4,0.4,4.3c0.1,0.9,1.5,6.6,1.5,6.6s0.5,3.6,0.6,4.1
		s1,2.1,0.7,2.8c-0.3,0.7-1.3,5,1,6.1c2.3,1.2,2.3-0.7,1.7-0.6c-0.5,0.1,4.5-2.7,2.6-5.4s-2.1-2.5-2.2-3.7c-0.1-1.2-0.3-0.7-0.5-2.2
		c-0.2-1.6,0.2-9.1,0-10c-0.2-0.9-1-7-1.6-7.5C771.3,304.3,767.3,305.3,767.4,306.4z"/>
	<path class="st17" d="M788.1,289.3c0,0-0.6-0.3,0-2c0.6-1.6,0.8-3.2-0.3-3.2s-10.4-0.2-9.5,2.6c0.9,2.8,0.4,3.7,0.4,3.7
		S786.6,291.2,788.1,289.3z"/>
	<path class="st17" d="M776.3,280.6c0,0-0.3-0.4-0.7-0.4c-0.4,0-0.8,0.3-0.4,1.5c0.3,1.1,0.9,3.9,1.6,3.8c0.7-0.1,1-0.9,1-0.9
		L776.3,280.6z"/>
	<path class="st17" d="M790.8,280.2c0,0,0.4-0.2,0.5,0.3c0.1,0.5,0.2,2-0.3,2.8c-0.4,0.8-0.9,1.8-1.3,1.8
		C789.2,285.1,789.7,280.4,790.8,280.2z"/>
	<path class="st10" d="M790.8,279c0.4-3.7-0.6-7.2-2.8-8.6c-1-0.6-2.5-1-2.5-1c-0.4-0.1-1-0.3-1.9-0.3c-0.2,0-1.2-0.1-2.1,0
		c-1.4,0.1-2.8,0.7-3.7,1.3c-2.3,1.6-2.4,4.9-2.5,6.8c-0.2,4.3,1.4,7.6,2.5,9.5c3.2,2.3,7.5,2.2,10.2-0.1
		C791.5,283.8,790.8,279.2,790.8,279z"/>
	<path class="st11" d="M772.9,329.3c0,0,0.2,0.3,0.1,0.7c0,0.4-0.4,3.1-0.5,4c-0.1,0.9-0.3,3.7-0.2,4c0.1,0.4,0,0.5-0.2,0.5
		c-0.3,0-0.1,2.2,0,2.7s-0.2,0.7-0.1,1.1s-0.2,0.6-0.2,1.2c0,0.6,0.2,3,0.7,5s0.2,2.6,0.2,2.9s0.1,2.2,0.4,3.1
		c0.3,0.9,0,2.3,0.1,2.8c0.2,0.5,0,0.9,0,1.2c0,0.4-0.3,0.8-0.5,1.1c-0.2,0.3-0.3,0.7-0.5,1.8c-0.1,1.1-0.2,1.5-0.3,1.8
		c0,0.3,0,0.7-0.1,0.9s-0.4,0.5-0.5,0.9c-0.1,0.4-0.4,0.4-0.5,0.9s0,0.7-0.2,1.1c-0.2,0.4-0.4,0.4-0.1,1c0.3,0.6,0.2,1.8,0.3,2.2
		c0.1,0.4,0.1,1.6,0.7,2.3c0.6,0.7,0.5,1.1,0.4,1.3c-0.1,0.2-0.2,3.1,0.7,4.1s0.6,1,1.2,1.2c0.5,0.1,2.8,1.1,3.9,1
		c1.1,0,3.3-0.5,3.6-1.2s0-1.2,0.3-2.1c0.3-0.9,0.4-3.2,0.5-3.9c0.1-0.8,0.4-1.8,0.4-2.3c0-0.5,1.2-3.4,1.4-4.5c0.3-1.1,0.4-2,0-2.7
		c-0.4-0.7-0.4-1.6-0.4-1.9c0-0.3,0.3-4.5,0.1-5s-0.3-1.4-0.1-1.8s0.8-2.9,0.8-3.5s0.2-1.3,0.3-1.2c0.1,0.1,0.2,1.3,0.2,1.9
		c0,0.6,0.4,2.1,0.4,2.5s-0.4,1.4-0.1,2.1c0.2,0.7,0.3,1.4,0.3,1.8s0,3,0,3.8s0.5,1.9,0.4,2.3c0,0.4-0.2,3.7-0.4,4.3
		s-0.2,0.8-0.7,0.9s-1,0.5-1.1,1.3c-0.1,0.9-0.2,2-0.1,2.4c0.1,0.4,0.4,1.9,0.7,2.5c0.2,0.6-0.4,1.7,0.5,2.4c0.8,0.7,1.5,1,1.9,1.1
		s1.7,0.2,2.6,0s2.7-0.8,3.3-2c0.6-1.3,0.8-1.2,1.3-1.8c0.5-0.7,0.6-1.4,0.6-2c-0.1-0.6,0.6-2.4,0.9-3.8c0.3-1.4,0.5-4.2,0.4-4.8
		s-1-3.4-0.8-4.2c0.2-0.8,0-2.4,0.2-3.2c0.3-0.8,0.3-4.3,0.5-5c0.2-0.7-0.1-3.4-0.3-4.5c-0.2-1.1-0.7-3.1-0.3-4.6
		c0.4-1.5,0.2-4.5,0.2-5c0-0.5,3.9-11.5,3.2-11.9C797.7,326.3,772.7,328.6,772.9,329.3z"/>
	<path class="st17" d="M799.1,306.4c0,0,0.8,4.3,0.9,5s0.2,1.7,0.3,2.4c0.1,0.7,0.3,2.9,0.3,4s-0.4,4.9-0.5,5.6
		c-0.1,0.6,0,3.6-0.3,4.1c-0.3,0.5-2.1,4.3-2.2,4.8c0,0.5-0.3,2.8-0.6,3.4c-0.3,0.6-0.9,2.3-1.3,2.3s-0.9-1.3-0.6-2.6
		c0.3-1.3,1.1-8,1.7-8.1c0.6-0.1-1-10.3-1-10.3l-1.9-6.4C794.2,310.7,792.6,303.6,799.1,306.4z"/>
	<path class="st26" d="M796.8,327.1c0,0-2.7,1-7.2,2.1c-4.4,1-14,1.9-15.9,0.5l-0.8-0.5c0,0-0.3-2.3,0.4-3.5s0.1-1.8-0.2-3
		c-0.3-1.2-0.1-1.7-0.3-2.8c-0.2-1.1-0.1-2.7,0.6-4.2c0.7-1.5,0.6-2,0.4-3.6c-0.2-1.5-0.6-4.5-0.6-4.5c0,0.4,0,0.8,0,1.1
		c-2.5-0.2-6.3-0.8-6.7-2.5c0-0.2,0-0.3,0.2-2.2c0.2-1.3,0.3-2.3,0.4-2.9c0.4-1.9,0.5-5,2.7-6.6c0.6-0.4,5.5-3.7,6.2-3.6
		s1.7-1.3,2.2-1.3s6,0.7,9.2-0.4c0,0,1.2-0.5,1.2-0.4c0.1,0.2,2.3,1.2,3,1.3c0.7,0.1,4.8,1.6,5.4,3.3c0.6,1.7,1,5.2,1.9,7.2
		c0.9,2,0,3.4,0.7,5.7c0,0-3.7,0.9-4,0.9c-0.3,0-0.3-2.6-0.3-3.2c-0.1-0.6,0.6,4.5,0.4,5.7c-0.2,1.2-1.2,2.7-1.1,3.5
		c0.2,0.8-1,2.3-0.1,4.4c0.9,2.1,3.2,9.1,3.2,9.1L796.8,327.1z"/>
	<path class="st13" d="M787,331.2c0,0,0,8,0,8.5c0,0.5-0.8,3-0.2,3.3c0.7,0.2,6.5,0.7,7.4,0.2c0.9-0.6,0.9-9,2-10.1
		c1.2-1.2,0.1-0.5,0.1-0.5S787,330.6,787,331.2z"/>
	<path class="st13" d="M782.3,331.6c0,0-0.8,8-0.8,8.4s0.5,3.1-0.1,3.3c-0.7,0.2-6.5,0.2-7.4-0.5s0-9-1.1-10.3
		c-1.1-1.3-0.1-0.5-0.1-0.5S782.4,331.1,782.3,331.6z"/>
	<path class="st14" d="M784.8,337.4c0,0,0.5-0.5,0.5-0.7s-0.2-0.2-0.4-0.1S784.5,337.5,784.8,337.4z"/>
	<path class="st13" d="M786.6,330.7c0,0,1.6,2.3,3,2.8s1.6,0.1,2.3,0c0.7-0.1,1.4,0.7,3.1-0.2c1.7-0.9,3.3-1.5,2.9-2.3
		c-0.4-0.8-1-1.9-1-1.9s0.5-0.7-1.2-0.2C794.1,329.4,786.3,330.3,786.6,330.7z"/>
	<circle class="st15" cx="793.4" cy="332.1" r="0.7"/>
	<path class="st13" d="M783.5,331.5c0,0,0.4,0.3,0,0.7c-0.4,0.4-0.5,1.4-1.1,1.7c-0.6,0.3-1.1,0.8-2,0.6c-0.9-0.1-2.1,0.2-3.9-0.3
		c-1.8-0.5-3.6-0.8-3.9-1.2c-0.3-0.3,0.3-0.9,0.3-1.1s-0.1-0.6,0.3-0.9s0.9-0.5,1.3-0.3c0.5,0.2,1.5,0.1,1.8,0.2
		c0.3,0.1,0.9,0,1.4,0.2C778.3,331.3,783.5,331.5,783.5,331.5z"/>
	<circle class="st15" cx="777.2" cy="332.5" r="0.7"/>
	<path class="st8" d="M799.3,393c0,0-1.7,0.2-1.3,1.2c0.4,1,1.7,1.8,2.3,1.8C800.9,395.9,800.5,393,799.3,393z"/>
	<path class="st17" d="M795,324.2c0.2,2.5,0.4,3.3,0.2,3.9c-0.2,0.6,0.3,3.4,0.4,4.3c0.1,0.9,1.5,6.6,1.5,6.6s0.5,3.6,0.6,4.1
		c0,0.4,1,2.1,0.7,2.8c-0.3,0.7-1.3,5,1,6.1c2.3,1.2,2.3-0.7,1.7-0.6c-0.5,0.1,4.5-2.7,2.6-5.4s-2.1-2.5-2.2-3.7
		c-0.1-1.2-0.3-0.7-0.5-2.2c-0.2-1.6,0.2-9.1,0-10c-0.2-0.9-1-7-1.6-7.5S794.9,323,795,324.2z"/>
	<path class="st17" d="M815.7,307c0,0-0.6-0.3,0-2c0.6-1.6,0.8-3.2-0.3-3.2s-10.4-0.2-9.5,2.6c0.9,2.8,0.4,3.7,0.4,3.7
		S814.2,308.9,815.7,307z"/>
	<path class="st17" d="M803.9,298.4c0,0-0.3-0.4-0.7-0.4c-0.4,0-0.8,0.3-0.4,1.5c0.3,1.1,0.9,3.9,1.6,3.8c0.7-0.1,1-0.9,1-0.9
		L803.9,298.4z"/>
	<path class="st17" d="M818.4,298c0,0,0.4-0.2,0.5,0.3c0.1,0.5,0.2,2-0.3,2.8c-0.4,0.8-0.9,1.8-1.3,1.8S817.3,298.1,818.4,298z"/>
	<path class="st11" d="M818.4,296.8c0.4-3.7-0.6-7.2-2.8-8.6c-1-0.6-2.5-1-2.5-1c-0.4-0.1-1-0.3-1.9-0.3c-0.2,0-1.2-0.1-2.1,0
		c-1.4,0.1-2.8,0.7-3.7,1.3c-2.3,1.6-2.4,4.9-2.5,6.8c-0.2,4.3,1.4,7.6,2.5,9.5c3.2,2.3,7.5,2.2,10.2-0.1
		C819.1,301.6,818.4,297,818.4,296.8z"/>
	<path class="st11" d="M800.5,347.1c0,0,0.2,0.3,0.1,0.7c0,0.4-0.4,3.1-0.5,4c-0.1,0.9-0.3,3.7-0.2,4c0.1,0.4,0,0.5-0.2,0.5
		s-0.1,2.2,0,2.7c0.1,0.5-0.2,0.7-0.1,1.1s-0.2,0.6-0.2,1.2s0.2,3,0.7,5c0.5,2,0.2,2.6,0.2,2.9s0.1,2.2,0.4,3.1
		c0.3,0.9,0,2.3,0.1,2.8c0.2,0.5,0,0.9,0,1.2c0,0.4-0.3,0.8-0.5,1.1c-0.2,0.3-0.3,0.7-0.5,1.8s-0.2,1.5-0.3,1.8c0,0.3,0,0.7-0.1,0.9
		s-0.4,0.5-0.5,0.9s-0.4,0.4-0.5,0.9c-0.1,0.5,0,0.7-0.2,1.1c-0.2,0.4-0.4,0.4-0.1,1c0.3,0.6,0.2,1.8,0.3,2.2s0.1,1.6,0.7,2.3
		s0.5,1.1,0.4,1.3c-0.1,0.2-0.2,3.1,0.7,4.1c0.9,0.9,0.6,1,1.2,1.2c0.5,0.1,2.8,1.1,3.9,1s3.3-0.5,3.6-1.2s0-1.2,0.3-2.1
		c0.3-0.9,0.4-3.2,0.5-3.9c0.1-0.8,0.4-1.8,0.4-2.3c0-0.5,1.2-3.4,1.4-4.5c0.3-1.1,0.4-2,0-2.7c-0.4-0.7-0.4-1.6-0.4-1.9
		s0.3-4.5,0.1-5c-0.3-0.5-0.3-1.4-0.1-1.8c0.2-0.4,0.8-2.9,0.8-3.5s0.2-1.3,0.3-1.2c0.1,0.1,0.2,1.3,0.2,1.9s0.4,2.1,0.4,2.5
		s-0.4,1.4-0.1,2.1c0.2,0.7,0.3,1.4,0.3,1.8c0,0.4,0,3,0,3.8c0,0.8,0.5,1.9,0.4,2.3c0,0.4-0.2,3.7-0.4,4.3c-0.2,0.7-0.2,0.8-0.7,0.9
		s-1,0.5-1.1,1.3c-0.1,0.9-0.2,2-0.1,2.4c0.1,0.4,0.4,1.9,0.7,2.5c0.2,0.6-0.4,1.7,0.5,2.4c0.8,0.7,1.5,1,1.9,1.1s1.7,0.2,2.6,0
		s2.7-0.8,3.3-2s0.8-1.2,1.3-1.8c0.5-0.7,0.6-1.4,0.6-2s0.6-2.4,0.9-3.8c0.3-1.4,0.5-4.2,0.4-4.8c0-0.6-1-3.4-0.8-4.2
		c0.2-0.8,0-2.4,0.2-3.2s0.3-4.3,0.5-5s-0.1-3.4-0.3-4.5c-0.2-1.1-0.7-3.1-0.3-4.6c0.4-1.5,0.2-4.5,0.2-5s3.9-11.5,3.2-11.9
		C825.3,344,800.3,346.4,800.5,347.1z"/>
	<path class="st17" d="M826.7,324.2c0,0,0.8,4.3,0.9,5c0.1,0.7,0.2,1.7,0.3,2.4c0.1,0.7,0.3,2.9,0.3,4s-0.4,4.9-0.5,5.6
		c-0.1,0.6,0,3.6-0.3,4.1c-0.3,0.5-2.1,4.3-2.2,4.8c0,0.5-0.3,2.8-0.6,3.4c-0.3,0.6-0.9,2.3-1.3,2.3s-0.9-1.3-0.6-2.6s1.1-8,1.7-8.1
		c0.6-0.1-1-10.3-1-10.3l-1.9-6.4C821.8,328.4,820.2,321.3,826.7,324.2z"/>
	<path class="st22" d="M824.4,344.9c0,0-2.7,1-7.2,2.1c-4.4,1-14,1.9-15.9,0.5l-0.8-0.5c0,0-0.3-2.3,0.4-3.5s0.1-1.8-0.2-3
		c-0.3-1.2-0.1-1.7-0.3-2.8c-0.2-1.1-0.1-2.7,0.6-4.2c0.7-1.5,0.6-2,0.4-3.6c-0.2-1.5-0.6-4.5-0.6-4.5c0,0.4,0,0.8,0,1.1
		c-2.5-0.2-6.3-0.8-6.7-2.5c0-0.2,0-0.3,0.2-2.2c0.2-1.3,0.3-2.3,0.4-2.9c0.4-1.9,0.5-5,2.7-6.6c0.6-0.4,5.5-3.7,6.2-3.6
		s1.7-1.3,2.2-1.3s6,0.7,9.2-0.4c0,0,1.2-0.5,1.2-0.4c0.1,0.2,2.3,1.2,3,1.3c0.7,0.1,4.8,1.6,5.4,3.3c0.6,1.7,1,5.2,1.9,7.2
		c0.9,2,0,3.4,0.7,5.7c0,0-3.7,0.9-4,0.9c-0.3,0-0.3-2.6-0.3-3.2c-0.1-0.6,0.6,4.5,0.4,5.7s-1.2,2.7-1.1,3.5c0.2,0.8-1,2.3-0.1,4.4
		c0.9,2.1,3.2,9.1,3.2,9.1L824.4,344.9z"/>
	<path class="st14" d="M812.3,355.2c0,0,0.5-0.5,0.5-0.7c0-0.2-0.2-0.2-0.4-0.1C812.2,354.4,812,355.2,812.3,355.2z"/>
	<circle class="st15" cx="820.9" cy="349.9" r="0.7"/>
	<g>
		<path class="st13" d="M814.6,348.9c0,0,0,8,0,8.5s-0.8,3-0.2,3.3c0.7,0.2,6.5,0.7,7.4,0.2c0.9-0.6,0.9-9,2-10.1
			c1.2-1.2,0.1-0.5,0.1-0.5S814.6,348.4,814.6,348.9z"/>
		<path class="st13" d="M809.9,349.4c0,0-0.8,8-0.8,8.4c0,0.5,0.5,3.1-0.1,3.3s-6.5,0.2-7.4-0.5s0-9-1.1-10.3s-0.1-0.5-0.1-0.5
			S810,348.8,809.9,349.4z"/>
		<path class="st13" d="M814.2,348.4c0,0,1.6,2.3,3,2.8s1.6,0.1,2.3,0c0.7-0.1,1.4,0.7,3.1-0.2c1.7-0.9,3.3-1.5,2.9-2.3
			s-1-1.9-1-1.9s0.5-0.7-1.2-0.2C821.7,347.1,813.9,348,814.2,348.4z"/>
		<path class="st13" d="M811.1,349.2c0,0,0.4,0.3,0,0.7s-0.5,1.4-1.1,1.7c-0.6,0.3-1.1,0.8-2,0.6c-0.9-0.1-2.1,0.2-3.9-0.3
			c-1.8-0.5-3.6-0.8-3.9-1.2c-0.3-0.3,0.3-0.9,0.3-1.1s-0.1-0.6,0.3-0.9s0.9-0.5,1.3-0.3c0.5,0.2,1.5,0.1,1.8,0.2
			c0.3,0.1,0.9,0,1.4,0.2C805.8,349.1,811.1,349.2,811.1,349.2z"/>
	</g>
	<circle class="st15" cx="804.8" cy="350.2" r="0.7"/>
	<circle class="st15" cx="820.9" cy="349.2" r="0.7"/>
</g>
</svg>
