<?xml version="1.0" encoding="utf-8"?>
<!-- Generator: Adobe Illustrator 23.0.1, SVG Export Plug-In . SVG Version: 6.00 Build 0)  -->
<svg version="1.1" xmlns="http://www.w3.org/2000/svg" xmlns:xlink="http://www.w3.org/1999/xlink" x="0px" y="0px"
	 viewBox="0 0 316.51 131.43" style="enable-background:new 0 0 316.51 131.43;" xml:space="preserve">
<style type="text/css">
	.st0{display:none;}
	.st1{display:inline;fill:#757370;}
	.st2{display:inline;fill:#8F8C88;}
	.st3{display:inline;fill:#E0AE7F;}
	.st4{display:inline;fill:#DB96E9;}
	.st5{display:inline;fill:#D9A280;}
	.st6{display:inline;}
	.st7{display:inline;fill:#753225;}
	.st8{display:inline;fill:#5CA9E6;}
	.st9{fill:#EDE6DD;}
	.st10{fill:#C8BEB4;stroke:#727172;stroke-width:0.2179;stroke-miterlimit:10;}
	.st11{fill:#C8BEB4;stroke:#727172;stroke-width:0.1878;stroke-miterlimit:10;}
	.st12{opacity:0.54;fill:#342826;}
	.st13{fill:#E3DFE4;stroke:#474747;stroke-width:0.1503;stroke-miterlimit:10;}
	.st14{fill:#A0968C;stroke:#C8BEB4;stroke-width:0.8715;stroke-miterlimit:10;}
	.st15{fill:#372A29;}
	.st16{opacity:0.54;fill:#372A29;}
	.st17{fill:none;stroke:#372A29;stroke-width:0.3391;stroke-miterlimit:10;}
	.st18{fill:#253530;}
	.st19{fill:#8E8E8E;stroke:#363A39;stroke-width:0.1683;stroke-miterlimit:10;}
	.st20{fill:#191615;}
	.st21{fill:#CE3D25;}
	.st22{fill:#FFFFFF;}
	.st23{fill:#A82F1E;}
	.st24{fill:#222927;}
	.st25{fill:#D9A280;}
	.st26{fill:#B57E4F;}
	.st27{fill:#96C7F7;}
	.st28{fill:#974A37;}
	.st29{opacity:0.43;fill:#EFA1A1;}
	.st30{fill:#ED5F5F;}
	.st31{opacity:0.83;fill:#F4F4F4;}
	.st32{fill:#ED5F5F;stroke:#EFA1A1;stroke-width:2;stroke-miterlimit:10;}
	.st33{fill:#805035;}
	.st34{fill:#F3E6D6;}
	.st35{fill:#E8B486;}
	.st36{fill:none;stroke:#ED5F5F;stroke-width:3;stroke-miterlimit:10;}
	.st37{fill:#E06F5C;}
	.st38{fill:#F2E7E6;}
	.st39{fill:#A5A4A2;}
	.st40{fill:#E3C858;stroke:#DDBB34;stroke-width:2.1451;stroke-miterlimit:10;}
	.st41{fill:#E3C858;stroke:#DDBB34;stroke-width:2.1949;stroke-miterlimit:10;}
	.st42{fill:#E3C858;stroke:#DDBB34;stroke-width:3.6433;stroke-miterlimit:10;}
	.st43{fill:#0E110F;}
	.st44{fill:#773F30;}
	.st45{fill:#CF8775;}
	.st46{fill:#A980C2;}
	.st47{fill:#991B38;}
	.st48{fill:#F5F6F6;}
	.st49{fill:#C12538;}
	.st50{fill:none;stroke:#040506;stroke-width:0.6777;stroke-miterlimit:10;}
	.st51{fill:#A45E40;}
	.st52{fill:#010101;}
	.st53{fill:#EC9B80;}
	.st54{fill:#181927;}
	.st55{fill:#567BD1;stroke:#A2C0ED;stroke-width:3.8226;stroke-miterlimit:10;}
	.st56{fill:#757370;}
	.st57{fill:#8F8C88;}
	.st58{fill:#E0AE7F;}
	.st59{fill:#B562CA;}
	.st60{fill:#111010;}
	.st61{fill:#669C04;}
	.st62{fill:#567BD1;}
	.st63{fill:#F0F4F7;}
	.st64{fill:#969696;}
	.st65{fill:#020202;}
	.st66{fill:#636363;}
	.st67{fill:#181818;stroke:#2C2D2B;stroke-width:0.4942;stroke-miterlimit:10;}
	.st68{fill:#F9F9F9;}
	.st69{fill:#5C5E58;}
	.st70{fill:#181818;stroke:#5C5E58;stroke-width:0.5;stroke-miterlimit:10;}
	.st71{fill:#2954AA;}
	.st72{fill:#474747;}
	.st73{fill:#636363;stroke:#474747;stroke-width:0.1683;stroke-miterlimit:10;}
	.st74{fill:#E3DFE4;}
	.st75{fill:#C69479;}
	.st76{fill:#633127;}
	.st77{fill:#181818;stroke:#2C2D2B;stroke-width:0.2933;stroke-miterlimit:10;}
	.st78{fill:#AF826E;}
	.st79{fill:#181818;stroke:#5C5E58;stroke-width:0.2933;stroke-miterlimit:10;}
	.st80{fill:#72372B;}
	.st81{fill:#1A468E;}
	.st82{fill:#1A468E;stroke:#143359;stroke-width:0.25;stroke-miterlimit:10;}
	.st83{fill:#143359;}
	.st84{fill:#246319;}
	.st85{fill:#F2581C;}
	.st86{fill:#0A0A0A;}
	.st87{fill:#80CEC7;}
	.st88{fill:#C0213B;}
	.st89{fill:#FFE7EC;}
	.st90{opacity:0.37;fill:#B2B2B2;}
	.st91{fill:#848484;}
	.st92{fill:#A3A3A3;}
	.st93{fill:#148C83;}
	.st94{fill:#323127;}
	.st95{fill:#11756B;}
	.st96{fill:#C8BEB4;stroke:#727172;stroke-width:0.2643;stroke-miterlimit:10;}
	.st97{fill:#A0968C;stroke:#C8BEB4;stroke-width:1.057;stroke-miterlimit:10;}
	.st98{fill:#E3DFE4;stroke:#474747;stroke-width:0.1823;stroke-miterlimit:10;}
	.st99{fill:#C8BEB4;}
	.st100{fill:#BBBBBB;}
	.st101{fill:#D2D2D2;stroke:#9C9C9C;stroke-width:0.25;stroke-miterlimit:10;}
	.st102{fill:#7D7D7D;}
	.st103{fill:#E3DFE4;stroke:#474747;stroke-width:0.1843;stroke-miterlimit:10;}
	.st104{fill:#7D7D7D;stroke:#9C9C9C;stroke-miterlimit:10;}
	.st105{fill:#DFDFDF;}
	.st106{fill:#9C9C9C;}
	.st107{fill:#EDDA2B;}
	.st108{fill:#E8CD0A;}
</style>
<g id="Layer_2" class="st0">
</g>
<g id="Layer_1">
	<g>
		<path class="st74" d="M290.17,89.82c-4.17-12.3-27.76-11.1-31.25-24.87c-2.37-9.32,7.82-17.44-17.84-20.84
			C215.43,40.7,91.26,21.49,78.63,17.7C66,13.91,46.19,5.37,49.74,19.35c3.55,13.97-31.62,22.18-23.9,36.63
			C33.54,70.42,50.51,79.82,67.25,90c16.73,10.19,44.14,13.48,50.52,20.88c9.96,11.54,14.7,0.8,42.83,3.53
			c20.56,2,26.23,3.85,64.9,8.75c27.54,3.49,33.85,3.72,41.71,0C281.31,116.49,293.73,100.3,290.17,89.82z"/>
		<path class="st90" d="M140.23,98.92c-3.5,1.97-7.05,3.87-10.64,5.68c-2.82,1.43-5.74,2.82-8.89,3.15
			c-3.64,0.38-12.63-0.93-13.54-4.93C116.97,101.85,131.24,103.99,140.23,98.92z"/>
		<path class="st90" d="M277.5,81.14c-0.42,0.29-0.99,0.22-1.5,0.13c-3.7-0.62-7.66-1.36-10.29-4.03c-0.45-0.45-0.84-0.95-1.21-1.48
			c-0.76-1.09-1.8-2.65-1.9-3.98c1-0.11,2.25,1.61,2.97,2.22c1.19,1.01,2.44,1.95,3.74,2.83C271.88,78.55,274.63,80,277.5,81.14z"/>
	</g>
</g>
</svg>
