<?xml version="1.0" encoding="utf-8"?>
<!-- Generator: Adobe Illustrator 23.0.1, SVG Export Plug-In . SVG Version: 6.00 Build 0)  -->
<svg version="1.1" xmlns="http://www.w3.org/2000/svg" xmlns:xlink="http://www.w3.org/1999/xlink" x="0px" y="0px"
	 viewBox="0 0 1366 768" style="enable-background:new 0 0 1366 768;" xml:space="preserve">
<style type="text/css">
	.st0{fill:#8C7BB7;}
	.st1{fill:#B59F7C;}
</style>
<g id="Layer_1">
</g>
<g id="Layer_2">
	<path class="st0" d="M1382,477c-27.51,2.16-41.98-2.53-69.35-2.75c-38.48-0.31-76.95-0.73-115.43-1.4
		c-76.79-1.34-153.58-3.67-230.26-8.06c-69.12-3.95-140.19-10-199.13-30.07c-29.82-10.15-58.08-24.15-93.17-25.42
		c-43.24-1.57-81.81,16.91-125.14,17.04c-50.94,0.15-97.45-25.02-146.84-18.21c-13.62,1.88-25.84,6.1-39.45,7.99
		c-48.69,6.76-87-38.08-136.23-43.57c-46.23-5.16-99.47,27.52-136.49,43.46s-67.39,36.09-104.6,51.91
		c1.84,16.83-2.77,33.83-0.93,50.66c184.2-16.29,372.39-5.22,558.98-7.08c114.94-1.15,229.62-7.22,344.59-7.59
		c81.88-0.26,163.66,3.32,245.48,5.91c46.72,1.48,93.36,5.12,140.12,5.43c24.55,0.17,49.14-0.48,73.57-3
		c6.6-0.68,28.81-0.07,33.26-5.1c4.41-4.99,0.74-23.73,0.64-29.85C1381.68,481.19,1379.54,477.27,1382,477z"/>
	<path class="st1" d="M-15,519l-1,275h1398V508.09c0,0-393-15.09-449-13.09c-44.88,1.6-275-5-299-2s-531,3-557,3s-93-3.43-93-3.43
		L-15,519z"/>
</g>
</svg>
