<?xml version="1.0" encoding="utf-8"?>
<!-- Generator: Adobe Illustrator 23.0.1, SVG Export Plug-In . SVG Version: 6.00 Build 0)  -->
<svg version="1.1" xmlns="http://www.w3.org/2000/svg" xmlns:xlink="http://www.w3.org/1999/xlink" x="0px" y="0px"
	 viewBox="0 0 400 400" style="enable-background:new 0 0 400 400;" xml:space="preserve">
<style type="text/css">
	.st0{fill:#FFFFFF;}
	.st1{fill:#D1C1C1;}
	.st2{fill:#EAA2A2;}
	.st3{fill:#FCD9D9;}
	.st4{fill:#A3DBE0;}
	.st5{fill:none;}
	.st6{fill:#77B7B7;}
	.st7{fill:#F9B6B3;}
	.st8{fill:#B0DCC1;}
	.st9{fill:#CFCFCE;}
	.st10{fill:#848484;}
	.st11{fill:#8C5E5E;stroke:#8C5E5E;stroke-width:0.25;stroke-miterlimit:10;}
	.st12{fill:#2D4E7B;}
	.st13{fill:#61846D;}
</style>
<g id="Layer_2">
	<g id="XMLID_4_">
		<g>
			<path class="st0" d="M302.51,225.18c1.98,24.11,2.97,48.66-2.37,72.26c-1.87,8.24-4.79,16.76-11.25,22.2
				c-8.07,6.8-19.58,7.21-29.37,11.12c4.72,9.49,9.44,18.98,14.17,28.47c1,2.03,0.36,4.53-1.56,5.73
				c-9.42,5.85-21.96,6.31-31.77,1.13c-8.85-4.68-15.17-13.78-16.67-23.65c-0.79-5.23-5.65-9.42-10.94-9.28
				c-15.25,0.4-30.49,0.79-45.74,1.19c-4.55,0.12-9.71,3.65-11.44,7.87c-1.54,3.76-2.14,7.91-4.05,11.51
				c-2.23,4.22-6.05,7.22-10.49,9l-0.47-1.19c1.88-0.68,3.18-2.38,4.33-4.02c4.45-6.43,8.16-13.37,11.02-20.65
				c0.24-0.61,0.47-1.32,0.16-1.9c-0.35-0.64-1.19-0.8-1.91-0.89c-9.53-1.16-19.07-2.32-28.6-3.48c-0.47-0.06-0.97-0.11-1.42,0.05
				c-0.65,0.24-1.06,0.88-1.42,1.48c-5.01,8.32-10.96,16.07-17.72,23.04l-1.01-0.19c0.06-0.17,0.14-0.34,0.25-0.5
				c5.79-8.18,11.59-16.36,17.38-24.54c-10.14-2.86-20.87-6.07-27.78-14.02c-5.44-6.25-7.73-14.6-9.2-22.75
				c-5.17-28.79-1.98-58.35,1.41-87.4c2.38-20.49,4.88-41.08,10.72-60.86c5.83-19.79,15.22-38.9,29.76-53.53
				c2.39-2.4,4.92-4.7,7.48-7l0.9,1c-13.47,12.27-23.61,28.36-30.47,45.37c-9.54,23.66-13.29,49.21-16.18,74.56
				c-3.29,28.84-5.55,58.12-1.17,86.82c1.06,6.96,2.62,14.12,6.85,19.76c5.14,6.83,13.46,10.45,21.65,12.9
				c22.49,6.73,46.37,6.76,69.84,6.23c12.59-0.29,25.18-0.72,37.76-1.3c16.35-0.76,32.79-1.78,48.69-5.66
				c6.43-1.56,13.04-3.78,17.53-8.64c3.71-4.02,5.53-9.41,6.91-14.7c4.1-15.68,5.21-32.02,4.94-48.23
				c-0.3-18.37-2.32-36.67-4.37-54.93c-1.46-13.08-2.93-26.17-4.85-39.2c-0.38-2.55-0.78-5.11-1.21-7.68l2.4-0.4
				c0.11,0.62,0.21,1.24,0.31,1.86C297.51,176.35,300.5,200.72,302.51,225.18z M271.01,363.5c1.46-1.3,0.32-3.68-0.83-5.27
				c-5.49-7.64-9.75-16.16-12.58-25.13c-0.2-0.64-0.41-1.32-0.9-1.78c-0.78-0.74-1.99-0.71-3.06-0.63
				c-9.42,0.69-18.85,1.38-28.27,2.07c-0.3,0.03-0.63,0.06-0.85,0.27c-0.33,0.32-0.25,0.86-0.14,1.31
				c1.92,7.68,4.85,15.11,8.7,22.02c0.97,1.75,2.02,3.49,3.5,4.83c2.3,2.07,5.42,2.97,8.46,3.56c8,1.55,16.33,1.37,24.26-0.51
				C269.91,364.09,270.54,363.92,271.01,363.5z"/>
			<path class="st0" d="M301.26,252.49c0.27,16.21-0.84,32.55-4.94,48.23c-1.38,5.29-3.2,10.68-6.91,14.7
				c-4.49,4.86-11.1,7.08-17.53,8.64c-15.9,3.88-32.34,4.9-48.69,5.66c-12.58,0.58-25.17,1.01-37.76,1.3
				c-23.47,0.53-47.35,0.5-69.84-6.23c-8.19-2.45-16.51-6.07-21.65-12.9c-4.23-5.64-5.79-12.8-6.85-19.76
				c-4.38-28.7-2.12-57.98,1.17-86.82c2.89-25.35,6.64-50.9,16.18-74.56c6.86-17.01,17-33.1,30.47-45.37
				c5.26-4.81,11.04-9.03,17.32-12.49c7.26-4,15.06-6.91,23.13-8.83c8.06-1.91,16.38-2.82,24.67-2.83
				c18.79-0.01,38.02,4.93,53.23,15.72c2.82,2,5.5,4.2,8.01,6.6c18,17.22,25.35,42.34,29.56,67.13c0.43,2.57,0.83,5.13,1.21,7.68
				c1.92,13.03,3.39,26.12,4.85,39.2C298.94,215.82,300.96,234.12,301.26,252.49z"/>
			<path class="st0" d="M293.23,150.28l-2.4,0.4c-4.21-24.79-11.56-49.91-29.56-67.13c-2.51-2.4-5.19-4.6-8.01-6.6l1.74-1.7
				c1.63,1.11,3.25,2.23,4.78,3.38C281.37,94.91,288.74,123.51,293.23,150.28z"/>
			<path class="st0" d="M270.18,358.23c1.15,1.59,2.29,3.97,0.83,5.27c-0.47,0.42-1.1,0.59-1.71,0.74
				c-7.93,1.88-16.26,2.06-24.26,0.51c-3.04-0.59-6.16-1.49-8.46-3.56c-1.48-1.34-2.53-3.08-3.5-4.83
				c-3.85-6.91-6.78-14.34-8.7-22.02c-0.11-0.45-0.19-0.99,0.14-1.31c0.22-0.21,0.55-0.24,0.85-0.27
				c9.42-0.69,18.85-1.38,28.27-2.07c1.07-0.08,2.28-0.11,3.06,0.63c0.49,0.46,0.7,1.14,0.9,1.78
				C260.43,342.07,264.69,350.59,270.18,358.23z"/>
			<path class="st0" d="M255,75.25l-1.74,1.7c-15.21-10.79-34.44-15.73-53.23-15.72c-8.29,0.01-16.61,0.92-24.67,2.83l-0.18-1.46
				c5.73-3.69,12.88-4.29,19.69-4.28c7.16,0.02,14.32,0.62,21.39,1.79c-2.83-4.51-5.67-9.02-8.5-13.52
				c-0.59-0.94-1.21-1.91-2.14-2.51c-1.29-0.84-2.93-0.84-4.47-0.79c-3.45,0.12-6.9,0.32-10.34,0.6c-1.53,0.12-3.1,0.27-4.45,0.98
				c-1.8,0.95-2.98,2.74-4.07,4.45c-1.98,3.11-3.97,6.22-5.96,9.33l-1.99-1.27c0.26-0.43,0.5-0.87,0.73-1.31
				c1.81-3.52,3.1-7.41,5.78-10.33c5.53-6.01,14.87-5.96,23.02-5.45c3.9,0.24,6.87,3.59,8.7,7.03c1.84,3.44,3.07,7.3,5.74,10.14
				c4.77,5.07,12.55,5.46,19.51,5.51c-0.17-0.37-0.35-0.74-0.53-1.12l2.43-0.79C242.79,67.09,249.01,71.16,255,75.25z"/>
			<path class="st0" d="M239.72,61.06l-2.43,0.79c-5.53-11.54-12.76-23.35-24.64-27.93c-3.28-1.26-6.78-1.9-10.3-2.14
				c-10.73-0.7-21.67,2.52-30.32,8.92c-6.48,4.8-11.63,11.36-14.83,18.75l-2.15-0.9c7.1-16.56,23.46-29.2,41.44-30.17
				c18.38-0.98,37.13,11.4,41.89,29.19C238.71,58.81,239.16,59.97,239.72,61.06z"/>
			<path class="st0" d="M237.29,61.85c0.18,0.38,0.36,0.75,0.53,1.12c-6.96-0.05-14.74-0.44-19.51-5.51
				c-2.67-2.84-3.9-6.7-5.74-10.14c-1.83-3.44-4.8-6.79-8.7-7.03c-8.15-0.51-17.49-0.56-23.02,5.45c-2.68,2.92-3.97,6.81-5.78,10.33
				c-0.23,0.44-0.47,0.88-0.73,1.31c-1.81,3.03-4.37,5.76-7.79,6.35c-4.06,0.7-8.06,1.83-11.89,3.37c0.61-2.62,1.47-5.18,2.54-7.65
				c3.2-7.39,8.35-13.95,14.83-18.75c8.65-6.4,19.59-9.62,30.32-8.92c3.52,0.24,7.02,0.88,10.3,2.14
				C224.53,38.5,231.76,50.31,237.29,61.85z"/>
			<path class="st0" d="M176.33,58.65v0.01c-0.76,1.19-1.55,2.58-1.15,3.94l0.18,1.46c-8.07,1.92-15.87,4.83-23.13,8.83
				c-6.28,3.46-12.06,7.68-17.32,12.49l-0.9-1c8.19-7.36,16.54-14.63,20.57-24.71c0.15-0.38,0.31-0.75,0.47-1.12l2.15,0.9
				c-1.07,2.47-1.93,5.03-2.54,7.65c3.83-1.54,7.83-2.67,11.89-3.37c3.42-0.59,5.98-3.32,7.79-6.35L176.33,58.65z"/>
			<path class="st0" d="M156.07,334.97c0.31,0.58,0.08,1.29-0.16,1.9c-2.86,7.28-6.57,14.22-11.02,20.65
				c-1.15,1.64-2.45,3.34-4.33,4.02c-1.33,0.48-2.8,0.39-4.21,0.27c-10.67-0.92-21.22-3.15-31.35-6.64
				c6.76-6.97,12.71-14.72,17.72-23.04c0.36-0.6,0.77-1.24,1.42-1.48c0.45-0.16,0.95-0.11,1.42-0.05c9.53,1.16,19.07,2.32,28.6,3.48
				C154.88,334.17,155.72,334.33,156.07,334.97z"/>
			<path class="st0" d="M140.56,361.54l0.47,1.19c-3.93,1.6-8.34,2.25-12.56,1.97c-8.28-0.55-16.03-3.96-23.54-7.55
				c-0.83-0.4-1.19-1.34-0.94-2.17l1.01,0.19c10.13,3.49,20.68,5.72,31.35,6.64C137.76,361.93,139.23,362.02,140.56,361.54z"/>
		</g>
	</g>
	<path class="st1" d="M112.32,109.34c-6.98,9.97-8.71,22.27-13.38,33.51c-5.93,14.28-8.02,29.84-9.21,45.26
		c-2.42,31.34-1.33,62.83-0.24,94.24c0.43,12.33,1.19,25.6,8.9,35.23c9.92,12.4,27.67,14.49,43.53,15.44
		c46.17,2.78,93.2,3.9,137.91-7.92c4.38-1.16,8.82-2.48,12.55-5.07c7.61-5.29,10.89-14.81,13.07-23.82
		c11.46-47.26,5.47-96.95-3.93-144.66c-5.35-27.14-13.03-56.15-34.57-73.5c-6.04-4.86-12.93-8.58-20.06-11.61
		c-20.05-8.54-42.62-11.83-63.97-7.4s-45.15,11.24-56.8,29.66"/>
	<path class="st1" d="M115.86,347.09c-2.9,2.75-6.57,5.47-6.88,9.45c-0.26,3.35,2.15,6.46,5.11,8.05c2.96,1.6,6.4,1.99,9.74,2.36
		c4.46,0.49,8.92,0.98,13.38,1.47c1.63,0.18,3.32,0.35,4.88-0.16c1.83-0.6,3.23-2.05,4.49-3.51c5.46-6.33,9.63-13.76,12.21-21.72
		c1.64-5.05,2.36-11.31-1.45-15.02c-2.06-2.01-5.02-2.77-7.86-3.25c-6.27-1.06-19.14-3.41-23.82,1.54c-1.24,1.31-1.35,7.83-2.14,9.8
		C121.88,340.24,119.06,344.06,115.86,347.09z"/>
	<path class="st1" d="M239.08,358.61c1.41,2.2,2.86,4.43,4.85,6.11c4.71,3.97,11.43,4.14,17.59,4.12
		c5.04-0.02,11.08-0.62,13.39-5.09c1.88-3.64,0.26-8.03-1.37-11.79c-2.25-5.2-4.5-10.4-6.75-15.59c-1.71-3.95-3.6-8.13-7.2-10.49
		c-5.77-3.79-27.38-4.05-32.83,1.12C218.44,334.9,234.54,351.57,239.08,358.61z"/>
	<path class="st1" d="M164.97,50.59c7.75-9.61,19.01-16.5,31.23-18.22c18.94-2.67,39.01,8.28,47.02,25.65
		c1.62,3.51,2.79,7.5,1.72,11.22c-7.57-0.28-13.05-7-17.74-12.95c-5.83-7.39-12.45-14.75-21.28-18c-8.84-3.25-20.39-0.95-24.79,7.37
		c-3.19,6.03-2.23,14.05-6.85,19.07c-2.66,2.89-12.22,7.36-15.76,3.86C154.51,64.62,162.52,53.62,164.97,50.59z"/>
</g>
<g id="Layer_1">
	<path class="st10" d="M277.01,292.88c-0.69,4.72-1.62,9.86-5.22,12.99c-3.06,2.66-7.37,3.24-11.41,3.66
		c-33.72,3.46-67.7,3.39-101.6,3.33c-10.64-0.02-21.54-0.09-31.54-3.73c-1.89-0.69-3.78-1.53-5.22-2.93
		c-1.82-1.77-2.76-4.23-3.56-6.64c-8.55-25.48-8.82-52.96-7.39-79.8c0.22-4.15,1.15-9.21,5.1-10.5c21.66-7.06,44.7-8.48,67.45-9.69
		c15.54-0.83,31.12-1.58,46.64-0.54c12.45,0.83,25.16,2.94,35.9,9.28c2.58,1.52,5.06,3.31,6.87,5.69c1.94,2.54,3.03,5.63,3.91,8.71
		C283.47,245.38,280.43,269.56,277.01,292.88 M262.4,209.59c-9.76-5.16-20.98-6.77-31.99-7.61c-27.77-2.1-55.67,0.28-83.35,3.29
		c-10.4,1.13-21.23,2.51-29.91,8.34c-0.36-1.08-0.73-2.17-1.09-3.25c-2.13,4.01-2.42,8.71-2.61,13.25
		c-1.02,24.55-0.27,49.61,7.48,72.93c0.76,2.29,1.61,4.6,3.18,6.43c2.46,2.87,6.29,4.13,9.99,4.92c8.11,1.73,16.47,1.81,24.76,1.88
		c34.17,0.3,68.46,0.59,102.39-3.56c3.64-0.45,7.64-1.14,9.93-4.01c1.53-1.92,1.98-4.45,2.38-6.87c3.9-23.74,7.17-48.46,0.38-71.54
		c-0.78-2.65-1.71-5.3-3.29-7.55C268.58,213.33,265.55,211.25,262.4,209.59z"/>
	<path class="st10" d="M238.51,57.29c2.65,9.89,13.23,14.9,21.4,21.06c22.08,16.66,29.29,46.21,33.76,73.51
		c3.97,24.21,6.96,48.58,8.97,73.03c1.98,24.12,2.97,48.67-2.37,72.27c-1.87,8.24-4.79,16.76-11.25,22.2
		c-8.07,6.79-19.58,7.2-29.37,11.12c4.72,9.49,9.45,18.98,14.17,28.46c1.01,2.03,0.37,4.54-1.56,5.73
		c-9.42,5.85-21.96,6.31-31.77,1.13c-8.85-4.67-15.16-13.77-16.67-23.64c-0.8-5.23-5.65-9.42-10.94-9.28
		c-15.25,0.4-30.5,0.79-45.74,1.19c-4.55,0.12-9.71,3.65-11.44,7.87c-1.54,3.77-2.14,7.91-4.05,11.51
		c-4.21,7.96-14.07,11.56-23.05,10.97c-8.28-0.54-16.03-3.96-23.54-7.55c-1.01-0.48-1.33-1.75-0.69-2.66
		c5.79-8.18,11.58-16.36,17.37-24.55c-10.14-2.85-20.87-6.07-27.78-14.01c-5.44-6.25-7.73-14.6-9.19-22.75
		c-5.17-28.79-1.98-58.35,1.4-87.4c2.39-20.49,4.88-41.08,10.72-60.87c5.84-19.78,15.22-38.9,29.77-53.53
		c10.04-10.1,22.77-18.49,28.05-31.71c6.83-17.1,23.52-30.31,41.91-31.29C215,27.12,233.75,39.51,238.51,57.29 M297.02,197.29
		c-1.46-13.09-2.94-26.17-4.86-39.2c-4.01-27.19-10.91-55.81-30.77-74.81c-16.09-15.4-38.98-22.33-61.24-22.32
		c-16.57,0.01-33.28,3.66-47.8,11.66c-22.35,12.31-38.25,34.2-47.79,57.86s-13.29,49.21-16.18,74.56
		c-3.29,28.84-5.55,58.12-1.17,86.82c1.06,6.96,2.63,14.12,6.85,19.75c5.13,6.84,13.46,10.45,21.65,12.9
		c22.49,6.73,46.37,6.76,69.84,6.23c12.59-0.29,25.18-0.72,37.76-1.3c16.35-0.75,32.79-1.77,48.69-5.65
		c6.42-1.57,13.04-3.78,17.52-8.64c3.71-4.02,5.54-9.41,6.92-14.7c4.1-15.68,5.2-32.02,4.94-48.22
		C301.09,233.85,299.06,215.55,297.02,197.29 M271.14,363.23c1.46-1.31,0.32-3.68-0.83-5.27c-5.49-7.64-9.76-16.16-12.58-25.14
		c-0.2-0.64-0.41-1.32-0.9-1.78c-0.78-0.74-1.99-0.71-3.06-0.63c-9.42,0.69-18.84,1.38-28.27,2.07c-0.3,0.02-0.63,0.06-0.85,0.26
		c-0.34,0.32-0.25,0.86-0.14,1.31c1.92,7.68,4.85,15.11,8.69,22.03c0.97,1.75,2.02,3.49,3.5,4.82c2.3,2.07,5.42,2.97,8.46,3.56
		c8,1.55,16.33,1.37,24.26-0.51C270.04,363.82,270.67,363.65,271.14,363.23 M124.27,330.38c-0.66,0.24-1.06,0.88-1.42,1.48
		c-5.01,8.32-10.96,16.07-17.72,23.04c10.13,3.48,20.68,5.72,31.35,6.64c1.41,0.12,2.87,0.21,4.21-0.27
		c1.88-0.68,3.18-2.38,4.33-4.02c4.45-6.42,8.16-13.37,11.02-20.64c0.24-0.61,0.47-1.32,0.16-1.9c-0.35-0.64-1.18-0.8-1.91-0.89
		c-9.53-1.16-19.06-2.32-28.6-3.48C125.21,330.27,124.72,330.21,124.27,330.38 M218.44,57.19c4.77,5.07,12.55,5.46,19.5,5.5
		c-5.6-11.89-12.91-24.31-25.17-29.04c-3.28-1.27-6.78-1.91-10.29-2.14c-10.73-0.71-21.68,2.51-30.32,8.91s-14.91,15.93-17.37,26.4
		c3.83-1.54,7.82-2.67,11.89-3.36c3.9-0.67,6.7-4.14,8.51-7.66c1.82-3.52,3.1-7.41,5.78-10.33c5.53-6.02,14.87-5.96,23.03-5.46
		c3.89,0.24,6.86,3.6,8.7,7.04S215.77,54.35,218.44,57.19 M186.48,44.6c-1.8,0.94-2.97,2.73-4.07,4.45
		c-1.99,3.11-3.97,6.23-5.96,9.34c-0.76,1.19-1.55,2.58-1.15,3.94c5.73-3.68,12.88-4.29,19.69-4.27c7.16,0.02,14.33,0.62,21.4,1.78
		c-2.84-4.51-5.67-9.01-8.51-13.52c-0.59-0.94-1.21-1.9-2.13-2.51c-1.29-0.84-2.94-0.84-4.48-0.78c-3.45,0.11-6.9,0.31-10.34,0.59
		C189.41,43.74,187.84,43.89,186.48,44.6z"/>
	<path class="st10" d="M265.85,237.22c-1.58-1.53-0.13-4.59,2.04-4.9c2.17-0.31,4.23,1.42,5.04,3.46c0.81,2.04,0.67,4.32,0.52,6.51
		c-0.33,4.79-0.65,9.58-1.23,14.34c-0.13,1.04-0.29,2.14-0.96,2.94c-0.96,1.14-2.63,1.31-4.13,1.37c-2.56,0.09-5.12,0.09-7.67,0
		c-0.95-0.03-1.97-0.11-2.7-0.72c-1.18-1-1.01-2.84-0.72-4.36c0.98-5.22,1.95-10.44,2.93-15.66c0.22-1.17,0.01-2.89-1.18-2.86
		c-46.02,1.34-92.08,1.68-138.12,1.01c-0.33,0-0.68-0.02-0.94-0.21c-1.02-0.77,0.76-2.03,2.04-2.04
		c12.39-0.12,24.77-0.24,37.16-0.36c7.1-0.07,14.21-0.14,21.31-0.21c27.48-0.27,54.96-0.53,82.43-0.8c0.58-0.01,1.38,0.23,1.28,0.8
		c-1.13,6.43-2.27,12.87-3.4,19.3c-0.11,0.63-0.21,1.34,0.15,1.88c0.33,0.49,0.94,0.7,1.51,0.83c3.24,0.75,6.74,0.27,9.66-1.32
		c-1.5-0.75-3.27-0.67-4.94-0.86c-1.67-0.19-3.5-0.84-4.18-2.38s0.91-3.76,2.42-3.04c0.57,0.27,0.93,0.85,1.45,1.2
		c1.73,1.18,4.12-0.74,4.46-2.8s-0.48-4.13-0.65-6.22c-0.17-2.09,0.78-4.64,2.85-4.92C270.66,235.59,267.93,236.27,265.85,237.22z"
		/>
</g>
</svg>
