<?xml version="1.0" encoding="utf-8"?>
<!-- Generator: Adobe Illustrator 23.0.1, SVG Export Plug-In . SVG Version: 6.00 Build 0)  -->
<svg version="1.1" xmlns="http://www.w3.org/2000/svg" xmlns:xlink="http://www.w3.org/1999/xlink" x="0px" y="0px"
	 viewBox="0 0 400 400" style="enable-background:new 0 0 400 400;" xml:space="preserve">
<style type="text/css">
	.st0{fill:#FFFFFF;}
	.st1{fill:#D1C1C1;}
	.st2{fill:#EAA2A2;}
	.st3{fill:#FCD9D9;}
	.st4{fill:#A3DBE0;}
	.st5{fill:none;}
	.st6{fill:#77B7B7;}
	.st7{fill:#F9B6B3;}
	.st8{fill:#B0DCC1;}
	.st9{fill:#CFCFCE;}
	.st10{fill:#848484;}
	.st11{fill:#8C5E5E;stroke:#8C5E5E;stroke-width:0.25;stroke-miterlimit:10;}
	.st12{fill:#2D4E7B;}
	.st13{fill:#61846D;}
</style>
<g id="Layer_2">
	<g id="XMLID_1_">
		<g>
			<path class="st0" d="M269.17,348.35c1.32,4.44-4.93,6.98-9.54,7.35c-37.95,3.04-76.17,6.08-114.02,1.92
				c-6.77-0.74-15.45-3.92-14.94-10.72c5.93-79.48,35.06-155.65,43.52-234.9c0.21-1.93,0.4-3.87,0.56-5.81l2.58,0.21
				c-6.86,80.22-36.87,157.53-42.98,237.98c-0.24,3.21,2.1,6.16,4.97,7.62c2.86,1.47,6.17,1.74,9.38,1.96
				c36.92,2.55,74.08,1.59,110.82-2.85c1.25-0.16,2.63-0.37,3.44-1.34c0.91-1.07,0.78-2.65,0.6-4.05
				c-9.41-71.88-18.82-143.74-28.23-215.61l2.89-0.38c0.58,4.51,1.19,9.02,1.8,13.52c7.98,59.12,15.96,118.24,23.94,177.37
				C265.22,329.95,266.49,339.32,269.17,348.35z"/>
			<path class="st0" d="M263.56,345.72c0.18,1.4,0.31,2.98-0.6,4.05c-0.81,0.97-2.19,1.18-3.44,1.34
				c-36.74,4.44-73.9,5.4-110.82,2.85c-3.21-0.22-6.52-0.49-9.38-1.96c-2.87-1.46-5.21-4.41-4.97-7.62
				c6.11-80.45,36.12-157.76,42.98-237.98c0.41-4.74,0.74-9.49,0.97-14.26c17.26,1.18,34.66,0.33,51.73-2.51
				c1.77,13.49,3.53,26.99,5.3,40.48C244.74,201.98,254.15,273.84,263.56,345.72z"/>
			<path class="st0" d="M238.22,129.73l-2.89,0.38c-1.77-13.49-3.53-26.99-5.3-40.48c-17.07,2.84-34.47,3.69-51.73,2.51
				c-0.23,4.77-0.56,9.52-0.97,14.26l-2.58-0.21c0.58-7.03,0.74-14.11-0.44-21.05c-0.51-3.01-0.9-6.04-1.16-9.09l2.82-0.09
				c0.94,2.07,1.01,4.41,1.46,6.64c0.45,2.22,1.49,4.57,3.55,5.52c0.85,0.39,1.79,0.51,2.72,0.61c13.45,1.48,27.14,0.79,40.37-2.03
				c1.32-0.28,2.7-0.62,3.69-1.53c1.52-1.39,1.71-3.67,1.8-5.72c0.22-5.15,0.45-10.3,0.67-15.44c0.09-1.93,0.03-4.17-1.49-5.34
				c-1.41-1.09-3.41-0.73-5.14-0.36l-0.48-2.35c1.33-0.26,2.65-0.55,3.97-0.87c1.45-0.35,2.01-2.28,1.43-3.66
				c-0.58-1.37-1.91-2.25-3.23-2.95c-4.28-2.28-9.16-3.45-14.01-3.35c-1.66,0.03-3.45,0.17-4.84-0.74c-1.61-1.07-3.51-1.4-5.47-1.4
				l0.09-2.62c7.19,0.17,14.36,1.39,21.2,3.66c5.7,1.89,12.08,5.91,11.72,11.91C232.48,80.58,235.03,105.22,238.22,129.73z"/>
			<path class="st0" d="M228.74,58.67c1.52,1.17,1.58,3.41,1.49,5.34c-0.22,5.14-0.45,10.29-0.67,15.44
				c-0.09,2.05-0.28,4.33-1.8,5.72c-0.99,0.91-2.37,1.25-3.69,1.53c-13.23,2.82-26.92,3.51-40.37,2.03
				c-0.93-0.1-1.87-0.22-2.72-0.61c-2.06-0.95-3.1-3.3-3.55-5.52c-0.45-2.23-0.52-4.57-1.46-6.64c0.55-4.95,0.84-9.93,0.87-14.91
				c0.01-1.33,1.31-2.35,2.63-2.55c1.31-0.19,2.63,0.22,3.9,0.57c13.05,3.65,26.99,2.14,40.23-0.76
				C225.33,57.94,227.33,57.58,228.74,58.67z"/>
			<path class="st0" d="M228.52,51.43c0.58,1.38,0.02,3.31-1.43,3.66c-1.32,0.32-2.64,0.61-3.97,0.87
				c-12.49,2.52-25.46,2.65-38.01,0.41c-2.52-0.46-5.39-1.29-6.37-3.66c-0.94-2.26,0.44-4.94,2.47-6.29c2.04-1.35,4.56-1.7,6.99-2
				c2.87-0.37,5.74-0.73,8.61-1.09c1.36-0.17,2.77-0.34,4.16-0.34c1.96,0,3.86,0.33,5.47,1.4c1.39,0.91,3.18,0.77,4.84,0.74
				c4.85-0.1,9.73,1.07,14.01,3.35C226.61,49.18,227.94,50.06,228.52,51.43z"/>
			<path class="st0" d="M223.12,55.96l0.48,2.35c-13.24,2.9-27.18,4.41-40.23,0.76c-1.27-0.35-2.59-0.76-3.9-0.57
				c-1.32,0.2-2.62,1.22-2.63,2.55c-0.03,4.98-0.32,9.96-0.87,14.91l-2.82,0.09c-0.58-6.73-0.52-13.52,0.18-20.24
				c0.4-3.86,1.16-8,3.97-10.67c2.17-2.05,5.19-2.88,8.12-3.45c5.15-1.01,10.4-1.45,15.64-1.32l-0.09,2.62
				c-1.39,0-2.8,0.17-4.16,0.34c-2.87,0.36-5.74,0.72-8.61,1.09c-2.43,0.3-4.95,0.65-6.99,2c-2.03,1.35-3.41,4.03-2.47,6.29
				c0.98,2.37,3.85,3.2,6.37,3.66C197.66,58.61,210.63,58.48,223.12,55.96z"/>
		</g>
	</g>
	<path class="st4" d="M186.26,90.06c0.36,1.16,0.84,2.39,1.93,3.04c0.86,0.52,1.94,0.57,2.96,0.61c7.83,0.29,15.65,0.59,23.48,0.88
		c3.72,0.14,7.5,0.27,11.1-0.62c3.6-0.89,7.04-2.97,8.51-6.14c0.75-1.61,0.95-3.39,1.13-5.13c0.58-5.31,1.15-10.61,1.73-15.92
		c0.3-2.75,0.51-5.8-1.32-7.98c-1.59-1.91-4.4-2.63-7-2.51c-2.6,0.12-5.09,0.94-7.6,1.59c-6.22,1.61-12.66,2.18-19.1,2.28
		c-3.31,0.05-13.25-2.01-15.83-0.46C180.29,63.28,184.54,84.47,186.26,90.06z"/>
	<path class="st6" d="M225.74,60.21c1.62-0.26,3.28-0.58,4.68-1.45c4.07-2.52,4.18-8.89,1.24-12.67c-2.94-3.78-7.87-5.4-12.61-6.08
		c-10.58-1.51-31.83-5.39-36.99,7.91C176.47,62.33,217.45,61.52,225.74,60.21z"/>
	<path class="st4" d="M218.03,99.71c0.25,13.78,3.49,27.32,4.53,41.05c1.05,13.84-0.13,27.77,0.81,41.62
		c1.35,19.92,7.09,39.69,5.02,59.55c-0.76,7.29-2.56,14.42-3.5,21.69c-1.28,9.9-0.95,19.93-0.62,29.9
		c0.3,9.13,0.61,18.26,0.91,27.39c0.14,4.08,0.04,8.74-2.97,11.42c-3.58,3.19-9.18,1.72-13.63,3.41c-4.11,1.56-6.73,5.59-9.76,8.83
		c-5.1,5.46-12.03,9.09-19.33,10.12c9.34,4.16,19.73,5.83,29.86,4.82c6.35-0.64,12.55-2.3,18.86-3.31
		c10.47-1.68,21.13-1.54,31.68-2.59c2.1-0.21,4.3-0.5,6.03-1.76c3.04-2.21,3.58-6.57,3.57-10.4c-0.07-22.38-9.92-43.68-11.15-66.02
		c-0.46-8.42,0.3-16.87-0.12-25.29c-1.21-23.76-11.81-46.06-14.44-69.7c-0.99-8.93-0.83-17.94-0.7-26.93
		c0.29-19.81,0.31-40.29-7.23-58.53c-0.63-1.51-1.35-3.07-2.65-4.05C226.14,85.62,217.9,92.33,218.03,99.71z"/>
</g>
<g id="Layer_1">
	<path class="st12" d="M222.55,336.51c-8.1-1.74-16.09,7.65-23.81,4.63c-2.78-1.09-4.87-3.67-7.77-4.37
		c-3.95-0.95-7.7,1.83-11.51,3.25c-3.43,1.27-7.25,1.45-10.78,0.48c-1.37-0.37-2.86-1.08-3.26-2.44c-0.4-1.36,1.31-3.03,2.39-2.1
		c2.26,1.94,5.63,1.97,8.5,1.18c2.87-0.79,5.52-2.26,8.4-3.04c4.97-1.34,10.51-0.4,14.77,2.49c2.94,1.99,6.94,1.13,10.17-0.33
		s6.37-3.48,9.91-3.66c3.1-0.16,6.19,1.14,9.26,0.63c0.96-0.16,1.98-0.49,2.88-0.11c1.54,0.64,1.57,3.06,0.33,4.18
		c-1.24,1.12-3.12,1.16-4.74,0.75S224.18,336.86,222.55,336.51z"/>
	<path class="st12" d="M213.81,307.88c-0.05-2.81,0.23-6.21,2.73-7.5c1.86-0.96,4.21-0.27,6.13-1.08c1.98-0.83,4.46,0.36,5.34,2.31
		c0.88,1.96,0.31,4.39-1.12,5.99c-1.43,1.6-3.58,2.44-5.72,2.61c-1.37,0.11-2.87,0.01-3.98,0.82c0.93-0.14,1.53,1.02,1.48,1.96
		c-0.06,0.94-0.45,1.88-0.19,2.79c0.38,1.36,0.77,2.8,0.4,4.16c-0.37,1.36-1.79,2.55-3.13,2.13c-1.43-0.45-1.87-2.29-1.68-3.77
		c0.18-1.49,0.74-3,0.35-4.44C213.89,311.91,213.85,309.88,213.81,307.88 M225.14,304.29c0.31-0.95-0.82-1.74-1.81-1.9
		c-2.31-0.39-4.8,0.69-6.1,2.65c2.03,1.73,5.32,1.73,7.34-0.01C224.81,304.82,225.04,304.58,225.14,304.29z"/>
	<path class="st12" d="M159.88,319.64c0.36-1.85,3.2-1.55,4.66-2.73c1.1-0.89,1.25-2.55,0.89-3.92c-0.36-1.37-1.12-2.6-1.55-3.95
		c-0.81-2.58-0.28-5.54,1.37-7.68s4.39-3.4,7.09-3.27c0.6,0.03,1.35,0.28,1.37,0.88c0.02,0.62-0.74,0.91-1.33,1.09
		c-2.78,0.84-5.01,3.27-5.63,6.1c-0.16,0.72-0.21,1.5,0.12,2.15c1.33,2.65,2.29,5.67,1.67,8.57c-0.62,2.9-3.29,5.52-6.24,5.19
		C161.02,321.94,159.63,320.91,159.88,319.64z"/>
	<path class="st12" d="M196.19,321.65c-0.19,1.66-1.41,3.71-2.98,3.14c-1.17-0.43-1.36-1.97-1.36-3.22
		c0.01-4.41,0.02-8.81,0.03-13.22c0-1.01,0.02-2.08,0.59-2.91c0.56-0.83,1.89-1.22,2.59-0.49c0.41,0.43,0.47,1.08,0.51,1.67
		c0.14,2.36,0.29,4.72,0.43,7.08c0.06,0.96,0.12,1.92,0.18,2.88C196.28,318.27,196.39,319.97,196.19,321.65z"/>
	<path class="st12" d="M145.76,357.3c-6.77-0.75-15.45-3.93-14.94-10.72c5.93-79.48,35.06-155.65,43.52-234.9
		c0.95-8.93,1.64-18,0.12-26.86c-1.66-9.67-1.99-19.57-0.98-29.33c0.4-3.86,1.16-8,3.97-10.67c2.16-2.05,5.19-2.88,8.12-3.45
		c12.21-2.39,25.03-1.58,36.84,2.34c5.7,1.89,12.08,5.91,11.72,11.91c-1.78,29.17,2.14,58.35,6.04,87.31
		c7.98,59.12,15.96,118.25,23.94,177.37c1.26,9.33,2.53,18.71,5.21,27.73c1.32,4.44-4.92,6.97-9.54,7.35
		C221.83,358.42,183.6,361.46,145.76,357.3 M134.5,344.06c-0.24,3.21,2.1,6.16,4.97,7.62c2.86,1.46,6.17,1.74,9.38,1.96
		c36.92,2.55,74.08,1.59,110.83-2.85c1.25-0.15,2.63-0.37,3.44-1.33c0.91-1.08,0.78-2.66,0.59-4.05
		c-11.17-85.36-22.35-170.73-33.52-256.09c-17.07,2.85-34.47,3.69-51.73,2.51C174.25,177.17,140.97,258.85,134.5,344.06
		 M176.12,75.64c0.94,2.07,1.01,4.41,1.46,6.64c0.45,2.23,1.49,4.57,3.55,5.52c0.85,0.39,1.8,0.51,2.73,0.61
		c13.45,1.48,27.13,0.79,40.36-2.03c1.32-0.28,2.7-0.62,3.7-1.53c1.51-1.39,1.7-3.67,1.79-5.72c0.23-5.15,0.45-10.3,0.68-15.44
		c0.08-1.92,0.03-4.16-1.5-5.34c-1.41-1.08-3.41-0.73-5.14-0.35c-13.23,2.9-27.18,4.41-40.22,0.76c-1.28-0.36-2.6-0.77-3.91-0.57
		c-1.31,0.2-2.61,1.22-2.62,2.55C176.96,65.71,176.66,70.69,176.12,75.64 M227.24,54.77c1.45-0.35,2.01-2.28,1.43-3.65
		c-0.58-1.37-1.91-2.26-3.23-2.96c-4.29-2.28-9.16-3.45-14.01-3.35c-1.66,0.03-3.45,0.17-4.84-0.74c-2.75-1.82-6.35-1.48-9.63-1.06
		c-2.87,0.36-5.74,0.73-8.61,1.09c-2.43,0.31-4.95,0.65-6.99,2c-2.04,1.35-3.42,4.04-2.48,6.3c0.98,2.36,3.85,3.2,6.37,3.65
		C199.14,58.53,213.53,58.1,227.24,54.77z"/>
</g>
</svg>
