<?xml version="1.0" encoding="utf-8"?>
<!-- Generator: Adobe Illustrator 23.0.1, SVG Export Plug-In . SVG Version: 6.00 Build 0)  -->
<svg version="1.1" xmlns="http://www.w3.org/2000/svg" xmlns:xlink="http://www.w3.org/1999/xlink" x="0px" y="0px"
	 viewBox="0 0 400 500" style="enable-background:new 0 0 400 500;" xml:space="preserve">
<style type="text/css">
	.st0{fill:#D1C1C1;}
	.st1{fill:#EAA2A2;}
	.st2{fill:#FCD9D9;}
	.st3{fill:#A3DBE0;}
	.st4{fill:none;}
	.st5{fill:#77B7B7;}
	.st6{fill:#F9B6B3;}
	.st7{fill:#B0DCC1;}
	.st8{fill:#CFCFCE;}
	.st9{fill:#848484;}
	.st10{fill:#8C5E5E;stroke:#8C5E5E;stroke-width:0.25;stroke-miterlimit:10;}
	.st11{fill:#2D4E7B;}
	.st12{fill:#61846D;}
</style>
<g id="Layer_2">
	<path class="st3" d="M186.26,140.06c0.36,1.16,0.84,2.39,1.93,3.04c0.86,0.52,1.94,0.57,2.96,0.61c7.83,0.29,15.65,0.59,23.48,0.88
		c3.72,0.14,7.5,0.27,11.1-0.62c3.6-0.89,7.04-2.97,8.51-6.14c0.75-1.61,0.95-3.39,1.13-5.13c0.58-5.31,1.15-10.61,1.73-15.92
		c0.3-2.75,0.51-5.8-1.32-7.98c-1.59-1.91-4.4-2.63-7-2.51c-2.6,0.12-5.09,0.94-7.6,1.59c-6.22,1.61-12.66,2.18-19.1,2.28
		c-3.31,0.05-13.25-2.01-15.83-0.46C180.29,113.28,184.54,134.47,186.26,140.06z"/>
	<path class="st5" d="M225.74,110.21c1.62-0.26,3.28-0.58,4.68-1.45c4.07-2.52,4.18-8.89,1.24-12.67c-2.94-3.78-7.87-5.4-12.61-6.08
		c-10.58-1.51-31.83-5.39-36.99,7.91C176.47,112.33,217.45,111.52,225.74,110.21z"/>
	<path class="st3" d="M218.03,149.71c0.25,13.78,3.49,27.32,4.53,41.05c1.05,13.84-0.13,27.77,0.81,41.62
		c1.35,19.92,7.09,39.69,5.02,59.55c-0.76,7.29-2.56,14.42-3.5,21.69c-1.28,9.9-0.95,19.93-0.62,29.9
		c0.3,9.13,0.61,18.26,0.91,27.39c0.14,4.08,0.04,8.74-2.97,11.42c-3.58,3.19-9.18,1.72-13.63,3.41c-4.11,1.56-6.73,5.59-9.76,8.83
		c-5.1,5.46-12.03,9.09-19.33,10.12c9.34,4.16,19.73,5.83,29.86,4.82c6.35-0.64,12.55-2.3,18.86-3.31
		c10.47-1.68,21.13-1.54,31.68-2.59c2.1-0.21,4.3-0.5,6.03-1.76c3.04-2.21,3.58-6.57,3.57-10.4c-0.07-22.38-9.92-43.68-11.15-66.02
		c-0.46-8.42,0.3-16.87-0.12-25.29c-1.21-23.76-11.81-46.06-14.44-69.7c-0.99-8.93-0.83-17.94-0.7-26.93
		c0.29-19.81,0.31-40.29-7.23-58.53c-0.63-1.51-1.35-3.07-2.65-4.05C226.14,135.62,217.9,142.33,218.03,149.71z"/>
</g>
<g id="Layer_1">
	<path class="st11" d="M222.55,386.51c-8.1-1.74-16.09,7.65-23.81,4.63c-2.78-1.09-4.87-3.67-7.77-4.37
		c-3.95-0.95-7.7,1.83-11.51,3.25c-3.43,1.27-7.25,1.45-10.78,0.48c-1.37-0.37-2.86-1.08-3.26-2.44c-0.4-1.36,1.31-3.03,2.39-2.1
		c2.26,1.94,5.63,1.97,8.5,1.18c2.87-0.79,5.52-2.26,8.4-3.04c4.97-1.34,10.51-0.4,14.77,2.49c2.94,1.99,6.94,1.13,10.17-0.33
		s6.37-3.48,9.91-3.66c3.1-0.16,6.19,1.14,9.26,0.63c0.96-0.16,1.98-0.49,2.88-0.11c1.54,0.64,1.57,3.06,0.33,4.18
		c-1.24,1.12-3.12,1.16-4.74,0.75S224.18,386.86,222.55,386.51z"/>
	<path class="st11" d="M213.81,357.88c-0.05-2.81,0.23-6.21,2.73-7.5c1.86-0.96,4.21-0.27,6.13-1.08c1.98-0.83,4.46,0.36,5.34,2.31
		c0.88,1.96,0.31,4.39-1.12,5.99c-1.43,1.6-3.58,2.44-5.72,2.61c-1.37,0.11-2.87,0.01-3.98,0.82c0.93-0.14,1.53,1.02,1.48,1.96
		c-0.06,0.94-0.45,1.88-0.19,2.79c0.38,1.36,0.77,2.8,0.4,4.16c-0.37,1.36-1.79,2.55-3.13,2.13c-1.43-0.45-1.87-2.29-1.68-3.77
		c0.18-1.49,0.74-3,0.35-4.44C213.89,361.91,213.85,359.88,213.81,357.88 M225.14,354.29c0.31-0.95-0.82-1.74-1.81-1.9
		c-2.31-0.39-4.8,0.69-6.1,2.65c2.03,1.73,5.32,1.73,7.34-0.01C224.81,354.82,225.04,354.58,225.14,354.29z"/>
	<path class="st11" d="M159.88,369.64c0.36-1.85,3.2-1.55,4.66-2.73c1.1-0.89,1.25-2.55,0.89-3.92c-0.36-1.37-1.12-2.6-1.55-3.95
		c-0.81-2.58-0.28-5.54,1.37-7.68s4.39-3.4,7.09-3.27c0.6,0.03,1.35,0.28,1.37,0.88c0.02,0.62-0.74,0.91-1.33,1.09
		c-2.78,0.84-5.01,3.27-5.63,6.1c-0.16,0.72-0.21,1.5,0.12,2.15c1.33,2.65,2.29,5.67,1.67,8.57c-0.62,2.9-3.29,5.52-6.24,5.19
		C161.02,371.94,159.63,370.91,159.88,369.64z"/>
	<path class="st11" d="M196.19,371.65c-0.19,1.66-1.41,3.71-2.98,3.14c-1.17-0.43-1.36-1.97-1.36-3.22
		c0.01-4.41,0.02-8.81,0.03-13.22c0-1.01,0.02-2.08,0.59-2.91c0.56-0.83,1.89-1.22,2.59-0.49c0.41,0.43,0.47,1.08,0.51,1.67
		c0.14,2.36,0.29,4.72,0.43,7.08c0.06,0.96,0.12,1.92,0.18,2.88C196.28,368.27,196.39,369.97,196.19,371.65z"/>
	<path class="st11" d="M145.76,407.3c-6.77-0.75-15.45-3.93-14.94-10.72c5.93-79.48,35.06-155.65,43.52-234.9
		c0.95-8.93,1.64-18,0.12-26.86c-1.66-9.67-1.99-19.57-0.98-29.33c0.4-3.86,1.16-8,3.97-10.67c2.16-2.05,5.19-2.88,8.12-3.45
		c12.21-2.39,25.03-1.58,36.84,2.34c5.7,1.89,12.08,5.91,11.72,11.91c-1.78,29.17,2.14,58.35,6.04,87.31
		c7.98,59.12,15.96,118.25,23.94,177.37c1.26,9.33,2.53,18.71,5.21,27.73c1.32,4.44-4.92,6.97-9.54,7.35
		C221.83,408.42,183.6,411.46,145.76,407.3 M134.5,394.06c-0.24,3.21,2.1,6.16,4.97,7.62c2.86,1.46,6.17,1.74,9.38,1.96
		c36.92,2.55,74.08,1.59,110.83-2.85c1.25-0.15,2.63-0.37,3.44-1.33c0.91-1.08,0.78-2.66,0.59-4.05
		c-11.17-85.36-22.35-170.73-33.52-256.09c-17.07,2.85-34.47,3.69-51.73,2.51C174.25,227.17,140.97,308.85,134.5,394.06
		 M176.12,125.64c0.94,2.07,1.01,4.41,1.46,6.64c0.45,2.23,1.49,4.57,3.55,5.52c0.85,0.39,1.8,0.51,2.73,0.61
		c13.45,1.48,27.13,0.79,40.36-2.03c1.32-0.28,2.7-0.62,3.7-1.53c1.51-1.39,1.7-3.67,1.79-5.72c0.23-5.15,0.45-10.3,0.68-15.44
		c0.08-1.92,0.03-4.16-1.5-5.34c-1.41-1.08-3.41-0.73-5.14-0.35c-13.23,2.9-27.18,4.41-40.22,0.76c-1.28-0.36-2.6-0.77-3.91-0.57
		c-1.31,0.2-2.61,1.22-2.62,2.55C176.96,115.71,176.66,120.69,176.12,125.64 M227.24,104.77c1.45-0.35,2.01-2.28,1.43-3.65
		c-0.58-1.37-1.91-2.26-3.23-2.96c-4.29-2.28-9.16-3.45-14.01-3.35c-1.66,0.03-3.45,0.17-4.84-0.74c-2.75-1.82-6.35-1.48-9.63-1.06
		c-2.87,0.36-5.74,0.73-8.61,1.09c-2.43,0.31-4.95,0.65-6.99,2c-2.04,1.35-3.42,4.04-2.48,6.3c0.98,2.36,3.85,3.2,6.37,3.65
		C199.14,108.53,213.53,108.1,227.24,104.77z"/>
</g>
</svg>
