<?xml version="1.0" encoding="utf-8"?>
<!-- Generator: Adobe Illustrator 23.0.1, SVG Export Plug-In . SVG Version: 6.00 Build 0)  -->
<svg version="1.1" xmlns="http://www.w3.org/2000/svg" xmlns:xlink="http://www.w3.org/1999/xlink" x="0px" y="0px"
	 viewBox="0 0 400 400" style="enable-background:new 0 0 400 400;" xml:space="preserve">
<style type="text/css">
	.st0{fill:#D1C1C1;}
	.st1{fill:#EAA2A2;}
	.st2{fill:#FCD9D9;}
	.st3{fill:#A3DBE0;}
	.st4{fill:none;}
	.st5{fill:#77B7B7;}
	.st6{fill:#F9B6B3;}
	.st7{fill:#B0DCC1;}
	.st8{fill:#CFCFCE;}
	.st9{fill:#848484;}
	.st10{fill:#8C5E5E;stroke:#8C5E5E;stroke-width:0.25;stroke-miterlimit:10;}
	.st11{fill:#2D4E7B;}
	.st12{fill:#61846D;}
	.st13{fill:#FFFFFF;}
	.st14{font-family:'GothamRounded-Book';}
	.st15{font-size:60.3155px;}
</style>
<g id="Layer_2">
	<path class="st4" d="M-2.16,116.25c2.11-0.37,4.34,0.02,6.2,1.08"/>
	<path class="st6" d="M148.46,152.53c2.92,55.94,1.62,112.15-0.42,168.19c-0.14,3.9-0.26,7.97,0.92,11.51
		c3.15,9.46,12.78,9.46,20.32,8.24c23.67-3.81,47.55-4.96,71.34-3.44c2.1,0.13,4.37,0.23,6.12-1.41c1.93-1.81,2.64-5.19,3.13-8.32
		c2.05-13.06,2.55-26.47,3.03-39.81c2.39-66.87,4.15-133.77,5.27-200.7c0.03-1.68,0.03-3.49-0.67-4.86
		c-1.01-2.01-3.05-2.31-4.84-2.39c-5.75-0.26-11.51-0.2-17.25-0.76c-7.99-0.78-15.89-2.78-23.86-3.88
		c-10.84-1.5-21.77-1.31-32.64-0.4c-7.15,0.6-19.92-1.25-26.42,2.89C139.98,85.39,147.67,137.51,148.46,152.53z"/>
	<path class="st7" d="M98.25,108.8c4.95,70.53,4.74,141.42-0.64,211.92c-0.39,5.15-0.45,11.19,3.57,14.42
		c2.21,1.77,5.16,2.24,7.96,2.61c28.72,3.77,57.93,3.89,86.68,0.34c8.78-1.08,18.62-3.2,23.28-10.72
		c2.95-4.76,3.12-10.67,3.21-16.26c0.57-37.73,1.14-75.46,1.71-113.19c0.35-23.29-2.35-29.46-12.47-50.44
		c-5.11-10.59-15.1-26.36-22.54-35.48c-7.09-8.69-11.46-20.87-21.33-26.19c-6.84-3.69-12.19-13.73-19.88-14.83
		C117.26,66.59,95.82,74.14,98.25,108.8z"/>
	<path class="st8" d="M285.38,310.27c0.07,6.52,0.15,13.05,0.78,19.54c0.3,3.08,1.04,6.61,3.79,8.02c1.22,0.62,2.63,0.7,3.99,0.76
		c4.38,0.21,8.75,0.42,13.13,0.63c1.98,0.09,4.31,0.03,5.44-1.59c0.65-0.93,0.72-2.14,0.75-3.28c0.74-21.78,1.47-43.55,2.21-65.33
		c0.07-1.98,0.02-4.24-1.46-5.56c-0.84-0.75-1.99-1.02-3.09-1.25c-8.85-1.79-24.49-5.6-26.01,6.05
		C283.17,281.68,285.23,296.73,285.38,310.27z"/>
</g>
<g id="Layer_1">
	<path class="st12" d="M305.85,335.74c-7.65,0.03-15.29-0.58-22.84-1.82c-1.05-0.17-2.15-0.38-2.94-1.08
		c-1.16-1.02-1.32-2.73-1.4-4.27c-1.19-22.73-1.42-45.5-0.69-68.25c0.06-1.86,0.17-3.85,1.28-5.35c1.9-2.55,5.66-2.49,8.83-2.18
		c5.69,0.56,11.39,1.12,17.08,1.68c3.26,0.32,7.55,1.86,7.08,5.1c-3.3,22.68-3.85,45.76-1.63,68.58c0.27,2.72,0.15,6.2-2.37,7.25
		C307.5,335.73,306.67,335.74,305.85,335.74 M285.74,329.76c5.44,0.21,10.87,0.41,16.31,0.62c1.66,0.06,3.96-0.49,3.83-2.14
		c-1.7-21.11-1.38-42.39,0.94-63.44c0.14-1.26,0.26-2.65-0.46-3.7c-0.89-1.29-2.66-1.54-4.23-1.67c-6.16-0.51-12.32-1.03-18.48-1.54
		c-0.42-0.04-0.88-0.06-1.22,0.19c-0.45,0.32-0.5,0.95-0.51,1.51c-0.41,21.63-0.17,43.28,0.72,64.9
		C282.73,326.73,283.48,329.68,285.74,329.76z"/>
	<g>
		<path class="st12" d="M108.07,336.01c-5.02,0.16-12.42-0.54-17.16-2.84c-4.75-2.3-2.94-10.3-2.47-14.55
			c8.87-80.6,4.06-161.17-0.64-241.99c-0.21-3.59,2.25-7.04,5.43-8.83c3.18-1.79,6.84-2.51,10.5-2.94c42.62-5,85.35,2.1,128.07,0.14
			c4.15-0.19,8.59-0.55,11.9,2.37c3.86,3.4,4.05,8.48,3.96,13.38c-1.59,79.08-2.98,158.33-2.54,237.15
			c0.03,6.07,2.65,12.9-3.73,14.94c-13.41,4.27-27.33,2.88-41.2,3.18C169.38,337.07,139.04,335,108.07,336.01 M208.3,323.95
			c3.67-49.52,3.87-99.41,2.4-149.04c-0.1-3.5-0.22-6.96-1.24-10.34c-1.41-4.7-4.12-8.74-6.95-12.69
			c-19.3-26.97-40.06-52.79-62.12-77.5c-1.63-1.83-3.45-3.68-5.58-4.59c-2.13-0.9-4.15-0.88-6.25-0.82
			c-9.17,0.25-18.5,1.45-27.29,3.35c-3.44,0.74-7.7,2.62-7.53,6.25c4.01,82.02,7.63,162.78,0.11,244.65
			c-0.32,3.44,2.53,6.26,5.75,7.47c3.21,1.21,6.76,1.12,10.33,0.94c31.46-1.57,63.09-2.06,94.59-3.64c0.83-0.04,1.67-0.04,2.35-0.54
			C208.01,326.61,208.2,325.27,208.3,323.95 M145.44,71.52c20.53,25.64,41.29,51.44,61.94,77.13c2.43,3.02,4.85,6.16,6.16,9.77
			c1.07,2.94,1.25,6.34,1.39,9.45c2.22,51.17,0.24,105.58-0.66,155.66c-0.01,0.79-0.59,1.6,0,0c-0.14,7.61-0.21,7.17,0.69,7.42
			c7.81,2.2,17.75,2.65,23.1-3.84c3.32-4.03,1.56-17.21,1.54-21.85c-0.33-70.07,1-139.2,2.43-208.97
			c0.15-7.35,0.15-14.38-0.61-21.71c-0.06-0.55-0.13-1.08-0.57-1.51c-0.44-0.43-1.11-0.51-1.73-0.53
			c-31.21-1.18-62.36-2.59-93.6-3.73C144.34,68.77,144.71,70.61,145.44,71.52z"/>
	</g>
	<text transform="matrix(0 -1 1 0 193.4303 314.7201)" class="st13 st14 st15">GUM</text>
</g>
</svg>
