<?xml version="1.0" encoding="utf-8"?>
<!-- Generator: Adobe Illustrator 23.0.1, SVG Export Plug-In . SVG Version: 6.00 Build 0)  -->
<svg version="1.1" xmlns="http://www.w3.org/2000/svg" xmlns:xlink="http://www.w3.org/1999/xlink" x="0px" y="0px"
	 viewBox="0 0 400 400" style="enable-background:new 0 0 400 400;" xml:space="preserve">
<style type="text/css">
	.st0{fill:#FFFFFF;}
	.st1{fill:#D1C1C1;}
	.st2{fill:#EAA2A2;}
	.st3{fill:#FCD9D9;}
	.st4{fill:#A3DBE0;}
	.st5{fill:none;}
	.st6{fill:#77B7B7;}
	.st7{fill:#F9B6B3;}
	.st8{fill:#B0DCC1;}
	.st9{fill:#CFCFCE;}
	.st10{fill:#848484;}
	.st11{fill:#8C5E5E;stroke:#8C5E5E;stroke-width:0.25;stroke-miterlimit:10;}
	.st12{fill:#2D4E7B;}
	.st13{fill:#61846D;}
</style>
<g id="Layer_2">
	<g id="XMLID_3_">
		<g>
			<path class="st0" d="M298.77,102.26c5,59.54-5.93,119.65,0.07,179.09c0.45,4.45-3.09,8.53-7.24,10.21
				c-4.14,1.69-8.78,1.53-13.25,1.36c-51.82-1.94-103.73-1.41-155.5,1.6c-4.59,0.27-10.28-0.04-12.27-4.2
				c-0.68-1.44-0.75-3.08-0.8-4.67c-0.74-21.42-1.47-42.85-2.21-64.27c-0.57-16.69-1.14-33.41-0.44-50.1
				c0.85-20.12,3.41-41.17-4.5-59.7c-1.14-2.66-2.51-5.4-2.31-8.29c0.2-2.89,2.79-5.84,5.61-5.18
				c57.58,13.45,117.64,3.43,176.41-3.04c3.33-0.37,6.78-0.72,9.99,0.25C295.54,96.29,298.49,98.92,298.77,102.26z M292.68,198.66
				c2.97-29.29,3.66-58.81,2.05-88.21c-0.22-4.04-1.21-9.04-5.12-10.1c-3.66-1-7.25,2.36-11.03,2.07
				c-16.91-1.28-33.8,1.63-50.63,3.67c-38.82,4.7-78.21,4.75-117.04,0.14c-2.57-0.31-2.82,3.66-2.06,6.14
				c8.88,29.15,0.62,60.63,3.42,90.97c0.12,1.24,0.33,2.62,1.31,3.39c0.82,0.65,1.96,0.67,3.01,0.66c21.85-0.2,43.7-0.39,65.55-0.59
				c2.52-0.02,5.26-0.11,7.22-1.7c1.96-1.58,2.3-5.24,0.04-6.34c-1.27-0.61-1.1-2.64-0.02-3.54c1.07-0.9,2.59-0.99,3.99-1.04
				c3.71-0.13,7.42-0.26,11.12-0.39c1.87-0.06,3.81-0.12,5.53,0.6c1.73,0.73,3.18,2.45,2.96,4.31c-0.24,2.03,1.28,3.94,3.13,4.81
				c1.85,0.88,3.97,0.94,6.01,0.99c20.47,0.49,40.95,0.77,61.43,0.87c2.98,0.01,6.49-0.25,8.09-2.77
				C292.38,201.45,292.54,200.02,292.68,198.66z M290.89,286.15c1.72-1.01,1.9-3.39,1.88-5.39c-0.23-21.61-0.45-43.22-0.68-64.83
				c-0.01-1.01-0.03-2.06-0.46-2.97c-1.12-2.38-4.31-2.74-6.94-2.76c-22.4-0.22-44.8-0.43-67.2-0.64c-1.77-0.02-4.17,0.57-4.08,2.34
				c0.28,5.44,0.56,10.89,0.83,16.33c0.09,1.71,0.04,3.71-1.33,4.72c-0.96,0.7-2.24,0.67-3.42,0.6c-5.63-0.29-12.1-1.02-15.26-5.69
				c-2.12-3.13-2.11-7.19-3.02-10.86c-0.92-3.67-3.72-7.59-7.48-7.21c-22.7,2.26-45.55,2.92-68.33,1.95
				c-2.36-0.1-3.1,3.13-3.02,5.49c0.72,21.23,1.43,42.46,2.14,63.69c0.13,3.76,1.59,8.81,5.34,8.48
				c55.89-4.93,112.17-1.06,168.25-2.7C289.07,286.68,290.07,286.63,290.89,286.15z M208.52,225.6c0.47-0.86,0.48-1.89,0.47-2.87
				c-0.02-6.63-0.04-13.27-0.07-19.9c-0.01-1.74-1.42-3.21-3.03-3.85c-1.61-0.63-3.39-0.6-5.13-0.56c-2.25,0.05-5.21,0.74-5.31,2.99
				c-0.32,6.89,0.25,13.82,1.7,20.56c0.24,1.12,0.53,2.29,1.3,3.15c0.79,0.9,1.98,1.33,3.13,1.69
				C204.02,227.57,207.3,227.85,208.52,225.6z"/>
			<path class="st0" d="M294.73,110.45c1.61,29.4,0.92,58.92-2.05,88.21c-0.14,1.36-0.3,2.79-1.04,3.94
				c-1.6,2.52-5.11,2.78-8.09,2.77c-20.48-0.1-40.96-0.38-61.43-0.87c-2.04-0.05-4.16-0.11-6.01-0.99
				c-1.85-0.87-3.37-2.78-3.13-4.81c0.22-1.86-1.23-3.58-2.96-4.31c-1.72-0.72-3.66-0.66-5.53-0.6c-3.7,0.13-7.41,0.26-11.12,0.39
				c-1.4,0.05-2.92,0.14-3.99,1.04c-1.08,0.9-1.25,2.93,0.02,3.54c2.26,1.1,1.92,4.76-0.04,6.34c-1.96,1.59-4.7,1.68-7.22,1.7
				c-21.85,0.2-43.7,0.39-65.55,0.59c-1.05,0.01-2.19-0.01-3.01-0.66c-0.98-0.77-1.19-2.15-1.31-3.39
				c-2.8-30.34,5.46-61.82-3.42-90.97c-0.76-2.48-0.51-6.45,2.06-6.14c38.83,4.61,78.22,4.56,117.04-0.14
				c16.83-2.04,33.72-4.95,50.63-3.67c3.78,0.29,7.37-3.07,11.03-2.07C293.52,101.41,294.51,106.41,294.73,110.45z"/>
			<path class="st0" d="M292.77,280.76c0.02,2-0.16,4.38-1.88,5.39c-0.82,0.48-1.82,0.53-2.78,0.55
				c-56.08,1.64-112.36-2.23-168.25,2.7c-3.75,0.33-5.21-4.72-5.34-8.48c-0.71-21.23-1.42-42.46-2.14-63.69
				c-0.08-2.36,0.66-5.59,3.02-5.49c22.78,0.97,45.63,0.31,68.33-1.95c3.76-0.38,6.56,3.54,7.48,7.21c0.91,3.67,0.9,7.73,3.02,10.86
				c3.16,4.67,9.63,5.4,15.26,5.69c1.18,0.07,2.46,0.1,3.42-0.6c1.37-1.01,1.42-3.01,1.33-4.72c-0.27-5.44-0.55-10.89-0.83-16.33
				c-0.09-1.77,2.31-2.36,4.08-2.34c22.4,0.21,44.8,0.42,67.2,0.64c2.63,0.02,5.82,0.38,6.94,2.76c0.43,0.91,0.45,1.96,0.46,2.97
				C292.32,237.54,292.54,259.15,292.77,280.76z"/>
			<path class="st0" d="M208.99,222.73c0.01,0.98,0,2.01-0.47,2.87c-1.22,2.25-4.5,1.97-6.94,1.21c-1.15-0.36-2.34-0.79-3.13-1.69
				c-0.77-0.86-1.06-2.03-1.3-3.15c-1.45-6.74-2.02-13.67-1.7-20.56c0.1-2.25,3.06-2.94,5.31-2.99c1.74-0.04,3.52-0.07,5.13,0.56
				c1.61,0.64,3.02,2.11,3.03,3.85C208.95,209.46,208.97,216.1,208.99,222.73z"/>
		</g>
	</g>
	<path class="st2" d="M124.17,284.87c0.36,2.66,0.94,5.67,3.15,7.08c1.47,0.94,3.31,0.93,5.04,0.88
		c52.46-1.34,104.93-2.67,157.39-4.01c1.78-0.05,3.65-0.12,5.16-1.09c2.74-1.77,3.16-5.65,3.29-8.99
		c1.64-42.18,2.58-84.4,2.81-126.61c0.09-16.4,0.04-33.05-4.23-48.85c-0.42-1.56-0.91-3.16-1.94-4.38
		c-2.49-2.98-6.97-2.66-10.74-2.1c-45.85,6.79-92.05,11-138.34,12.6c-7.19,0.25-20.04-2.33-26.78,0.39
		c-8.67,3.5-6.65,14.72-6.51,22.76c0.42,23.76,1.51,47.5,3.23,71.19C117.68,230.87,120.5,257.93,124.17,284.87z"/>
	<path class="st3" d="M199.07,228.26c0.15,0.81,0.34,1.65,0.97,2.28c0.86,0.85,2.3,1.08,3.63,1.25c2.93,0.38,6.14,0.72,8.67-0.56
		c3.76-1.91,4.08-6.27,3.97-9.94c-0.09-3.12-0.19-6.23-0.28-9.35c-0.07-2.4-0.2-4.96-1.84-6.93c-3.66-4.41-12.14-5.24-15.05-1.25
		C195.2,209.15,197.96,222.38,199.07,228.26z"/>
</g>
<g id="Layer_1">
	<path class="st11" d="M265.34,116.65c1.79,0.39,1.46,3.38-0.18,4.21c-1.64,0.82-3.59,0.25-5.38-0.15
		c-10.8-2.43-21.82,1.89-32.78,3.43c-4.74,0.67-9.53,0.81-14.31,0.94c-23.88,0.67-47.76,1.09-71.64,1.26
		c-6.13,0.04-12.38,0.05-18.22-1.8c-1.29-0.41-2.79-1.27-2.65-2.62c0.16-1.57,2.29-1.91,3.87-1.82
		c38.64,2.23,77.62,3.82,115.84-2.24C248.34,116.52,256.99,114.81,265.34,116.65z"/>
	<path class="st11" d="M129.37,176.01c0.52-3.02-1.06-5.95-1.91-8.89c-1.39-4.79-0.81-10.13,1.58-14.51
		c0.53-0.96,1.24-1.96,2.3-2.21c1.07-0.25,2.39,0.76,2,1.79c-2.22,5.86-2.26,12.52-0.13,18.41c1.44,3.97,0.18,8.35-1.07,12.38
		c-0.39,1.24-2.3,1.38-3.21,0.45s-0.97-2.41-0.68-3.68C128.55,178.48,129.14,177.29,129.37,176.01z"/>
	<path class="st11" d="M276.8,135.21c-0.82,1.39-3.01,1.39-4.23,0.34c-1.23-1.05-1.67-2.75-1.82-4.35
		c-0.15-1.61-0.09-3.26-0.58-4.79c-0.42-1.33,0.55-2.92,1.92-3.15s2.81,0.96,2.85,2.35c0.06,2.49,1.59,4.69,2.09,7.13
		C277.19,133.56,277.23,134.48,276.8,135.21z"/>
	<path class="st11" d="M274.14,172.5c-1.61-0.48-1.85-2.63-1.77-4.31c0.09-2.04,0.18-4.08,0.27-6.12c0.08-1.81,0.42-4,2.1-4.67
		c1.92,3.24,2.91,7.02,2.83,10.79c-0.02,1.07-0.15,2.18-0.72,3.08C276.29,172.18,275.17,172.81,274.14,172.5z"/>
	<path class="st11" d="M133.11,245.02c0.12,6.7,0.25,13.4,0.37,20.1c0.02,0.88,0.04,1.79,0.42,2.59c1.04,2.2,4.03,2.41,6.46,2.32
		c32.54-1.29,65.12-1.4,97.68-1.51c8.05-0.03,16.1-0.05,24.15-0.08c1.8-0.01,3.82,0.08,5.03,1.41c1.21,1.33,0.34,4.17-1.42,3.83
		c-6.83-1.33-13.84-1.35-20.8-1.37c-13.3-0.03-26.59-0.07-39.89-0.1c-4.57-0.01-9.14-0.02-13.71,0.01
		c-20.04,0.14-40.07,1.11-60.03,2.91c-2.05,0.19-2.78-2.64-2.76-4.7c0.09-6.9,0.18-13.8,0.27-20.7c0.02-1.33,0.06-2.75,0.79-3.86
		C130.42,244.74,132.1,244.15,133.11,245.02z"/>
	<path class="st11" d="M270.91,235.85c1.93,2,2.31,5.33,0.87,7.71c-0.36,0.59-0.86,1.16-1.54,1.31c-0.92,0.2-1.86-0.46-2.28-1.31
		c-0.42-0.84-0.46-1.82-0.48-2.77c-0.02-0.94-0.05-1.88-0.07-2.82c-0.03-1.15,0.13-2.59,1.22-2.98
		C269.44,234.71,270.32,235.23,270.91,235.85z"/>
	<path class="st11" d="M102.42,111.58c-1.14-2.67-2.51-5.4-2.31-8.29c0.2-2.89,2.79-5.85,5.61-5.19
		c57.58,13.45,117.63,3.44,176.41-3.04c3.33-0.37,6.78-0.71,9.99,0.25c3.21,0.97,6.17,3.6,6.45,6.94
		c4.99,59.54-5.94,119.64,0.06,179.09c0.45,4.45-3.09,8.53-7.23,10.21c-4.15,1.68-8.78,1.52-13.25,1.36
		c-51.82-1.94-103.73-1.41-155.5,1.61c-4.6,0.27-10.28-0.05-12.27-4.2c-0.69-1.44-0.75-3.08-0.81-4.67
		c-0.73-21.42-1.47-42.84-2.2-64.27c-0.57-16.69-1.14-33.41-0.44-50.1C107.77,151.16,110.33,130.11,102.42,111.58 M221.91,204.5
		c20.47,0.48,40.95,0.77,61.43,0.86c2.98,0.01,6.49-0.25,8.09-2.76c0.74-1.16,0.9-2.58,1.04-3.95c2.97-29.29,3.65-58.81,2.05-88.21
		c-0.22-4.04-1.21-9.04-5.12-10.1c-3.66-1-7.25,2.36-11.04,2.08c-16.9-1.28-33.8,1.63-50.62,3.67c-38.82,4.7-78.21,4.75-117.05,0.14
		c-2.57-0.3-2.81,3.67-2.06,6.14c8.89,29.15,0.62,60.63,3.43,90.98c0.11,1.24,0.32,2.62,1.3,3.39c0.83,0.65,1.96,0.67,3.01,0.66
		c21.85-0.19,43.7-0.39,65.55-0.58c2.52-0.02,5.25-0.12,7.21-1.7c1.96-1.58,2.31-5.24,0.04-6.34c-1.26-0.61-1.09-2.64-0.02-3.54
		c1.07-0.9,2.59-0.99,3.99-1.04c3.71-0.13,7.42-0.26,11.13-0.39c1.87-0.07,3.81-0.12,5.53,0.6s3.18,2.45,2.96,4.31
		c-0.24,2.03,1.28,3.94,3.13,4.81C217.75,204.39,219.87,204.45,221.91,204.5 M213.2,211.89c0.28,5.45,0.55,10.89,0.83,16.34
		c0.09,1.71,0.04,3.71-1.34,4.72c-0.95,0.7-2.24,0.67-3.42,0.61c-5.63-0.29-12.1-1.03-15.26-5.7c-2.12-3.13-2.11-7.18-3.02-10.86
		c-0.92-3.67-3.72-7.59-7.48-7.21c-22.69,2.26-45.54,2.92-68.33,1.95c-2.36-0.1-3.09,3.13-3.01,5.49
		c0.71,21.23,1.43,42.46,2.14,63.69c0.13,3.76,1.59,8.81,5.34,8.48c55.89-4.92,112.16-1.06,168.25-2.69
		c0.95-0.03,1.96-0.07,2.78-0.55c1.72-1.01,1.9-3.39,1.88-5.39c-0.23-21.61-0.46-43.22-0.69-64.83c-0.01-1.01-0.03-2.05-0.46-2.97
		c-1.12-2.38-4.31-2.74-6.94-2.76c-22.4-0.21-44.8-0.43-67.2-0.64C215.51,209.54,213.11,210.13,213.2,211.89 M200.55,198.42
		c-2.25,0.05-5.21,0.75-5.32,3c-0.32,6.89,0.25,13.81,1.7,20.55c0.24,1.12,0.53,2.29,1.29,3.15c0.8,0.9,1.98,1.33,3.13,1.69
		c2.44,0.76,5.73,1.04,6.95-1.21c0.47-0.86,0.48-1.89,0.47-2.87c-0.02-6.64-0.05-13.27-0.07-19.91c-0.01-1.73-1.42-3.21-3.03-3.84
		C204.07,198.35,202.29,198.38,200.55,198.42z"/>
</g>
</svg>
